/* XPM */
static char *result[] = {
/* columns rows colors chars-per-pixel */
"64 64 256 2 ",
"   c #7B5F29",
".  c #57544C",
"X  c #51504C",
"o  c #685750",
"O  c #6C645A",
"+  c #73695D",
"@  c #777164",
"#  c #526A64",
"$  c #7F3401",
"%  c #843A08",
"&  c #9F322E",
"*  c #CC1A18",
"=  c #FC0705",
"-  c #FB110E",
";  c #E91714",
":  c #FA1A15",
">  c #EA0B0A",
",  c #F8231D",
"<  c #E8241E",
"1  c #FA2B23",
"2  c #F62A22",
"3  c #F73C31",
"4  c #F13128",
"5  c #D02B25",
"6  c #8C4716",
"7  c #904C1B",
"8  c #995A2A",
"9  c #995832",
"0  c #9B6932",
"q  c #A2673A",
"w  c #F54639",
"e  c #E8463A",
"r  c #D14338",
"t  c #AB754D",
"y  c #867969",
"u  c #BB7261",
"i  c #F15646",
"p  c #F26B57",
"a  c #EF7962",
"s  c #C76454",
"d  c #04FD02",
"f  c #09FC06",
"g  c #0DFB09",
"h  c #13FA0D",
"j  c #17FA0A",
"k  c #1CF614",
"l  c #1AF913",
"z  c #17F910",
"x  c #21F517",
"c  c #24F41A",
"v  c #2AF31D",
"b  c #27F818",
"n  c #29F513",
"m  c #3CED2A",
"M  c #35ED25",
"N  c #2EF321",
"B  c #32F224",
"V  c #3BF329",
"C  c #2FEE21",
"Z  c #56F515",
"A  c #65F41B",
"S  c #69EE1F",
"D  c #42EC2E",
"F  c #42EA2A",
"G  c #45EC31",
"H  c #4AEC34",
"J  c #4BE634",
"K  c #54EB3B",
"L  c #57E73C",
"P  c #48F134",
"I  c #51F134",
"U  c #6AEE27",
"Y  c #75EF2D",
"T  c #68D526",
"R  c #659368",
"E  c #6ADC4A",
"W  c #79DA55",
"Q  c #72DE4D",
"!  c #5CE842",
"~  c #67E548",
"^  c #76E654",
"/  c #70E74B",
"(  c #5FD841",
")  c #959236",
"_  c #84E93B",
"`  c #85D83C",
"'  c #DAFD1A",
"]  c #EBFD09",
"[  c #F1FD04",
"{  c #E6FA15",
"}  c #F7ED11",
"|  c #D5FB27",
" . c #CBFA30",
".. c #EDED2B",
"X. c #E8CF3F",
"o. c #B6865B",
"O. c #998873",
"+. c #8D8573",
"@. c #A5947C",
"#. c #B09073",
"$. c #AEB56E",
"%. c #8F9D69",
"&. c #D19372",
"*. c #EE8C71",
"=. c #CFA37A",
"-. c #84D85D",
";. c #92DB4C",
":. c #82E55A",
">. c #94EC4D",
",. c #B3F551",
"<. c #98CD69",
"1. c #8AD762",
"2. c #95D669",
"3. c #9BD36E",
"4. c #B2D66C",
"5. c #A8CC77",
"6. c #B7C87B",
"7. c #A7D776",
"8. c #AED06C",
"9. c #91EB69",
"0. c #ABEA6F",
"q. c #A3D25F",
"w. c #CDEF4D",
"e. c #CBD774",
"r. c #E6DB63",
"t. c #67A393",
"y. c #6DFC8F",
"u. c #72D3BC",
"i. c #53F9AF",
"p. c #65E2B0",
"a. c #3CEBDD",
"s. c #35EBDD",
"d. c #2EEFD8",
"f. c #1CF6ED",
"g. c #1BF8EF",
"h. c #14F7ED",
"j. c #05FDF6",
"k. c #0CFBF5",
"l. c #03FEF8",
"z. c #13FAF2",
"x. c #1BFAF1",
"c. c #19FBF5",
"v. c #10ECE5",
"b. c #34EEE1",
"n. c #3BEEE1",
"m. c #2CF2E6",
"M. c #24F5EA",
"N. c #2BF5EA",
"B. c #26F6EC",
"V. c #34F2E5",
"C. c #3BF2E4",
"Z. c #35F5E9",
"A. c #2BF5EB",
"S. c #2BDCD0",
"D. c #5BDECB",
"F. c #6BDBC7",
"G. c #78DBC5",
"H. c #43EBDC",
"J. c #4BECDC",
"K. c #49E7D6",
"L. c #5CE5D3",
"P. c #53ECDB",
"I. c #57E9D7",
"U. c #54E9D1",
"Y. c #68E2CC",
"T. c #7AE3CC",
"R. c #66E8D5",
"E. c #76EAD4",
"W. c #62F0DD",
"Q. c #45EFE0",
"!. c #47F2E4",
"~. c #55F3E3",
"^. c #4FFAF4",
"/. c #73F9F3",
"(. c #388580",
"). c #AC9981",
"_. c #B29E83",
"`. c #BBA488",
"'. c #B4B795",
"]. c #9EAD97",
"[. c #C3A98B",
"{. c #CBB58C",
"}. c #D5B58D",
"|. c #CAB695",
" X c #D2B692",
".X c #D4BA95",
"XX c #D5BD9A",
"oX c #DBBD9A",
"OX c #DBBA95",
"+X c #CEAC8D",
"@X c #E3BB98",
"#X c #EEAF8E",
"$X c #D7BFA0",
"%X c #BACA84",
"&X c #B8D686",
"*X c #90E991",
"=X c #99CDB2",
"-X c #8BD4BB",
";X c #98D4B9",
":X c #91CBAC",
">X c #B9C9A9",
",X c #A7D7BB",
"<X c #B7D5B6",
"1X c #A9CAAD",
"2X c #9DE099",
"3X c #C6C787",
"4X c #C8D789",
"5X c #CAC794",
"6X c #DCC29D",
"7X c #D7C79A",
"8X c #D8D59A",
"9X c #D0D48E",
"0X c #E2C29D",
"qX c #E7C79F",
"wX c #EACE99",
"eX c #C8C8A6",
"rX c #D9C7A4",
"tX c #C5D7B6",
"yX c #D6D7B6",
"uX c #CDD3AE",
"iX c #E3C5A1",
"pX c #E4CAA3",
"aX c #EBCCA5",
"sX c #EBCEA9",
"dX c #E8C9A4",
"fX c #F3CCA6",
"gX c #F5CEA9",
"hX c #F8CFA9",
"jX c #EED2AA",
"kX c #E8D4A5",
"lX c #F3D3AC",
"zX c #FCD3AC",
"xX c #F2D5AB",
"cX c #E9D8B4",
"vX c #F9DAB3",
"bX c #E2CEB5",
"nX c #F7E2B4",
"mX c #CBE19F",
"MX c #87DBC3",
"NX c #98DDC3",
"BX c #A9DCC2",
"VX c #88E2CA",
"CX c #90E7CF",
"ZX c #B0E5C9",
"AX c #92F6EF",
"SX c #AAFBF7",
"DX c #B7FCFA",
"FX c #B5F4EB",
"GX c #C6E5CA",
"HX c #EAE9DB",
"JX c #C7FBF8",
"KX c #D8FCFA",
"LX c #CAF4EB",
"PX c #E8FCFB",
"IX c #F7FCFB",
"UX c #EEF1E7",
/* pixels */
"F.h.k.M.I.yX[ ..oXXX|.=XT.P.B.g.f.F.T.;XeX<XL.M.L.=XrXpXpX6XrX|.!.R.OXdXaX<XJ.h.f.H.G.>XK.T.lXiXiXdXiXeX,XiXiX>XuXoXiXpXsX.X|.H.",
"V.g.J.1X{.}.] | T.Q.a.a.B.k.k.M.P.E.G.M.f.M.u.rXjXxXxXOX<XY.C.g.C.G.1X;Xb.z.V.-X<XNXG.K.W.rXoXOXrXT.N.k.b.>XF.m.C.sXjXOX>X:XI.m.",
"l.-XrX;XY.H.{ | MXd.z.j.V.MX6XaXuX*Xm.z.-XkXjXjXvX.X1XP.l.k.k.k.b.m.k.k.k.M.g.k.k.c.k.H.$X.XBXSX/.^.K.<XZX/.A.x.CX;XF.n.H.L.L.h.",
"B.f.C.~.2Xw.[ {  . .2X7XxXvXw.{ {  .N.E.>X<XiX6X:XK.m.f.j.M.M.l.l.l.z.l.h.R.VXtXuXn.F.>XVX^.KX/.FXUXLXKXSXDXJXZ.h.k.z.;X1XJ.n.R.",
"Y.K.l.y.| '  .,.,.' { *X9.{ [ ,.K.k.k.z.k.m.,XSX/.^./.AXB.k.l.m.-X>X6XU.f.tXxXu.n.R.K.m.v./.LXY./.IXIXKXDX/.DXFXPXIXJXB.z.c.!.CX",
"[ [  .] | ,.,. .w.u.'  .| ] i.B.j.m.U.P.C.^.KXSXJXIXSXKXPXPXIXUXUXcX XeXM.f.k.h.M.f.f.M.n./.PXVXFXFXPXKX^.PXAXDX^.A.JXKX1XOX7XXX",
"| ] [ [ ,.k.k.d.>.y.y.9.i.s.m.z.M.m.g.z.DXPXIXJXPXIXPX^.^.KXDXPXDX/.C.C.k.l.l.l.l.k.g.m.b.H.DXSXAXIXJXPXJXPXB.IXKXKXUXIXuXrX6XiX",
"n.k.i.[ y.^ |  .| | *X,.-XY.g.h.a.Z.z.^.KXHXHXPX/.IXIXPXJXUXIXIXLXL.C.R.f.l.k.h.M.m.m.m.m.h.l./.SXJXAXJXIXPXKXDXKXPXIXPXVXxXxX>X",
"z.V.5.[  .w.MX4X..[ *X,.h.c.k.k.l.l.k.CXPXKXSXPXUXAX/.JXbXbXpXiXOXxX>Xu.k.m.L.L.b.].$X.XMXj.B.MXE./.KXKXKXIXDXl.FXPXIXAXL.+XoXD.",
"U.<Xp. .[ X.w.{  .[ ' 9.l.l.f.b.Y.b.b.M./.JXIXHXAXSXDXGX$XrX0X*.a a }.7X>XG.n.!.C.<XeXsXg.k.b.m.V.j.m.R.^.SXJXSXUXLXCXb.J.fXsXV.",
"k.k.U.{  .| ' ' { { ] ] ,.p.MXI.z.g.l.M.MXN.BX/.FX~.E.gXsXdXa : : 2 w '.j.F.eXm.f.z.Z.R.H.z.k.c.M.z.k.c.n.F.Z.tXCXI.Q.Q.Z.XXXXk.",
"-XVXp.] ' y.9.w...] { ,.' ' 9.z.l.h.L.G.n.P.~.BXc.n.XX}.#Xp 1 : w w : 2 ].c.n.M.D.B.n.m.M.R.yX1XL.f.M.-XNXT.M.BXn.B.b.H.M.rX<XV.",
"6XwX9X[ [ [ { ......0.z.c.y.{ ] w.eXXX<XJ.R.eXn.f.oX#Xa w 1 : : i #Xi 2 1 &.k.k.P.N.j.N.Z.j.l.l.l.z.k.B.V.g.x.B.l.k.l.l.m.=XF.D.",
"0X}.} [ ..r.r.w.0.i.B.k.H.Y.b.,.{ sXE.c.=XsXsXZ.tX&.i 2 : 3 w 3 i #Xa w , 1 a I.rXiX,XQ.k.j.k.l.k.z.M.a.F.M.m.z.z.I.M.z.!.R.Q.MX",
"6X..[ ..4.U.h.~.a.H.;XN.V.V.n.R.Z.k.h.bXlXnXrX@X*.w : - = #Xp i p 1 3 2 3 , 4 a }.oX.XeXP.Z.R.g.n.b.f.Q.qXg.V.b.m.pXx.M.K.N.N.G.",
"r.[ { 9.a.VXE.B.H.I.!.l.k.c.W.x.z.Q.<XvXiX6X@Xa 4 - : 4 *.dXi : = : : 1 p i : 1 i #XsXvXvXyXE.l.f.M.z.l.J.k.N.k.P.0Xa.m.!.N.~.E.",
"E.[ ,.l.B.l.l.C.E.ZX<Xk.b.k.l.n.eXvXoX XOX*.p , = 2 i : = @Xw = - 3 = , 3 *.- 4 - i *.#XiXiXuXn.BXz.f.k.k.l.l.N.m.T.Z.f.M.f.m.m.",
"M.y.h.l.n.1X>X;Xu.J.h.l.L.G.|.dXiX6XiX#Xa 1 = - 3 < = : - fX, = 3 - 1 : i i : a = , < < i $X|.Q.>X-Xa.!.P.l.P.R.!.E.x.k.B.k.k.l.",
"GX<XZ.ZXE.C.b.M.l.M.B.VXsXaXjXdXpXOXp < = = , : = 4 p = *.+X= = - , a : p 1 3 3 - p 2 = - p #XMXI.CXV.V.uXl.H.VXT.6XQ.h.m.l.z.N.",
"qXQ.V.m.Z.B.!.E.~.C.ZXnXjXsXxXfX*.5 > = = ; 5 ; t s ; 5 u > = = = r 5 < > s ; r > u < 3 = - 3 *.T.H.H.C.-Xk.k.VXG.cXm.C.!.g.;Xb.",
"M.l.N.I.MX;XH.f.E.=X<XoX@X@X=.i < ; 5 & o & * 9 * * ; & * & * & * & * & & X . . * > & X * - , , i fXZX!.!.c.k.C.E.;XJ.rXE.f.cXvX",
"C.E.vXZX!.A.Z.n.n.M.-XoXiX#Xi , 4 & 9 y _., ; - s #.< e u @.)._.4 e `.].[.[.[.`._.).y + o * - 2 : i '.b.c.F.z.k.N.Q.<XjXI.V.>X6X",
"W.I.m.f.h.F.MXC.n.,X0XlXnX#X1 w a @ y +XsXdX#XzXvXzXlXzXcXvXzXzXzXzXhXhXzXgXgXzXzXzXjXzXzX`.u p 1 , [.N.z.<XtXz.x.yXpXdXa.~.ZXT.",
"b.k.P.NXNXn.H.BXjXvXvXOX+X#X*.#XbX@ `.dXzXzXzXzXzXzXzXzXzX0X0XiXzXhXdXhXgXzXsXlXjXzXzXfX[.O y iX*.i [.c.c.cX<XH.R.iXrXyX!.Y.MXN.",
"J.tXtXW.~.ZXvXfXoX X X0XvXlXnXdX_.y X +XhXzXzX@.).t.y #.O.O.#.lXoXzXzXvXzXzXzXzXzXhXfXfXdXoXy |.[.+X=Xl.V.1XQ.n.~.JXJXJXJXAX^.F.",
"n.W.A.NXiX0X}.OXeXeX=XBXMXF.R.<X$X).X +XzXzXfX# v.S.+ . t.+.O ).gXzXzXzXzXzXgXzXzXgX@XzXhX_.+ [.@XlXE.c.Z.k.k.c.DX/.k.z.^.AXKXHX",
"l.Q.,X=XG.R.Q.Z.N.x.x.c.l.c.V.ZXvX_.X ).zXzX$XS.h.m.D.@ M.l.:XoXhXzXzXzXzXsXhXzXsXzXzXgXoXy O [.nXvXZ.l.l.c.JXKXUXHX/.SXIXSXUXIX",
"M.b.I.P.!.Z.c.B.Q.F.F.MXZXBX;X=XyX).X dXzXiX|.v.j.k.S.t.h.m.bX XgXzXhXzXgXzXzXvXiXzXfXgXsXy . ).<XQ.A.j.j.AXLXPXJXAXPXIXIXKXIXUX",
"VXE.L.A.Q.K.K.n.b.H.P.R.D.K.M.g.<X).. iXhXzX@XO + + # X (.n.S.+ iXzXzXgXhXzXfX+XdXfXgXzXqXO.X u.g.Q.!.l.l.JXJXJXLXHXdXKXIXUXIXPX",
"<XJ.Y.L.F.NXBXeXrXiXlX1XJ.g.CXrXbX).X OXhXgXbXO `.S.F.# MXj.l.O $XzXsXgXzXzXsXiXiXzXzXzXqXy X ].MXCXR.l.N.KXKXFXLXIXIXSXAXcXFXKX",
"5XM.sXlXjXfXiXjXyXMXQ.Q.NXrXoXcXvX).+ fXzXvXvXo ;Xl.h.(.b.I.R.O +XzXzXlXzXgXhXvXzXzXzXzXdXy . `.vXiXg.Q.bXZXDXPXPXLX~.k.B.P.A.h.",
"rX~.ZX0XeX=XY.n.Q.R.BXvXiXrXgXsX@XO.y gXgXzX$XO L.l.,XR F.s.t.O $XzXgXfXdXgXzXhXdXzXzXzXdXy . _.@X1Xk.<X,XV.Y.iXdX6XBXh.A.V.k.f.",
"aXT.L.T.H.I.MX>XXXlXrX+X XlX@XrX$X).+ @XhXhX6XO @ R O X X # [.zXzXzXoXxXzXzXhX@X0XzXzXqX[.y . ).,XM.k.Q.J.=X>XT.W.N.Z.z.a.VXE.R.",
"lXL.l.J.MX;X;XMXW.J.V.b.N.g.j.<XvX).@.dXzXzXlX$X_.).`.rXxXzXzXzX0XoXaXzXzXlXlXxXzXhXzXsX.X+ O `.CXc.m.uXBXJ.!.E.F.F.H.j.V.R.VXCX",
"oXMXg.J.R.W.R.T.-X,XMXI.f.Q.BXxXdXO.[.0XzXzXvXoXbXdXzXzXsXdXdX0XhXfXzXxX=.q 0 t q =.}.qX[.+ +  XMXM.Z.<XV.!.~.H.J.VX,Xz.Y.D.C.V.",
"aX0X-XK..X|.=XF.a.b.I.MXrXiX.XXXoX).O @.zXzX@X$XlXzXzXhXaXgXzXlXzXzXzXu 9 o.o.t t 8 6 9 [.O O `.F.V.f.rX1X=X=X1X,XE.!.A.Y.F.F.,X",
"pXeX,Xk.K.n.I.MX1XpXdXsXjXbXoXpXiX).X @.zXzXOXzXzXzXzXzX0XzXzXzXzXhXwX&.oX7 q &.8 o.7 9 |.O + |.T.Z.f.>XtXT.K.C.V.C.N.f.k.k.z.~.",
"s.C.~.V.W.tXuXyXyX5XyXeX>XtXyXjXdX@.X @.zXfXzXzXzXzXgXhXzXzXOX0XzXaXhX#Xq $ 8 t 6 8 7 q _.+ @ XXVXN.Q.Q.z.k.k.k.f.M.f.g.M.A.c.k.",
"C.H.H.s.z.a.H.Q.a.H.H.H.Q.b.G..X X@.X @.zXzXzXzXzXlXzXzXzXaX0XzXzXhXhXt $ $ 0 6 % o.% &.|.O @ ].a.j.z.k.a.a.H.V.z.j.g.J.E.G.1XeX",
"0XOX X7XK.=X+XoXiXdXXXBXM.F. X X$Xy X @XzXzXzXzXzXzXfXzXaX6XfXzXwXzXhX6 6 $ q 6 8 #.$ pX[.o + t.V.Z.K.k.I.MXF.B.J.yXqX6X6X6XOX0X",
"6XqXzXiXBX!.xXlX<XF.s.P.,XhXjXxX|.O + zXzXzXzXzXfXfXfXzX0XlXfXfXzXzXhX8 % q q & t 8 7 zX'.@ +  XsXoX|.NXI.;XJ.ZX>X5X>XeXeXsXrXoX",
"pX0X XeX=Xm.J.H.J.G.>XOX.X XqXOX`.o oXfXzXfXhXfXhXfXaX0XzXzXfXfXzXzX@Xq r.} ..r.@X% q OX`.O O _.eXNXVXR.c.l.f.M.m.m.b.m.m.g.B.V.",
"5X;XP.n.U.b.E.eX6X6X{.qX7XdX0X+X).O ).OXhXhXhXzXhXaXzXzXzX0XhXzXzXzX}.8 X.} } } }.% t 6X`.+ O ).H.M.C.H.J.l.m.G.G.T.R.Q.N.h.k.l.",
"<Xg.n.I.I.V.b.L.R.R.E.Y.T.T.MXCXt.(.t.+X6XzXzXhXlX6XfX0XrXfXzXqXhXOX+X8 wXX.} r.0 6 o.qX+XO + $X6X;Xu.G.Y.P.l.k.f.z.z.h.B.M.f.Q.",
"lXrXBXG.E.m.b.P.K.a.V.b.m.M.M.f.v.v.v.tXpXsXfXiX.X.XoXfXfXfXdXxXqX6X7X8 =.7 wX=.% 6 o.vX#.+ + `..XrXiXlXdXsXNXJ.a.K.u.VXNX<XjXsX",
"V.j.l.l.l.l.z.U.-X=X1X1X>XuXeXrX%.# @.e.3X3Xe.3X9Xe.4X4.q.q.q.q.8.4.4.7 $.7 q 7 % q t }.[.+.O.oXaXsXaX0X$XOXOX;Xz.~.xX0X X+X X.X",
"V.n.J.U.u.<X>XpXgX0X}.7X9X4X8.8.R . R _ T _ Q ` Y Y Y S S A A A A A S 0 ` ) ) ) 4.) ) 4.4.5.$.q.4.4.6.6.$.3X%X6.&X2X4X6.6.6.e.3X",
"dXsXXX9X6X9X3X6.8.4.0.>._ S A A Z T A A Z Z n j j f n >.>.>._ L B n n Y S A A Z Z A A A A A A A S S S Y _ Y _ >.;.Y _ _ Y Y Y Y ",
"aXL h x g Y Y Y U A Z Z A S U U F j d d d d f d d l K / E D D L F h I 6.4.4.q.q.;.;.0.>.;.>.;.>.;._ _ _ U Y A A S Y U Z n k g n ",
"x I ;.A h Z Y Y _ >.I v g f N H c d b ! D N / 7.^ l D g f ! D D :.3X.X6XrXdXvXsXfX8X{.{.9X8XkX3X3X7X9X4.2.:./ I N l z z c G / q.",
"Z A Z f U 4.4X5.4.P h f ! B E k z ^ W -.<.{..XW f d g d f z H XX6X0XqX7.kXaXsX6X8X%X&X7XaX6.<.W / K F N M M N c F Q 3.8XxX6XOX6X",
"Y U n L E G N C b f f l d c g l ! 6.<.B K  X3.d d d h ! 7.2.g 9.9.W M d m L v g f f d d d d d f d d v B m ( 2.1.b P fXxXgX0XxXxX",
"J N P P ~ 3.^ k g l c c h h c 1.J G v B P c d d f v J J L C N E E c f G G c f f g g d j c c ! J j V :.9X9X^ c h H e.6X X.X5.Q M ",
"l ~ 3.&X! g f l P G z N ! m {.%Xh H W J J g g B %X XXXiX6.v $.6XH h m I 9.8X7X5.D v b K h x M W 8XjX2.F z v N 5..X'.<.( m B c v ",
"m k h d d m 2.^ k g ! ~ N ~ E f m L m 5.k z G {..XiXaX4XP 3.rXV d k -.|. X$.H l V H z h ~ %X|.5.E v J D z W %X1.L m K K V I 7.rX",
"l N h N P N f d z H P g ! ! f z x ~ 7.v v v 4XvXaXOX5.g 3.6.h d Q 6XpX&XV f N ! V l ! 8X3X9.K P ~ ! B L / H M / ^ ~ G ( 6.OX.X6X",
"c k Q E G G B W 6X9XH <.W d N m 1.~ G B N W .X6XrX9.J 5.1.g g %X6X2.B g v 9.L F 1.f N N N m L m C C k m W 3.W V H 1.%X.X.X7XrXrX",
"h h c L :.k -.dX5XN ^ ! l l ! %XV ! 1.k D rX7XjX! m %X^ g z 2.! j h m &X~ z W %X~ B N N h f d d h B ! K c h ! 4X6XrX6XqX4X7.Q ~ ",
"%X1.G W J 3.sX5XK ~ P h z 2.&XB :.kXN V 5XaX4Xm ~ sX^ g g B z l ~ %X1.k ( 7.G l m V c k N ~ 0.mX9.K g v m P M l l l h g k B K ~ ",
"6XrX5.f W 6X6XK B g h N 4XW G 7..XE B W 5X1.G 1.6X! d d N g ~ 3X<.m J E k k l l N M ~ 5.rX%X1.P G W %X5.W K N m ~ Q -.1.E G c g ",
"dX7XK j pXkXP g z G V jX! m 5XrX&XV m 4X! H 9X7.m d f c ^ kX4X! B H b j c V V ~ 5.7X8X9.H m ! W ^ P m K ^ 3.7XiX9X1.! N v I ! P ",
"xX~ ! c <.z d m 5.m 1.C / kXvXjX! N ^ x ^ sX7.x k k -.kX5.M h B v j x N K 2.8XrXmX^ V K ! K P ~ 1.&XmX7.^ ~ B j g N N B B B z N ",
"7.m m f M g 3.oXN L G 3.dX{.rX%XP l V 5. X7Xl v 7.E N g h k ! 5.1.L 2.'.XX6XiX8Xl k B P ^ ^ / K B g j l l l v H ^ 1.5.%X~ M 7.rX",
"f B V :.jXsXsX8XB m 9XlX7X6XpX! B g %XdXlX^ g B N N c ! 7.kXfXxXaXiXsXpXiXdXjXjX5.! B l l N l h c G ~ 1.&X7XaXaX$X5X2.m / kXsX9X"
};
