/* XPM */
static char *result[] = {
/* columns rows colors chars-per-pixel */
"64 64 212 2 ",
"   c #020304",
".  c #050708",
"X  c #0B0C0B",
"o  c #1A1A1B",
"O  c #0B0E10",
"+  c #2F1A14",
"@  c #2A2C2B",
"#  c #242726",
"$  c #343839",
"%  c #2D3132",
"&  c #632B1D",
"*  c #5A3B34",
"=  c #512D2D",
"-  c #752821",
";  c #704427",
":  c #3B3E42",
">  c #373D45",
",  c #483D44",
"<  c #3B434A",
"1  c #39454B",
"2  c #3F4D55",
"3  c #434B4D",
"4  c #484849",
"5  c #434B53",
"6  c #4A4E53",
"7  c #49545C",
"8  c #525455",
"9  c #755B57",
"0  c #624E59",
"q  c #495662",
"w  c #4C5964",
"e  c #4F5B6A",
"r  c #515E6B",
"t  c #585B63",
"y  c #6D5C63",
"u  c #55636D",
"i  c #5E676E",
"p  c #556473",
"a  c #5A6873",
"s  c #5C6C7B",
"d  c #596777",
"f  c #706E6E",
"g  c #616E7C",
"h  c #606B75",
"j  c #7C777A",
"k  c #60686C",
"l  c #952819",
"z  c #A02F12",
"x  c #B73B14",
"c  c #B6270E",
"v  c #A6372A",
"b  c #DF320F",
"n  c #D73A1D",
"m  c #C9310E",
"M  c #F2301D",
"N  c #E43D15",
"B  c #DA3923",
"V  c #CD3629",
"C  c #F33626",
"Z  c #F43A29",
"A  c #F93928",
"S  c #E23424",
"D  c #88423F",
"F  c #A9442A",
"G  c #BA4B27",
"H  c #AD553C",
"J  c #A5463D",
"K  c #CC4A16",
"L  c #D0411D",
"P  c #CF5116",
"I  c #D94628",
"U  c #D45629",
"Y  c #CA4934",
"T  c #D94B32",
"R  c #CC5438",
"E  c #D85839",
"W  c #F4473A",
"Q  c #E3523A",
"!  c #D36433",
"~  c #D2693D",
"^  c #8F544F",
"/  c #A65448",
"(  c #B15C4F",
")  c #A7514B",
"_  c #936150",
"`  c #A76857",
"'  c #B9625B",
"]  c #AF705E",
"[  c #BE734E",
"{  c #946966",
"}  c #B87768",
"|  c #AF7E71",
" . c #AF726A",
".. c #CC5D47",
"X. c #D95645",
"o. c #F5564A",
"O. c #EB574E",
"+. c #CE6849",
"@. c #D66646",
"#. c #D96B56",
"$. c #D9745B",
"%. c #D27047",
"&. c #E26645",
"*. c #EC675E",
"=. c #F5665A",
"-. c #E6785C",
";. c #CF796B",
":. c #CD7562",
">. c #D77569",
",. c #CB7373",
"<. c #E56861",
"1. c #F76D64",
"2. c #F7726A",
"3. c #F47163",
"4. c #F17470",
"5. c #D98A5C",
"6. c #E4845C",
"7. c #E8804E",
"8. c #D78667",
"9. c #C78C7A",
"0. c #D78975",
"q. c #D89878",
"w. c #C7846E",
"e. c #E98665",
"r. c #E58D6C",
"t. c #E78767",
"y. c #E19564",
"u. c #E5916B",
"i. c #E9996C",
"p. c #E48F73",
"a. c #E59474",
"s. c #EB9475",
"d. c #E79B76",
"f. c #EA9A7C",
"g. c #E89878",
"h. c #F08668",
"j. c #ECA67A",
"k. c #F1A677",
"l. c #EDAE72",
"z. c #5F7080",
"x. c #627383",
"c. c #6C768A",
"v. c #977988",
"b. c #F4549A",
"n. c #F45A9E",
"m. c #F34E96",
"M. c #CB7E80",
"N. c #F45FA2",
"B. c #CE7BA9",
"V. c #F57EB5",
"C. c #7F8184",
"Z. c #97908A",
"A. c #BE8683",
"S. c #9D99A4",
"D. c #B793A7",
"F. c #D2938A",
"G. c #D19584",
"H. c #D29187",
"J. c #E69383",
"K. c #D8A18E",
"L. c #DAA896",
"P. c #E7A887",
"I. c #F0A886",
"U. c #EBB48E",
"Y. c #ECB687",
"T. c #F2B584",
"R. c #E2AB91",
"E. c #EAB392",
"W. c #EAB99D",
"Q. c #D180AD",
"!. c #F690BF",
"~. c #F58EA3",
"^. c #D4A3B6",
"/. c #EABCA2",
"(. c #F2B0B4",
"). c #EEC1A0",
"_. c #F2C3A5",
"`. c #F79DC8",
"'. c #D6B4C6",
"]. c #C6ADC2",
"[. c #F3A5CF",
"{. c #F5BBCC",
"}. c #F3A7D0",
"|. c #F4AAD2",
" X c #F9ADD4",
".X c #FDAED9",
"XX c #EBB4D1",
"oX c #F5B3D6",
"OX c #F9B0D4",
"+X c #F5B6D8",
"@X c #FFB1DD",
"#X c #F6BCDA",
"$X c #EAB5C4",
"%X c #FFB4E0",
"&X c #D8D9D7",
"*X c #CCD1D1",
"=X c #EBC5DB",
"-X c #F6C3DE",
";X c #F9C5DF",
":X c #F4C7DD",
">X c #E2E0DD",
",X c #F7C6E0",
"<X c #F8C7E1",
"1X c #F7CBE2",
"2X c #F9CFE5",
"3X c #F9D0E6",
"4X c #FED4EA",
"5X c #F6DBEC",
"6X c #E7E9E9",
"7X c #FEFDFD",
"8X c #F7F7F5",
"9X c None",
/* pixels */
"9X9X9X9X9X9X9X9X9X9X9X9X9X9X9X9X9X9X9X9X9X9X9X9X9X9X9X9X9X9X9X9X9X9X9X9X9X9X9X9X9X9X9X9X9X9X9X9X9X9X9X9X9X9X9X9X9X9X9X9X9X9X9X9X",
"9X9X9X9X9X9X9X9X9X9X9X9X9X9X9X9X9X9X9X9X9X9X9X}.%X|.9X9X9X9X9X9X9X9X9X9X9X9X9X9X9X9X9X9X9X9X9X9X9X9X9X9X9X9X9X9X9X9X9X9X9X9X9X9X",
"9X9X9X9X9X9X9X9X9X9X9X9X9X9X9X9X9X9X9X9X9X9X|.#X1X|.|.9X9X9X9X9X9X9X9X9X9X9X9X9X9X9X9X9X9X9X9X9X9X9X9X9X9X9X9X9X9X9X9X9X9X9X9X9X",
"9X9X9X9X9X9X9X9X9X9X9X9X9X9X9X9X9X9X9X9X9X9X|.2X3X2X[.9X9X9X9X9X9X9X9X9X9X9X9X9X9X9X9X9X9X9X9X9X9X9X9X9X9X9X9X9X9X9X9X9X9X9X9X9X",
"9X9X9X9X9X9X9X9X9X9X9X9X9X9X9X9X9X9X9X9X9X9X}.2X2X2X#X|.9X9X9X9X9X9X9X9X9X9X9X9X9X9X9X9X9X9X9X9X9X9X9X9X9X9X9X9X9X9X9X9X9X9X9X9X",
"9X9X9X9X9X9X9X9X9X9X9X9X9X9X9X|.|.|.}.9X9X9X}.2X2X2X<X@X9X9X9X9X9X9X9X9X9X9X9X9X}. X9X9X9X9X9X9X9X9X9X9X9X9X9X9X9X9X9X9X9X9X9X9X",
"9X9X9X9X9X9X9X9X9X9X9X9X9X9X}.|.2X2X}.}.9X9X.X<X2X2X<X.X9X9X|.|.}.|.}.}.}.}.}.|.}.[.|.|.}.9X9X9X9X9X9X9X9X9X9X9X9X9X9X9X9X9X9X9X",
"9X9X9X9X9X9X9X9X9X9X9X9X9X9X|.<X2X3X2X}.9X9X9X|.3X2X+X}.|.}.oX1X2X2X2X2X2X2X[.<X3X2X2X:X[.@X9X9X9X9X9X9X9X9X9X9X9X9X9X9X9X9X9X9X",
"9X9X9X9X9X9X9X9X9X9X9X9X9X9X}.;X2X2X2X2X}.9X9X}.|.}.|.;X3X3X1X[.}.}.1X3X2X2X}.2X2X2X2X2X2X}.[.9X9X9X9X9X9X9X9X9X9X9X9X9X9X9X9X9X",
"9X9X9X9X9X9X9X9X9X9X9X9X9X9X9X[.2X2X2X2X}.9X X|.|.2X2X3X3X1X[.7X7X3X}.2X2X2X}.3X2X2X2X1X-X3X[.9X9X9X9X9X9X9X9X9X9X9X9X9X9X9X9X9X",
"9X9X9X9X9X9X9X9X9X9X9X9X9X9X9X|.-X2X2X2X|.}.<X2X2X|.[.|.2X3X`.    7X}.1X3X3X[.3XXXB.3XQ.B.2X|.9X9X9X9X9X9X9X9X9X9X9X9X9X9X9X9X9X",
"9X9X9X9X9X9X9X9X9X9X9X9X9X9X9X9X}.1X2X}.#X#X2X2X[.2X7X|.#X3X[.6 % 7X}.2X3X3X|.#XXXB.1X-XXX2X+X}.9X9X9X9X9X9X9X9X9X9X9X9X9X9X9X9X",
"9X9X9X9X9X9X9X9X9X9X9X9X9X9X9X9X9X|.}.1X2X2X3X-X1X8   7X[.2X|.}.-X[.oX2X2X2X<X[.2X2X2X3X2X2XoX|.9X9X9X9X9X9X9X9X9X9X9X9X9X9X9X9X",
"9X9X9X9X9X9X9X9X9X9X9X9X9X9X9X9X9X}.oX2X2X2X2X|.>X.   7X[.3X2X-X#X<X2X2X2X2X2X[.+X2X2X2X2X2X|.9X9X9X9X9X9X9X9X9X9X9X9X9X9X9X9X9X",
"9X9X9X9X9X9X9X9X9X9X9X9X9X9X9X9X|.2X2X3X3X2X3X<X|.7X7X<X|.3X2X2X2X3X3X2X2X2X2X1X[.oX3X2X3X|.|.9X9X9X9X9X9X9X9X9X9X9X9X9X9X9X9X9X",
"9X9X9X9X9X9X9X9X9X9X9X9X9X9X9X|.<X2X2X2X2X2X3X3X|.}.[.}.2X3X2X2X3X1X2X3X2X2X3X2X1X}.}.}.|.|.9X9X9X9X9X9X9X9X9X9X9X9X9X9X9X9X9X9X",
"9X9X9X9X9X9X9X9X9X9X9X9X9X9X9X}.2X2X3X2X2X3X3X3X3X2X2X2X3X2X2X2X3X2X2X2X2X2X2X2X2X2X3X|. X9X9X9X9X9X9X9X9X9X9X9X9X9X9X9X9X9X9X9X",
"9X9X9X9X9X9X9X9X9X9X9X9X9X9X.X1X2X2X3X1X3X1X2X2X2X2X2X2X2X2X3X2X2X2X2X2X2X3X2X2X2X1X}.@X9X9X9X9X9X9X9X9X9X9X9X9X9X9X9X9X9X9X9X9X",
"9X9X9X9X9X9X9X9X9X9X9X9X9X9X}.2X2X3X+XOX;X3X2X2X2X2X2X2X2X3X2X2X2X2X2X2X2X2X2X2X|.[.}.9X9X9X9X9X9X9X9X9X9X9X9X9X9X9X9X9X9X9X9X9X",
"9X9X9X9X9X9X9X9X9X9X9X9X9X|.+X2X2X XOXOXOX X3X2X2X2X3X2X2X2X2X2X2X2X2X2X2X|.|.}. X9X9X9X9X9X9X9X9X9X9X9X9X9X9X9X9X9X9X9X9X9X9X9X",
"9X9X9X9X9X9X9X9X9X9X9X9X9X|.<X2XOXOXOXOXOXOX X2X2X2X3X2X2X3X2X2X2X2X2X2X}.|.[.9X9X9X9X9X9X9X9X9X9X9X9X9X9X9X9X9X9X9X9X9X9X9X9X9X",
"9X9X9X9X9X9X9X9X9X9X9X9X9X.X1X2XOXOXOXOXOXOXOX;X2X2X2X2X2X2X2X2X3X2X3X2X3X<X|.9X9X9X9X9X9X9X9X9X9X9X9X9X9X9X9X9X9X9X9X9X9X9X9X9X",
"9X9X9X9X9X9X9X9X9X9X9X9X9X X2X2XOXOXOXOX XOXOX;X3X2X2X2X2X2X3X2X3X3X2X2X3X2X}.9X9X9X9X9X9X9X9X9X9X9X9X9X9X9X9X9X9X9X9X9X9X9X9X9X",
"9X9X9X9X9X9X9X9X9X9X9X9X9X X3X2XOXOXOXOXOXOXOX3X2X2X2X2X3X2X2X2X2X3X3X|.3X3X|.9X9X9X9X9X9X9X9X9X9X9X9X9X9X9X9X9X9X9X9X9X9X9X9X9X",
"9X9X9X9X9X9X9X9X9X9X9X9X9X.X1X2X2XOXOXOXOXOXOX2X2X2X2X2X3X2X3X2X2X2X2Xb.2X2X#X}.9X9X9X9X9X9X9X9X9X9X9X9X9X9X9X9X9X9X9X9X9X9X9X9X",
"9X9X9X9X9X9X9X9X9X9X9X9X9X@X-X2X2X3XOXOX XOX3X2X2X!.2X2X3X1X2X2X3X2X-Xn.3X2X;X|.9X9X9X9X9X9X9X9X9X9X9X9X9X9X9X9X9X9X9X9X9X9X9X9X",
"9X9X9X9X9X9X9X9X9X9X9X9X9X}.oX2X3X3X;X3X3X2X2X2X3Xm.V.2X2X3X2X3X2X3Xb.<X2X3X#X|.9X9X9X9X9X9X9X9X9X9X9X9X9X9X9X9X9X9X9X9X9X9X9X9X",
"9X9X9X9X9X9X9X9X9X9X9X9X9X9X}.2X2X3X3X3X2X3X2X2X1X;Xb.n.3X3X3X3X[.b.`.1X2X2X|.[.9X9X9X9X9X9X9X9X9X9X9X9X9X9X9X9X9X9X9X9X9X9X9X9X",
"9X9X9X9X9X9X9X9X9X9X9X9X9X9X|.<X3X;X2X2X3X2X2X2X3X3X;Xn.b.b.b.b.b.<X2X2X2X2X}.9X9X9X9X9X9X9X9X9X9X9X9X9X9X9X9X9X9X9X9X9X9X9X9X9X",
"9X9X9X9X9X9X9X9X9X9X9X9X9X9X}.}.3X3X2X3X2X2X3X2X2X2X2X2X2X2X1X3X3X2X2X2X2X#X}.9X9X9X9X9X9X9X9X9X9X9X9X9X9X9X9X9X9X9X9X9X9X9X9X9X",
"9X9X9X9X9X9X9X9X9X9X9X9X9X9X9X X+X3X3X3X2X3X2X2X3X2X2X3X2X2X2X3X2X2X2X2X1X|.9X9X9X9X9X9X9X9X9X9X9X9X9X9X9X9X9X9X9X9X9X9X9X9X9X9X",
"9X9X9X9X9X9X9X9X9X9X9X9X9X9X9X9X|.:X1X3X2X2X2X2X2X2X2X2X2X2X2X2X2X2X2X2X}.}.9X@ # 5 a 5 4 ; F H / H ` w.9.9.1 k k 9X9X9X9X9X9X9X",
"9X9X9X9X9X9X9X9X9X9X9X9X9X9X9X9X4.}.|.2X2X2X2X2X2X3X2X2X2X2X1X:X:XD.y @ : 1 < 1 h g 6 q h f G.A.| } ' _ * + ,   X o # 9X9X9X9X  ",
"9X9X9X9X9X9X9X9X9X9X9X9X9X9X9X9XC =.}.}.%X2X'.j 8 5 7 u s s d d p &X7X7X8X8X>Xj i t 9 9 { ] } * _ K.I.E.L.F., 7 O 1 @ . 4       ",
"9X9X9X9X9X9X9X9X9X9X9X9X9X9X9XC Z 1.1.~.XXD.2 1 $ 7 u r q w w , *X7X6X6X*XS.C.o 3 ] 8.>.0.I.a.0.f.y.8.~ 0.0.= @ $ 8 8 4 $ 9X# # ",
"9X9X9X9X9X9X9X9X9X9X9X9X9X9X9XC 1.1.1.1.<.z.p p p r u 1 u x.z.g g s a a a a a u r D >.i.' @.U K K P x x x z o 9X9X9X9X9X9X9X9X9X",
"9X9X9X9X9X9X9X9X9X9X9X9X9X9X9X2X[.1.-.0.z.q z.z.a p d z.z.z.e e a u 5 p 3 a u a u ^ %.! x l 9X9X9X9X9X9X9X9X9X9X9X9X9X9X9X9X9X9X",
"9X9X9X9X9X9X5.i.5.i.j.j.Y.q.y.[ ;X3X$XF.p z.p 2 d q q q e 5 t q w 7 y _ _ & b W 4X4X^.4X9X9X9X1X2X9X9X9X9X9X9X9X9X9X9X9X9X9X9X9X",
"9X9X9Xq.T.P.U.R._./._.)._./.W.E.R.L.4X2X#Xc.z.].S.2 1 > ^ ) 4 > +.r.a.J.E 8.=.C 9X9X9X4X3X4X2X2X2X9X9X9X9X9X9X9X9X9X9X9X9X9X9X9X",
"9X9X9XL.W.E.E.K.K.K.L.P.E.,.0.;.>.j.k.H.2X2X2X2Xs.k.- > 1.1.{ 2 #.I.f.f.t.s.=.C 9X9X9X9X9X3X2X4X9X9X9X9X9X9X9X9X9X9X9X9X9X9X9X9X",
"9X9X9XG.F.J.I.I.T.q.j.g.d.;.d.y.~ X.*.1.1.{.3X4X3X(.& 1.<.1.) ) 1.f.f.a.u.@.~ Z C 9X9X9X9X2X4X4X4X9X9X9X9X9X9X9X9X9X9X9X9X9X9X9X",
"9X9X9XG.H.a.k.0.r.s.q.8.6.! R =.1.1.1.1.1.2.1X#.Y O.2.2.1.1.1.1.1.-.s.p.t.e.r.o.A 9X9X9X9X9X2X9X9X9X9X9X9X9X9X9X9X9X9X9X9X9X9X9X",
"9X9X9Xq.u.i.r.:.l.8.@.G A o.1.1.1.1.1.1.1.1.2X{.U 1.1.1.1.1.1.1.1.1.I.j.r.h.+.6.Z 9X9X9X9X9X9X9X9X9X9X9X9X9X9X9X9X9X9X9X9X9X9X9X",
"9X9X9X} i.0.q.R F 9X9X9XA =.1.1.1.1.1.1.1.1.#...c 1.1.1.1.1.1.1.1.1.h.r.h.e.-.#.I 9X9X9X9X9X9X9X9X9X9X9X9X9X9X9X9X9X9X9X9X9X9X9X",
"9X9X9X| ,.G Z.'.3X3X1X9XA 2.1.1.1.1.1.1.1.7.#.Y Y 1.1.1.1.1.1.1.1.1.1.j.e.e.-.&.5.V 9X9X9X9X9X9X9X9X9X9X9X9X9X9X9X9X9X9X9X9X9X9X",
"9X9X9X9X9X9X9X4X1X1X3X9XC =.1.1.1.1.1.1.1.$.+.L 1.1.1.1.1.1.1.1.1.1.1.1.r.-.&.Q T X.Y 9X9X9X9X9X9X9X9X9X9X9X9X9X9X9X9X9X9X9X9X9X",
"9X9X9X9X9X3X2X<X3X3X3XW Z 1.1.1.1.1.1.1.1.-.-.>.*.1.1.1.1.1.1.1.1.1.1.1.1.6.E B N N @.I 9X9X9X9X9X9X9X9X9X9X9X9X9X9X9X9X9X9X9X9X",
"9X9X9X9X9X9X3X3X3X4X4XM W 1.1.1.1.1.1.1.1.1.1.1.1.1.1.1.1.1.1.1.1.1.1.1.1.3.&.I I m b Y v 9X9X9X9X9X9X9X9X9X9X9X9X9X9X9X9X9X9X9X",
"9X9X9X9X9X9X9X9X9X9X9XA o.1.1.1.1.1.1.1.1.1.1.1.1.1.1.1.1.1.1.1.1.1.1.1.1.1.3.Q T I Y J 9X9X9X9X9X9X9X9X9X9X9X9X9X9X9X9X9X9X9X9X",
"9X9X9X9X9X9X9X9X9X9X9XZ =.2.1.1.1.1.1.1.1.1.1.1.1.1.1.1.1.1.1.1.1.1.1.1.1.1.1.2.X.I V 5 9X9X9X9X9X9X9X9X9X9X9X9X9X9X9X9X9X9X9X9X",
"9X9X9X9X9X9X9X9X9X9X9XC 2.1.1.1.1.1.1.1.1.1.1.1.1.1.1.1.1.1.1.1.1.1.1.1.1.1.1.1.1.Q ( 9X9X9X9X9X9X9X9X9X9X9X9X9X9X9X9X9X9X9X9X9X",
"9X9X9X9X9X9X9X9X9X9X9XC 2.1.2.1.2.1.1.2.1.1.1.1.1.1.1.1.1.1.1.1.1.1.1.1.1.1.1.1.1.W B 9X9X9X9X9X9X9X9X9X9X9X9X9X9X9X9X9X9X9X9X9X",
"9X9X9X9X9X9X9X9X9X9X9XA A A A A A Z A C C C C C C C C Z Z Z Z Z Z Z Z C A C C C A A A 9X9X9X9X9X9X9X9X9X9X9X9X9X9X9X9X9X9X9X9X9X",
"9X9X9X9X9X9X9X9X9X9X9X9X9X9X9X9X9X9X2X3X9X9X9X9X9X9X9X9X9X9X9X;X<X9X9X9X9X9X9X9X9X9X9X9X9X9X9X9X9X9X9X9X9X9X9X9X9X9X9X9X9X9X9X9X",
"9X9X9X9X9X9X9X9X9X9X9X9X9X9X9X9X9X9X2X2X9X9X9X9X9X9X9X9X9X9X9X2X3X9X9X9X9X9X9X9X9X9X9X9X9X9X9X9X9X9X9X9X9X9X9X9X9X9X9X9X9X9X9X9X",
"9X9X9X9X9X9X9X9X9X9X9X9X9X9X9X9X9X9X2X2X9X9X9X9X9X9X9X9X9X9X9X2X2X9X9X9X9X9X9X9X9X9X9X9X9X9X9X9X9X9X9X9X9X9X9X9X9X9X9X9X9X9X9X9X",
"9X9X9X9X9X9X9X9X9X9X9X9X9X9X9X9X9X9X2X2X9X9X9X9X9X9X9X9X9X9X9X3X3X9X9X9X9X9X9X9X9X9X9X9X9X9X9X9X9X9X9X9X9X9X9X9X9X9X9X9X9X9X9X9X",
"9X9X9X9X9X9X9X9X9X9X9X9X9X9X9X9X9X9X2X^.9X9X9X9X9X9X9X9X9X9X9X2X3X9X9X9X9X9X9X9X9X9X9X9X9X9X9X9X9X9X9X9X9X9X9X9X9X9X9X9X9X9X9X9X",
"9X9X9X9X9X9X9X9X9X9X9X9X9X9X9X9X9X9Xv.o . . . . . . 9X9X9X9X9XD.0 . . . . . . 9X9X9X9X9X9X9X9X9X9X9X9X9X9X9X9X9X9X9X9X9X9X9X9X9X",
"9X9X9X9X9X9X9X9X9X9X9X9X9X9X9X9X9X9X. . . . . . . . 9X9X9X9X9X. . . . . . .   9X9X9X9X9X9X9X9X9X9X9X9X9X9X9X9X9X9X9X9X9X9X9X9X9X",
"9X9X9X9X9X9X9X9X9X9X9X9X9X9X9X9X9X9X9X9X9X9X9X9X9X9X9X9X9X9X9X9X9X9X9X9X9X9X9X9X9X9X9X9X9X9X9X9X9X9X9X9X9X9X9X9X9X9X9X9X9X9X9X9X",
"9X9X9X9X9X9X9X9X9X9X9X9X9X9X9X9X9X9X9X9X9X9X9X9X9X9X9X9X9X9X9X9X9X9X9X9X9X9X9X9X9X9X9X9X9X9X9X9X9X9X9X9X9X9X9X9X9X9X9X9X9X9X9X9X",
"9X9X9X9X9X9X9X9X9X9X9X9X9X9X9X9X9X9X9X9X9X9X9X9X9X9X9X9X9X9X9X9X9X9X9X9X9X9X9X9X9X9X9X9X9X9X9X9X9X9X9X9X9X9X9X9X9X9X9X9X9X9X9X9X",
"9X9X9X9X9X9X9X9X9X9X9X9X9X9X9X9X9X9X9X9X9X9X9X9X9X9X9X9X9X9X9X9X9X9X9X9X9X9X9X9X9X9X9X9X9X9X9X9X9X9X9X9X9X9X9X9X9X9X9X9X9X9X9X9X"
};
