/* XPM */
static char *_b7ed13f93f04cfcf4aa3c8af38a058aoR3lFfpJitZFTl2X[] = {
/* columns rows colors chars-per-pixel */
"64 64 157 2 ",
"   c #B7A584",
".  c #BEA781",
"X  c #C4A985",
"o  c #CBAC87",
"O  c #C3AC8B",
"+  c #CBAE8A",
"@  c #C7B28F",
"#  c #CDB28E",
"$  c #D1B48E",
"%  c #C9AF92",
"&  c #CDB491",
"*  c #CFB893",
"=  c #D2B692",
"-  c #D8B694",
";  c #D5BA95",
":  c #D9BB96",
">  c #D1B798",
",  c #D6BC99",
"<  c #DABE9A",
"1  c #E0BF97",
"2  c #E0BF9A",
"3  c #DABFA0",
"4  c #D7C097",
"5  c #DAC196",
"6  c #D7C09B",
"7  c #DCC29D",
"8  c #E2C39E",
"9  c #E9C49F",
"0  c #E4C89F",
"q  c #D5C3A1",
"w  c #DEC4A1",
"e  c #DFC9A3",
"r  c #E3C6A1",
"t  c #E9C7A2",
"y  c #E8C7A1",
"u  c #E9C7A2",
"i  c #E3C8A2",
"p  c #E0CAA3",
"a  c #E4C8A0",
"s  c #E4C8A1",
"d  c #E5C9A1",
"f  c #E7CAA1",
"g  c #E4C9A2",
"h  c #E6C9A2",
"j  c #E6C9A3",
"k  c #E7C9A3",
"l  c #E6C8A2",
"z  c #E7CAA2",
"x  c #E6CAA3",
"c  c #E7CAA3",
"v  c #E7CBA3",
"b  c #E3C8A4",
"n  c #E0CAA5",
"m  c #E7CBA4",
"M  c #E6CBA5",
"N  c #E4CBA6",
"B  c #E7CDA5",
"V  c #E7CEA5",
"C  c #E6CCA7",
"Z  c #E7CCA7",
"A  c #E5CAA4",
"S  c #E8C8A1",
"D  c #E9C9A3",
"F  c #EBC9A3",
"G  c #E8CBA3",
"H  c #EACBA2",
"J  c #EDCEA2",
"K  c #EAC8A4",
"L  c #EAC8A5",
"P  c #E8CAA4",
"I  c #E9CBA5",
"U  c #EBCBA6",
"Y  c #E8C8A4",
"T  c #E8CCA4",
"R  c #E9CCA4",
"E  c #E9CCA5",
"W  c #E9CDA5",
"Q  c #EACCA4",
"!  c #E9CEA5",
"~  c #E9CCA6",
"^  c #E9CDA6",
"/  c #E9CDA7",
"(  c #EBCCA6",
")  c #EBCCA7",
"_  c #E9CFA6",
"`  c #EBCEA7",
"'  c #ECCFA7",
"]  c #EECEA7",
"[  c #EACCA5",
"{  c #E7CDA8",
"}  c #E5CCA9",
"|  c #E9CFA8",
" . c #EACEAB",
".. c #EDCDA8",
"X. c #ECCEA8",
"o. c #ECCEA9",
"O. c #EDCFA9",
"+. c #EECFA8",
"@. c #EFCFA8",
"#. c #EBCEA9",
"$. c #F2CFA7",
"%. c #F0CEA9",
"&. c #E8D0A7",
"*. c #ECD1A6",
"=. c #EBD1A8",
"-. c #ECD0A8",
";. c #ECD0A9",
":. c #EED1A9",
">. c #ECD0AB",
",. c #ECD1AB",
"<. c #EFD1AB",
"1. c #EFD6AB",
"2. c #ECD0AC",
"3. c #EDD0AD",
"4. c #EFD4AE",
"5. c #EED4AC",
"6. c #EDD2AA",
"7. c #F1D1A7",
"8. c #F0D1A9",
"9. c #F2D3A8",
"0. c #F3D3A9",
"q. c #F3D1AA",
"w. c #F3D3AA",
"e. c #F3D3AB",
"r. c #F1D4A9",
"t. c #F4D4AB",
"y. c #F2D2AC",
"u. c #F3D2AC",
"i. c #F2D5AD",
"p. c #F1D7AE",
"a. c #F1D5AC",
"s. c #F6D6AD",
"d. c #F7D7AF",
"f. c #F2D4AC",
"g. c #F8D6AE",
"h. c #F3DAAD",
"j. c #F4D8AF",
"k. c #F9D8AE",
"l. c #ECD3B0",
"z. c #EFD8B1",
"x. c #F5D6B1",
"c. c #F8D6B1",
"v. c #F6D9B1",
"b. c #F5DAB1",
"n. c #F7DBB1",
"m. c #F6DAB2",
"M. c #F9D9B0",
"N. c #F8D9B1",
"B. c #F9D9B1",
"V. c #FAD9B2",
"C. c #FEDCB7",
"Z. c #FADCB4",
"A. c #FBDEB8",
"S. c #F7E0B5",
"D. c #FCE1B6",
"F. c #FEE3BB",
"G. c #FFEDC8",
/* pixels */
"; 7 7 8 a M.M.8 : ; - ; W n.s.8 < = -.6 8 a Y e n * r a W 8 r ; C v 7 a J W 0 8 a 8 , 8 < W -.r 8 U 0 8 r a a r n , a a =., : # ",
"7 ] < 2 # - = < Y %.& 6 #.; = # n 0.; r 6 & $ 7 #.0.y.1 8 7 7 j.a 6 , , - & - 8 a #.= , #.W 8 < a b 8 r 6 & = 6 -.-.] < ; & r a ",
"Y , b r 7 & w W U { ,.y w < 7 W W e ; 8 J 5.3.-.m., , 8 < < ; - - 6 M #.7 = r a F M 0.0 7 , 7 U i i : 7 J i.5.-.M.7 6 a e < < 8 ",
"M r #.y.a y -.W F 7 , , y.n.C.< ; ; F u.7 r 8 7 & ; ; ; < , M q.r.U 0.J M a W W U w < , W i.M.2 ; = F i.< r 8 7 & ; , , 6 J 8 #.",
"7 8 : < U u.x.+ w l.= < * + ; b r C -.; & ; 6 7 7 e 8 v J W y : 7 7 8 ; M u.g.+ 7 #.& , ; # ; r e a $.- & ; 6 7 7 e 6 F q.i.W M.",
"; 8 , 7 ; - - 7 b . } r #.#... .0.< : l.j.i a 0.s.M.q.F 8 e @ e F a = 7 , - ; 8 0 O } e U ] %.#.%.2 , 5.i.e i 0.u.M.q.F - ; 7 , ",
"U 8 i a %., M $.8 Z.W ] , - < : # 7 w , i n.s.a o > ; 8 6 M 7 J 6 ; =.] U , M ] 7 C.#.W ; ; r r - < 7 6 i n.u.a + , ; 8 7 6 7 a ",
": : 8 0.7 e ] + : ; ; - , w b : , &.v F -.= a 7 M M *.W a 0.x.a 5 ; #.W 7 r #.o : ; ; - , : 6 : , v V 0 s.= a 7 M M U *.j.0.i.8 ",
"= , + 7 -.U < r - O 6 $ 7 y.j.6 i.5.; ; M 8 ; ; c.#.6 = 6 ; ; 8 8 j.= 5 ] F 7 e = O , = r W i., j.1.; ; , 0 ; ; Z.#., - > # < = ",
"; M w w < , r ] y.U e U %.; ; = 7 ; 6 b a 8 a ] , , 8 a 8 7 i C W = 6 7 7 , r s.u.U 7 U %., ; = 8 ; ; n a 6 g F ; , 8 a r -.] 7 ",
"#.r ] s.F ; 8 7 = 8 -.J < , b b 7 J J 0 8 7 8 < M a a 0.] *.3.W 0 < F s.U ; 6 ; - J -.*.7 > U #.8 v 7 j.i , , 7 M W a -.-.& ; U ",
": W o = 7 7 -.0.8 2 8 = b W =.F *.< < ; 7 %.j.-.W %., , 8 =.#.#.0 *.8 < 8 M ] > = 7 i $ 7 U #.8 6 7 8 ; M *.M #.U 8 , = ; F y.0.",
"< 8 , < U -.r $ 7 0.M M U #.Z.r : , ; r.0 7 8 7 , 7 < < : 7 ; > 0 W ; , %.i.D.] *.M > C ] 0 a < F U 7 *.U F a 8 7 a J 7 8 : ; = ",
"a : U #.%.a < U #.8 7 ; : < = # M %.C.8 7 #.#.-.] : 7 0.W C n Z 2 0 $.Z.#.8 , r r r &.W : 6 , 8 5.7 ; ; , 6 b #.c.a 8 j.$.i a M ",
"8 : W c.; : 7 u.= 7 < n r Y n a x.r : Z i.F.w 8 0 U #.a #.C.G.F.x.C.- , ; & ; M ; 7 : 7 r b w r 7 ; 8 F a x.e r 2 r *.< $ U #.r ",
"x.%.y 8 < #.x.r 7 8 y.Z.C.Z.M.Z.2 b l.c.w : b < #.W #.a b 8 b 7 7 7 -.-.#.] x.8 7 8 -.Z.Z.V.c.i.a F s.W r < r < r 8 6 7 x.U M n.",
"r U < 7 M.Z.8 Z.r.c.a < 0 a { , 6 C.< $ 7 , -.3.< M ; < , b < , O.C.< < 0.0 7 Z.5.c.a 2 a n { , W a = ; , , i.n.8 n M 7 w < ; - ",
"- a -.W : = ; 7 : 8 ; X < 7 = #.a 7 8 x.i.y.8 8 < n r w u.c.Z.M.c.r a r , 6 , 8 ; 8 ; X < 7 ; ) a ; 8 i.i.x.8 7 W C.] Z.C.W r ; ",
"Z.%.c.F.D.=.= -.< 6 Y W %.J #.a C n.M 8 C 8 ,  .< n -.q.M.: $ , m.G.F.F.A.y.r #.7 5 U W #.] =.a C n.M 8 #.8 , ,.%.7 n ; < 7 ) x.",
"M a 2 > e F.F.y.#.y.Z.F.y.C x.m.U < 7 e , #.-.$.s.F.Z.& r -.5.M.#.< , ; , #.x.-.#.y.M.D.3.W x.x.U , r w ; M #. ., u.F #.y.M 7 & ",
"8 = 7 U , ; ; U M 2 a 7 r , ; , C s.S.F.j.j.0 8 #.< 7 7 %.a < a a Z  .{ -.w ; W M 2 a < 8 , : , C s.S.F.j.-.M r C.7 r r i.a m.m.",
"Z 0.Z.C.Z.Z.5.8 a , < < r a M -.< 6 ; < < - , 7 6 b -.x.M , b #.Z.Z.C.i.C i.3.0 a < < < r a M %.< 6 ; < , : < 7 6 w #.-.8 7 , w ",
"m.r < < : ; < #.8 i 7 j.C.j.Z.r #.n -.=.M r j.d.S.x.8 b b #.M.i.: U b = w ; < =.7 r 8 x.D.x.Z.r #.e 0.=.a e i.Z.D.i.i b < Z.x.x.",
"- , b  .M , n 3.-.g.C.< - : r y.x.J F =.F.j.a 7 < < < e 0.: , 7 c.w n { =.< b 3.5.g.C.< ; - e i.M.U a -.F.n.a < < 7 6 l.Z.< a W ",
"a y.y.Z.A.c.Z.U , - $ 2 n.i.Z.M O , , , , w r 6 , r 6 i.: e Y c., #.s.C.y.y.Z..., - $ 8 M.s.A.r X , 6 , 6 6 r 6 > Z U F M W e - ",
"v m.D.C a r - : e w - u.M : w M 7 i.q.F.x.n a W x.s.0., e 3.U 8 3.Z.%.n n y = : e 7 ; u.a , 8 M e i.0.C.x.n F U x.x.: e ; < r #.",
"u.r < ; ; i #.#.W m.m.r L #.u.V.F.Z.F 7  .M.n.a a : < -.n.7 , -.F 0 7 6 8 i M #.] Z.M.r U #.0.c.F.Z.U 7  .n.n.a r : n #.M U 7 8 ",
"< < b ,.x.M.C.Z.8 - - #.M.t.8 > C , 6 { u.; 7 , 3 6 0.w ; i %.7 = w 7 x.a x.Z.c.< - - U m.u.8 , n < , Z x.; 8 6 7 n C.#.l.#.W , ",
"y.x.y 5.r = ; # , ; 7 0.@ 7 , x.r w x.Z.w = #.#.#.U 7 r e F 7 b n W y.#.r = ; & < , 6 %.# 7 > x.r w l.Z.7 ; M M v ] #.n s.M A.3.",
"W 6 r , w C  .w a n x.$ w J s.e { i.a 2 = e 3.#.Z.a #.3.s.8 N q.i.r e 6 r W #.r r b x.= 7 J c.e #.3.a 2 > e =.n.F. .#.#.8 L 7 M ",
", 7 y.y.#.0.r x.Z.r r 8 %.r 6 x.Z.U 7 w x.A.Z.w , - - < 6 U x.7 , , ) x...0.r x.Z.a 8 8 y.r 7 x.A.U e r x.Z.Z.e , = r ) #.b 3., ",
"a ] M.e ; ; < , = ) #.C.a r #.#.7 ; , ] M : w r a < e * r %., w = e i.6 - , , , & #.=.C.r e #.#.6 = : U M : w i C 7 b + r M M q.",
"C F 8 7 r ; 7 = , x.7 # * y.2 w < e M.0 e , e 6 q.8 M.F < a w %.j.c., r a ; ; & , x.r + = y.r w < b n.r e > e 7 q.a m.y ; %.] 7 ",
"s.8 W 8 a M 8 W U r b M ..= w Z Z.Z.U C #.#.i.Z.: ; ; n F M a A.7 ; r i.W x.s.y.%.r b Z ..; 6 M m.Z.U M #.*.r.m.: ; = b F ] 0 F.",
", i a U s.i.#.#.: Z r 2 : Z i.r.Y , #.-.Z.Z.x.6 M M n a < - - , @ 7 n.: r , + : <  .a 8 < ) y.s.a , Z #.m.D.j.7 b M n F 7 ; r r ",
"W 7 ; ; ; = < * & , r < r b - - , C -.6 ; , * < #.m.Z.J 0 7 e n J y.= 7 < & > = ; : w ; r r - = 6 *.3.< = < ; , #.M.Z.U 7 , , w ",
"a 7 a e < < 6 < 8 ] U a O. .< n F -., M 3.=.; 0.r  .< : , 7 C.s.0 7 C F Z #.b U $.U a U #.#., M U -.= < #.,.; 9.r ..< , , 8 u.M.",
", F s.0.y.-.O.x.] < 0.2 : x.c.l.C 7 , U Z.J 1.7 6 < , 7 ] W < ; e 7 F n.i.s.M.x.; < c.2 < l.c.3.U , r -.Z.W a.8 < < , 7 0.i.7 - ",
"0 < 6 $ & : : , , : , r %.8 < : ; M r.; & & ; < = #.#.%.9.8 0 -.a #.8 ; < = $ - w < < w %.8 < < ; ) -.: & & ; , & U 0.q.] < ; r ",
"7 < ; 7 , , = < M Z < Z 2 & > * ) 0.< W #.8 8 M F u.a < < 7 < 0 < ] 8 6 7 , , ; M Z < Z 8 = = & W y.< W #.r 7 C F y.a < < e , 7 ",
"7 9 s.8 ] r.i.s.a 7 8 0.e 0.0.y.n : = y.x.r a j.- < < 6 w  .7 < : ; 7 O.b r 6 r 8 , 0 g.7 i.0.y.n : = 0.j.v g j.; : 6 6 e ) b < ",
"0 7 - < < < ; i 0 , , : = = 2 < 6 O.-.r # = # # r 6 * = #.3.6 ; , 7 r C.] i.g.U < # 0 = = = 8 < 6 ,.=.8 # # # # w w & = #.%.-.#.",
", 7 8 7 7 , *.7 w , = a e M 8 % r %.< r r v , n 0 U U 0.M.: U j.*.W , = ; ; 2 - e , . r e n r & a y.< 8 8 C , N 8 #.W 0.d.- < , ",
"W *.W M W y., a -.-.5.a W 6 0 s.; # = : 6 &.-.5.0.; $ - 7 ; 7 < r - w 7 M C : b J i.x.a #.< r m.w : - , 6 &.0.*.0.; $ - 7 : , 8 ",
"0.U #.a -.7 a %.$ 8 8 u.: , , ; ; 6 r $.C -.] 8 - ; 6 #.%.U a y.r 7 #.u.Z.y U 0.+ < 7 c.; ; < ; ; w b %.N -.#.8 - ; 7 ..q.$.] W ",
"; : , : 7 *.y = , 6 = $ r a J y.-.-.v 8 6 ; : < ] *.i.< $ = = : ; e a ; 8 -.F $ , < - $ - a U y.) O.U r 7 ; < ; C -.y.< $ $ $ ; ",
"7 , : w $ %.a F -.7 : 6 C *.< ; 7 < < ;   0 6 ; a < a : : < a , 8 W ; , $ ] r F 0.7 : 6 W *.< : 8 6 : ;   8 7 & a < a - : 7 W 7 ",
"F #., U a r , ; - 8 s.q.9.; < q ] 8 6 ; =.- , 0.8 = M i.%.q.: 0.J < r U b r , ; ; r s.7.9.; , q F 7 , ; =.: , 0.0 - M i.#.s.; , ",
"J , %.0 7  .8 , - , A.< ; 7 w #.: < -.u.6 r 6 $ 7 -.i.6 $ 7 , 0 & , ] 0 <  .7 , ; , Z.< , 6 w 0.< , 0.q.6 8 7 $ 6 -.x.6 $ < r #.",
"; #.; , < 0 x.] ] C * - n q.Z.: , F y.b #.0.5.s.s., M 5 % a F 8 a 7 = , w a x.] U { ; - b 0.Z., , F 3.a ] q.r.d.s.7 a 6 # a a : ",
"3 , 0 #.g.F W 8 #.r M a $.: ; e U i.; ; # ; ; ; ; , , *.s.7 r , 7 8 W #.q.F ] 8 #.r M a $.: ; 7 W s., ; @ ; ; ; ; , , *.y.8 , 7 ",
"] r ; ; < , ; = - ; 7 y - 7 i.j.: 5 ; w 7 = < w # a ] *.#.a M y.9.< = : < , ; = = ; 0 0 - , i.M.: , : w w = < 6 + a *.0.9.r #.s.",
"e Z M Z w > M ] e 7 7 6 0.W M < & i C 9.J i.j.r.0.7 2 = , ; = - ; e b M e > M *.r 7 < 7 i.W M < = e a 0.J i.i.5.0.7 7 = ; ; & , ",
"-.W r c.M.&.6 7 #.U V.U 6 ; = r i.0.7 ; # ; w 8 ; # : 8 w 7 $ , i a w Z.M.F 6 7 #.U V.U 7 ; - 7 s.-.8 ; # ; r 8 ; & ; o : 8 # r ",
"< = & , # = 8 3.s.7 e 7 #., = = + = ; 6 b & 6 - , a W %.9.a W ] 5 : , : # $ r -.x.8 e 7 #., & ; + = ; 6 b ; , ; , a J ] s.a #.#.",
": b n M e a c.U 7 2 -.g.< r.g.W M 8 ] 0.7 W 3.M.J < < , : , = = 7 , M a e M x.U 7 2 #.g., c.-.i.a r U 0.7 W -.M.J < < < : , - 6 ",
"i U ] $ #.c.0 , < #.; ; 7 = , ; 7 < ; : w , ; 8 U Y < , ; 6 7 7 0 8 0 - *.g.0 , < #.; , 7 , 7 w 7 , ; < r , - 8 U F 7 ; ; 7 w 6 ",
"] 8 $ i U , - M r 7 M ] n e ; 8 7 5 e 7 7 2 , n.6 r 6 J *.9.i a U W - i v , = U e 7 M W a w , < 7 6 7 7 < 7 6 n.7 7 6 v *.9.r r ",
"7 7 M - , 7 U w 3.5.Z.< a %.i.x.j.Z.n.M.U W 0., #.-.0.a , 7 U 0 < ; M - , r U 7 5.l.Z.< a 0.i.c.j.C.j.M.F W 0.6 U #.3.U , 6 M W ",
"w r : 7 ; 6 6 #.C , , 7 U : r w ; 6 7 , < 8 : < 8 < < 6 6 F 7 < $ r $ , @ 6 , #.=.< 7 6 W 7 b 7 = 5 5 < 7 7 , , a 7 , < 7 i ; ; ",
"b U #.u.y.s.s.i U #.0.u.8 n b , W n 7 a ] 7 W i 7 , ; - *.g.x.3., W a i U i.i., < Z #.i.7 6 < , C n 6 7 8 , J 0 #.6 6 8 0.q.x.W ",
"3.a 7 - & , , < r < , & ] %.Z.3.6 &.x.8 0 W r 7 M #.i i.8 , < 8 y.8 0 r a r #.r Z s.l.a { M l.Z.a #.Z.y.a 5.C i M W ] s.8 , n =.",
"a 7 < 6 * & : 6 , < < 7 r - 7 w #.i.8 7 : < = F -.8 7 6 7 n w ; ; < , , - 7 n i.x.a < b 5.Z.#.#.y.v r ; C 0 ; a 3.7 < , 6 r n r ",
"8 7 y.i.0.#.#.W U ] ] s., 6 { W M., 7 ] i.C J F 7 6 8 7 F 3.y.0.W a ) M n W -.%.< a b -.M 6 r 5.6 , 7 r =.7 ] J < < 8 n U y.] #."
};
