/* XPM */
static char *result[] = {
/* columns rows colors chars-per-pixel */
"64 64 223 2 ",
"   c #050404",
".  c #0C0C0C",
"X  c #090807",
"o  c #12100C",
"O  c #141413",
"+  c #1E1B16",
"@  c #1C1C1B",
"#  c #181714",
"$  c #211D17",
"%  c #26241F",
"&  c #242424",
"*  c #2B2722",
"=  c #2B2B2B",
"-  c #2C2925",
";  c #322D25",
":  c #312F2C",
">  c #35312D",
",  c #3B342C",
"<  c #3F382D",
"1  c #343434",
"2  c #3C3935",
"3  c #3B3B3B",
"4  c #383735",
"5  c #41392E",
"6  c #443D33",
"7  c #423F3B",
"8  c #4B4236",
"9  c #43413D",
"0  c #4B453C",
"q  c #514739",
"w  c #53493C",
"e  c #584F3F",
"r  c #5C503F",
"t  c #434343",
"y  c #4A4642",
"u  c #4D4943",
"i  c #4B4B4B",
"p  c #544C43",
"a  c #5A4F41",
"s  c #514E4A",
"d  c #5B5244",
"f  c #55514D",
"g  c #5B544B",
"h  c #5F584E",
"j  c #575145",
"k  c #535353",
"l  c #5A5753",
"z  c #5D5954",
"x  c #5B5B5A",
"c  c #60564A",
"v  c #645A4A",
"b  c #675948",
"n  c #645D54",
"m  c #635F58",
"M  c #6B6255",
"N  c #65615B",
"B  c #6B655D",
"V  c #676056",
"C  c #736552",
"Z  c #73695C",
"A  c #7B6D5A",
"S  c #746757",
"D  c #7E715F",
"F  c #636363",
"G  c #696663",
"H  c #6B6864",
"J  c #6C6C6C",
"K  c #746D63",
"L  c #786E62",
"P  c #716E6A",
"I  c #7C7264",
"U  c #75716B",
"Y  c #7B746A",
"T  c #777065",
"R  c #747373",
"E  c #7D7974",
"W  c #7B7B7B",
"Q  c #7A7773",
"!  c #83735E",
"~  c #806E5A",
"^  c #837663",
"/  c #847A6D",
"(  c #8B7C6B",
")  c #897964",
"_  c #917E67",
"`  c #827C75",
"'  c #887E72",
"]  c #847F78",
"[  c #94836B",
"{  c #9E896B",
"}  c #8C8274",
"|  c #84817C",
" . c #8C857B",
".. c #928573",
"X. c #9C8B73",
"o. c #938779",
"O. c #92897C",
"+. c #9C8E7C",
"@. c #9F917A",
"#. c #A38D72",
"$. c #A18F7A",
"%. c #A39175",
"&. c #A89376",
"*. c #A3927B",
"=. c #AA967B",
"-. c #AD997D",
";. c #B19B7E",
":. c #B89D7F",
">. c #848383",
",. c #8C8985",
"<. c #8B8B8B",
"1. c #898784",
"2. c #948D84",
"3. c #998F82",
"4. c #938F89",
"5. c #9C9284",
"6. c #95928D",
"7. c #9B948C",
"8. c #9E998F",
"9. c #949393",
"0. c #9D9A95",
"q. c #9C9B9B",
"w. c #9D9790",
"e. c #A39583",
"r. c #AC9B83",
"t. c #A59A8C",
"y. c #AA9D8C",
"u. c #A79786",
"i. c #B49E83",
"p. c #B19F88",
"a. c #A59E94",
"s. c #A89F92",
"d. c #A39F9B",
"f. c #AFA08F",
"g. c #B4A184",
"h. c #BBA484",
"j. c #B3A28A",
"k. c #BBA58A",
"l. c #BDA98D",
"z. c #ACA294",
"x. c #A5A29E",
"c. c #AAA49C",
"v. c #A7A197",
"b. c #B3A592",
"n. c #BDAC94",
"m. c #B4A99A",
"M. c #B9AB9A",
"N. c #BFB09A",
"B. c #A4A4A4",
"V. c #ABABAB",
"C. c #ACA7A0",
"Z. c #B5ADA2",
"A. c #B7AFA5",
"S. c #B8B2AA",
"D. c #B2B2B2",
"F. c #BAB9B8",
"G. c #C4AD8C",
"H. c #CBAE8C",
"J. c #C6AA87",
"K. c #CCB28D",
"L. c #D1B38E",
"P. c #C3AE92",
"I. c #C5AF96",
"U. c #C6B193",
"Y. c #CCB392",
"T. c #C5B39C",
"R. c #CBB69A",
"E. c #CDB99C",
"W. c #CDB896",
"Q. c #D2B692",
"!. c #D4BA95",
"~. c #DABB96",
"^. c #D5BC9A",
"/. c #DABE9A",
"(. c #D0B79A",
"). c #E1BF9A",
"_. c #E0BF97",
"`. c #C3B5A5",
"'. c #CCBAA4",
"]. c #CDBDAB",
"[. c #D4BEA2",
"{. c #C6BEB2",
"}. c #D7C09C",
"|. c #DCC29D",
" X c #D8C097",
".X c #E1C39E",
"XX c #E4C89F",
"oX c #E9C49F",
"OX c #D5C1A3",
"+X c #DDC4A1",
"@X c #DBC5AA",
"#X c #DDC9AD",
"$X c #DFC9A5",
"%X c #D0C5B3",
"&X c #E2C6A1",
"*X c #E9C7A2",
"=X c #E5CAA4",
"-X c #EACCA5",
";X c #E5CCA9",
":X c #ECCEA9",
">X c #F2CFA7",
",X c #F0CFA8",
"<X c #ECD0A7",
"1X c #EDD2AB",
"2X c #F3D4AC",
"3X c #F3D8AE",
"4X c #F6D5AB",
"5X c #EBD3B4",
"6X c #F4D6B1",
"7X c #F8D7B1",
"8X c #F6DAB3",
"9X c #FADBB4",
"0X c #FADEB8",
"qX c #E0CEB9",
"wX c #F7E0B5",
"eX c #FDE1B6",
"rX c #FEE3BB",
"tX c #C6C5C4",
"yX c #DFDEDC",
"uX c #D1CDC7",
"iX c #E9D8C2",
"pX c #EFE2D0",
"aX c #F5E5CF",
/* pixels */
"!.|.|.d.& R d.)./.!.Q.!.-Xi & G ~.Y.2X|.|.=X=X+X=XR = t Q .X$X!.;X-Xq.& i <X.X.X=X.X/..X|.U k W &X*X*X|.XX=X=X.X$X^.&X3 J |.!.Y.",
"|.:X)./.x (.Q./.*X:XY.^.:X1 x Y.=X2X^..X}.K.Q.+X<X1.>.~..X|.|.3XXX|.D.R !.Y.~..X=X:XY.~.:XW 9./.&X=X=X&X}.K.G.E.<X<X1XJ >.Q.+X*X",
"*X^.&XV.G Y.+X-X-X;X1X*XF $ |.:X:X.X^..X<X1X1X<X8XF B..X~.|.!.Q.Q.9.N R |.Q.&X=X-X*X;X-Xt R >.Q.G.+X!.|.-X2Xb.t.8XV 3 & K E.(.^.",
"5.<.t & 3 q.:X-X*X+X/.n.I.@ 9X/.!.!.XX2X|..X.X9 : O B.^.!.|.=X4X>XW i >.=X=X-X-X-X!.Y.!.9.@ y ) k m.=X4X|.+Xo.B X.I i = k 7.} e.",
"k ` ^ 3 7 x `.a.t.T.P.,.' y !.&X+X-X1X!.K.!.^.|.+X& 3 -X-X<X-X~./.|.y k =X2X8XH.+X$.Z ^.^.9.@ k i 5.OXk.*.} F F U Z N y k x T +.",
"..L 3 3 1 3 Q 1.>.Q N 3 F i 4 :X2Xi.+.1X3X=X=XG.y.= B.=X=X*.Y +X-X=Xk 3 i d.H.Y.Y.A k a.Y.J | W J W 6.W F 3 0 t.@X9XY.R >.!.n.f.",
"-X=.g Z = ..j.U.+.` r.>.J k f p V G Y ^.+X8XOX1.W & !.|.|.n.1.b.~.!.i J q.1.x 9 1 2 x N m t 0 = m K  .a.Z.7.3.=XH.(. Xq.G |.E.'.",
"~.;.A i.x V.:XH.j.+.(.d.1 F i.( t = 9 n Y ` R F J 1.d.B.>.W B.<.R 3 . 1 J 4.`.H.=./ t 3 3   X.M !.;XXXXX4Xk.l.|.=X;X:X;Xi F H .X",
"Q.H.Q t y x /.&XY.k.}.L.|.O k | I l.g.g.N.V.1.i x <.>.J i 3 R <.B.t @  X-X=X/.+XT.A./.L.B.x l.} 2X3X!.!.^.XX^.Q.9X<XN V.t 9.~.Y.",
"!.=X+X&XD.  x W 2X;X=X*X2Xk B.k.Y.!./.=X&XOX*.n Y.F B.|.n.v.&X=X-X*.x =X|.|.*X4X9X-XXX-XR R = R |.!.^.=X=X X=X*X!.~.q.1 & 1X:X|.",
":X&X-X4X=X= d./.L.&X:X-X/.D.i =X.X-X-XXX).|.~.K.&Xi 1 1XE.z.1X-XXX9.@ W -XQ.|.!.!.-X<X-XR 9.=X1X.X=X|.3XXX^././.'.@X=X2XF B.~.=X",
"~.-XH.Q.[.x V.2X.X)..XQ.&X-X= -X<X X/.Q.+X:X3X1XR x 1 !.|.<X1X;X=XV.i 9.k R *X(.Q./.=XK.J 9.1X|.|.|..X!.=X<X=XT.>.m.^.Y.W >.V.4X",
"/..X/.~.-X<.W K.U.f.=X=X-XV.X & x /. X4XoX|.|.|.q.|.>.& 3 R ^.!.XXD.G ^.1X1X0X:X>X;X!.i & R q.|.XX|.g.$X-X'.r.I i H 4 o.y 3 t *.",
"I ( P.U.[ V.F =XG.I |.Q.Y.R 9.= =X:X9X|.|.1X<X1X;X~.+X- -X;X;X;X|.|.i 4X=X&X~.&X|.Q.;X-XW J R 4 1Xh.x | +.>.l 7 o.h 1 y 1 n t n ",
": 1 y 3 @ i 3 Y n f T.;X'.<.2.t 6X*X~.-X1XrX+X.XoX;X:XW F 9 S.rX4XR & *.j Y.(.-X=.c Y.|.J R z k.l.*.F % V O.s...).G.X.k & !./ M ",
"` Z > & k k 3 y W F E M p i Y F W OXw.L .X/.&Xl.' -X1Xx 1 R @ - : i F 3 4 /.-X^.r.x 2.R = F F t H V f h &X/.=X/.&X.X|.D.@ :X^.n.",
"'.!.X.^.#XB.y R x R.k.( 9 J l 3 J  .k a././.1XY.F A.(.>.F & Y ^.q.[.k 1 = > R U k k F >.W i : m y..Xh...^.^.4X8X.X=X*XB.i /.!.Q.",
"!.=X2X*X~.H.k '.~.|.!.{ 7 U.1 R W 4 1 F E | Q f t i J x J k 7.7X[.J F |.!./.E.9.t E d.d.<.] k [.&X^.=X6X2X8X.X|.:X0X:X3 F :X*X!.",
"9X2X7XrX0X<Xi ;X|./.*X|.g.:X:X&Xi 1 n.G.T.B.<.t R q.q.. 1 T.c.!.OX` J B.0X1XR.E / |.=X*XF J >.a.-X6X=X.X-X.X^.1X:X6 Z.1 R B.-X6X",
"*X*X/.(.|.rXi 2X:X2X9XrX2X=X4X5Xq.>.&X|./.#X&X/.;X8X6XJ x 1.1X9X,X.XB.F /.;X2X1X:X2X9XrXq.F 6X8X-X}..X+X!.;X-X1X~.Z X 6.2X=X.XY.",
".XQ.&X*X|.q.i -X=X).=X/.|./.!.!.6.q.wXaX3X1X-X|.;X|.|.y :X=X/.*X=X;XW & B.|.!.-X=X).*X/.|.1 !.!.=X3XwXrX3X1X=X|.9X|.; |.6X=X6X8X",
";X2X9X9X4 = i +X.X/././.&X=X&X>.y 0.L.^.~.~./.|.|.&X3 1 =X^.=X-X9Xy t O 3 # 2X+X.X/././.&X@ y 2X X|.!.^.~.~.|.|.|.+X5 1X|.|.^.+X",
"8X.X/./.!.!.@ i D.=X|.2X9X8X1 k i F <X:X+Xs.4X8XwX4XR & +X>X9X2X~.V.&X1 |.!.|.;X|.&X|.6XB.t 4 J 1X+X2X<X=X$X3X+ I $ %.}.*.8X2X6X",
"~./.&X5X=X/.= <X2X7X0X).!.H./ 2XF 4 x <X;Xt 2./.^.|.9.& V.~.^.n.7 +X;XW W Y.&X1X2X7XeX/.!./.x F 9X-X&XOXOX6X=X8 J B _ ^.i |.*X-X",
"T.2X1X9X8X].: -X/.!.Q.).8X|.s =XJ D.R 0.U 3 @ 9 l l = O t 3 J q.- ;X<XB.q.& 9X:X/.Q.Q.).9X2X9X3 J.^.^.v.J r.j.j t R = O = y.n.r.",
"J 8XeX=X/.P J B.@X/.s.2X=XY.l j k B H i 0.Y.H.(.=X^.x 6.^.+XR 7 . O & x k k . Y.OX(.J.2X.Xl.R.3 V.1X1X'.i i J 1 , M x 1 k >.W k ",
"t / ( 3.O.i B.W -X2XQ &X*Xc.k 1 x ^.l.l @X9X6X*XX J <.;X8XQ.x D.*XoXJ R @ 1 7 R <.J y G.W i >.3 W OX-.G B D Z.t [.Q.A.( `.`.e.1 ",
"[ J 7 R k i W 3 w 6 * p g k F 1 4 }.^.E.6X!.|./.D.k # q.Q.&XV.|.Q.+X}.q.d.k 6XJ & * u m F @ q.R i | p 1 2XJ x y 1.;X9X-X5X;X+Xx ",
";X<.R tXi >.i = O x k Q [ R R t 1 +X2X9X|.Q.;X<X;Xx W 0.+X-X/.&X=X<X6X;XB.t Y.9.S.(.}.*Xx j F 3 4 v.;Xk &XQ.@ & I >X=X;X7X=X9Xb.",
"5X,.F.iX+X#Xe.O : x R.I.+XR.k J x J =X).(.&X1X1X8X@ 1X1X6X.X=X4X1X.X+X. - : 1X+X*X&X8XK.7.=Xk +XX V.+X5.(.+X3 = / _ ;X1X.X*X|.=X",
";Xn.qX6X1X2X.Xy ,.*X+X&X2X.Xg.t eXJ F +X2XwX9X|.^.. !.|.|.=X8X|.|.^.-X6X9.& V.2X9X*X|.R V.F R 6XeX1 |.@X6XwX<.R ^.Q.&X*X-X=X1X/.",
"@X-X7X+X!.^.^.W q.-X:X9X*X+X:X= |.Q.^.H -X/.|.= @ o $XY.+X2X~.|.Y.$X2X|.k >.k x Q.;X;XW x # x OXG.Q./.-X*X|.R q.=X|.;XH.+X;X&X2X",
"*X=X.X+X&X/.<.9.W 6X&XK.Q.2X+X= |.$X6Xy 6.^.+X|.V.1.V.*X/.=X&X2X3X9X^.|.x !.!.Y.^.5XP.K.B.J ).c.F I.6X[.J 4 i 9.@X&X8X*Xr.'.:X|.",
"+.pXb.M.=Xi >.D.R &X&X-X:Xa.q.. F W B.J = s l f k i k V.XX=X=X9X|.^.k 4 J ;X;X4X2XA.t ^.J = l.p.t x k.d.<.J 1 i W +.@.*.F W '.%X",
"3 tXF 1.2X2X*Xx @ 9.<.).~.[.y <.W J f H W.|.B.> F 1 1 ] /.A.k !.K.|.V.k 9.U R !.R.(.t J 9.W 3 = 4 u K  .F 3 k k G ' t k F J 6.F ",
"H W i k } K.s.Q x !./ a.+X3.4 4 J 9.F x K./.k q.i ;X-Xx # k 4 OX=X>X# o >.Y.3 9.] y @ 1 F q.Q.k J =X1X/.>.4.3 pX1X8X3 +.z.e.5.3 ",
"N.r.*...k n l 3 k K 4 3 p G : u.U.F P.x =X<X= 1 . 9.|.k W 9.J x k <.1 9.k 9.3 $ E &X3 c.k i /.m K =X!./.m #Xt tXI S J Y.!.|.6Xe.",
"/.=X4X=.1 f $.s y t 1 F X.T.> +X=XJ D.x 0.=X3X|.& x q.9.+X=X^.Q.<.1 = y x P - =X!./.= & - 7 x 5X=X/.&X:Xt.*XW = X t m.|.:X2X.XQ.",
"=X X-.8 A i.!.>.R *.2 k.:X.X9 H.B.3 B.J.U.Y.!./.k ;X1X:X-X.X.X<Xk q.3 !..XQ.- J.+X<.<.&X. & D.~.!.;X1X~.Y.Y.Q.& Q.-X>X>X;X|.!..X",
"|.~.=.[ Y.G x x t ;Xm [.).L.r.k i t R =X-X.X.X=Xi 2XoX/.|.|.|..XG k J ~.|.^.(.Q.=X;X/.;XW q.Q.Y.-X2X~.-X-X&XX O -X4X=X/..X|./..X",
"|.oX4X.X<X2X0.x f & k.-X=X2X2X2X=Xy 1 2X2X=X=X4X= /.^./.+X;X|.|./.3 = D.=X&X/.&X)./.*X2XW q.1X2X=X~.Y.1X3Xx 9.n q ^.}./.+X-X+X|.",
".X.XL.|.~.|.^.R D.^.}.!.!.L..X~.+XR B.&XL.Q.K.R . w.Y.Q.:X2X/.~.^.t D.t -X2X7X-X).K.=XQ.1 9..X/.|.1X1X*XL.K.K.K., I Q.Q.. 2X>X;X",
"^.|..X|.|.^.<XR D.|.K.&X|.=X|.Y.+XR D..XXX-X9.= t 7.E +X9X~.-X3X1X1 ^.Y.^.(.).~.+X}.h.1 k J .XY.U.;X/.l.|.;XE.;Xl Q d q 7X!.|.~.",
"<X<X-XT.+X1X^.x 1X1X1X=X<X|.=X3X!.F Q./.2.l (.<XJ q.7 i./.!.|./.| R U..X-X9.Q.=X<X<X1XW F & k OXH r.k.f *.U.T.OXy %   #.U.X.Y.|.",
"X.!.].x W.|.'.k J./.+X4X!.!.^.k q.k &X2XU k u | >.& @ s W >.J 0.G q.R k x W /.2XL.a.l.(.7.J t J 7 J R y J | R 1.3 I M M U x t.j.",
"8 o.d.G G.x F i k.^.Q.( 7.|.-Xq.1 = p y & x | 9.9.3 1 i 1.R = x = k 4 R |.G I.K.U.g - 7 H F k 4. .7.W W 8.v.G Y v M R F 4 J >.J ",
"Y R F i w M k = 2.t.t.G i  .K 0 4 J 1 1.z g.W.U.+X9.J i.!.; ;.~.P P x <.l.s i.~.Y y k l.;Xi 4.R.|.~.] 7.g..Xn i.=X/.6.t y t.M.R ",
"{.M.[ ) 2 i W R >.W t i = x e.4.t >.^.V.}.Y./.2XXXk F 1X1X-X~.1X=X/.q.1 y 1 3 u G U /.2XB.O y = -X=XI h.1X!.u.&XXXb 2.O.3 9.3 j.",
"5X[.2X&.v u.k T.9.L u G ..j.!.;X3 Y.1X2X^.XX|.K.|.= 1 }.L.|./.oXQ.^.= R Z.9.x.E.!.^.9X/.J |.O D././.1X2X XXX|.L.|.<X4 U.> l $X:X",
"^.:XQ.-.=.!.1 :X-XG.=.j.+X>.R i x =X2X*X-X2X3Xi > G k J R t =X.X=Xi <.k & = 3 :X:X-X!.Q.@X2Xy (.~.*X1X*X-X2X2X3X2X|.=X< 2 =XoX!.",
"|./.*X;X4X>.J .X:X*X=X&X,Xq.9.& 9.1X X!.K.!.~.W.Q./.q.3 <.|.&X!.|.9.;XQ F *X:X.X:X.X=X*X>X~.>.F -X2X^.Q.K.^.!.!.Q.~.^.<X2 |.~.|.",
":X+X!.W s 1 !.Y.Q.!..X*XQ.|.6X@ 3 o ~.|.|.W./.|.K.=X:X@ 1XoX=X4X>X/.(.!.# /.!.Y.Q.!..XXX~.<.= & ~.}.~.+X|.Y.|.|.K.=X<X>X> *X<X2X",
"|.;X=X;XB.  =X<X|.|.|.|.2X-X=X1 Q.|.<X1X-X2X3X3X2X|./.O B.!.!.I r.|.=X<.# <.;X1X&X|.|./.1Xf F i <.+X=X>X<X3X2X1X<X|.|.r w !.Y.~.",
"1X:X|.9X9Xl |.+X1X:X9X-X|.!.B.J 4X1X|.!.K.!.|.o.g.6.x . J |.c.3 X.=X|.k k y = F :X-X9X-X|.!.>.X c 1X.XQ.K.Q.)..X!.C ~.$ + |.K.=X",
"|.Q.K.(.<.R k <.4X|.|.|.F i & J H.Q.!.|.=XW.}.t.9 #.t.i t 3 & 3 J 1.k & t y !.=X*XG.!.+X;X}.>.R w Q.!.|.=XW. X!.!.=X% o >X*X;X1X",
"!.*X;X=X>.>.6X*X/..X1X7X/.2Xi D.-X|.-X>X|.-X1X@.= - > >.tXB.x X.a.W y = = 7 Z M 8 * &.7X/.8X>.q.=X.X:X>X|.<X<X9X-X_.C   ~./.!./.",
"=X*X6X^.q.W &X/.|.:X(.!.|.Q.4 = V. XQ.#.! :.A w #.!.w & 1 m g [ XX|.*.k & ( [ , , e &.!.k 1 @ B.+X^.!.~.|.^.!.|.-XXX/.X !.k.U.|.",
"i.h.P.X.<.i Q.=X&X|.h.Q.=X+X4 .X9 g.$XQ.b 8 e :.^..Xx = 3 :X&X*X-X-X#.R 4 |.Q./.! 5 [ K.G d t %X|.}.Y.g.K..XE.T.Y..X|.o W.I =.&X",
"A ! ;.1 O @ =X.XG.^ -.Q.=X1X= [ %.1X6Xh., ; &.^.V.4 i 3 uX|.=X&X|.^.=XQ.& Y -XC S -.! q > H t W ;XOX} H k.-Xy.W n.@XT.2 Z 1 T @.",
"S 5 d ; @ @ b c < + 5 C G.#   J h. X[ w C b {  X|./.J i ~.=X+X/.K.&XL.N t @ !.C [ ^.|./.N.G t J 9.F f } n.l.n F 3.3.W i p M E F ",
"=.! [ [ = @ a h [ X.e 6 c n @ 0 h Z o.G.|.Y.C [ +X/.R W }.4X6X1X[.q.>.= *XM * |.|.;X;Xq.X <.F K 4 p V N J W G z x k i 3 %.2X#Xz.",
"4X*X).!.3 t d Z &X~.:.#.h.G O 3 G y.-X.X.X-XQ.!.=X-Xy : B.uX/.&X4X>.7 k &X&X^ .X=X3X6X&XV.q.k 8X=X:X8XD J c.OXT.>.( #., k./.=X1X",
";X$X/.V.k i.J./.~./.[..X&X: = Y.} e..X|.!.|.L.-X2X|.1 B.Q 6.|.^.!.|.9.J !.|.&X2X4X=X+X+X1X<.R ;X2X;X&X*.t.[.!.=XP.l.=.$ |.+X=X|.",
";X;X1X= 3 :X;X:X-X1X,X6X^.@ t V.+XK.|.-X2X-X=X*Xq.1 t @X-XaX2X2X;Xi & <.&X-X:X2X/.+X*X<X# & 9.|./.!.|.&X<X|.:X-X|.$ +   =X6XaX<X"
};
