/* XPM */
static char *result[] = {
/* columns rows colors chars-per-pixel */
"64 64 209 2 ",
"   c #020202",
".  c #0C0C01",
"X  c #0B0B0B",
"o  c #070708",
"O  c #121202",
"+  c #1C1B01",
"@  c #18130C",
"#  c #1B1915",
"$  c #171614",
"%  c #1B0F0A",
"&  c #2C1A10",
"*  c #242301",
"=  c #2C2A01",
"-  c #2F2D09",
";  c #302F06",
":  c #363400",
">  c #3D3B01",
",  c #31300D",
"<  c #25221D",
"1  c #2D281D",
"2  c #3B391F",
"3  c #392217",
"4  c #2B2B2B",
"5  c #2A2824",
"6  c #332B24",
"7  c #322620",
"8  c #34322B",
"9  c #3D3C2C",
"0  c #3C3B25",
"q  c #333230",
"w  c #413E02",
"e  c #512D1B",
"r  c #543C14",
"t  c #6A361C",
"y  c #413C2B",
"u  c #4C372D",
"i  c #5A3827",
"p  c #433B31",
"a  c #4F3C34",
"s  c #442B20",
"d  c #6A3B25",
"f  c #444202",
"g  c #4C4A02",
"h  c #44420F",
"j  c #524F00",
"k  c #524B08",
"l  c #5A5601",
"z  c #5A5605",
"x  c #46441B",
"c  c #4D4B1A",
"v  c #4D4A16",
"b  c #504E14",
"n  c #595618",
"m  c #605D07",
"M  c #615D1B",
"N  c #7C4D1A",
"B  c #656102",
"V  c #6A6603",
"C  c #6E6A01",
"Z  c #6B680A",
"A  c #726E07",
"S  c #797500",
"D  c #7B7609",
"F  c #68651C",
"G  c #696617",
"H  c #726E18",
"J  c #7A7615",
"K  c #797516",
"L  c #444225",
"P  c #4D4B25",
"I  c #48472A",
"U  c #504E25",
"Y  c #555323",
"T  c #5C5A21",
"R  c #464034",
"E  c #4B443A",
"W  c #544A3A",
"Q  c #6B4C39",
"!  c #635939",
"~  c #6C6826",
"^  c #484745",
"/  c #594F41",
"(  c #595246",
")  c #665A49",
"_  c #6A6358",
"`  c #736554",
"'  c #7C6E5A",
"]  c #776A53",
"[  c #7F705A",
"{  c #847F00",
"}  c #817D12",
"|  c #864D30",
" . c #985433",
".. c #924A27",
"X. c #A7572F",
"o. c #A9572E",
"O. c #B25C31",
"+. c #B85F33",
"@. c #AD5930",
"#. c #827928",
"$. c #B76339",
"%. c #84735C",
"&. c #867A5F",
"*. c #966D51",
"=. c #8B7B63",
"-. c #857765",
";. c #868100",
":. c #8A8509",
">. c #918C02",
",. c #918C08",
"<. c #969104",
"1. c #9B9609",
"2. c #898412",
"3. c #928C16",
"4. c #A39D01",
"5. c #A29D0B",
"6. c #AFA903",
"7. c #ABA506",
"8. c #B3AD05",
"9. c #BBB402",
"0. c #9E913D",
"q. c #C6BF00",
"w. c #C4B504",
"e. c #C7C001",
"r. c #C9C204",
"t. c #9C8F41",
"y. c #A79853",
"u. c #B2A258",
"i. c #948466",
"p. c #968569",
"a. c #99876A",
"s. c #97896A",
"d. c #9B8A6C",
"f. c #9E8E71",
"g. c #948471",
"h. c #9F9073",
"j. c #A18D6F",
"k. c #A0916F",
"l. c #A18F71",
"z. c #A49274",
"x. c #A99575",
"c. c #AC9977",
"v. c #A9967A",
"b. c #AD9A7B",
"n. c #A29578",
"m. c #B39D7C",
"M. c #B59B7A",
"N. c #B5A07D",
"B. c #CE8F66",
"V. c #999080",
"C. c #B39E81",
"Z. c #B5A181",
"A. c #BBA583",
"S. c #BFA989",
"D. c #BEA687",
"F. c #B2A190",
"G. c #C2A785",
"H. c #C3A986",
"J. c #C4AC8A",
"K. c #CAAE8B",
"L. c #C7AA88",
"P. c #C6B08D",
"I. c #CCB28E",
"U. c #D2B48E",
"Y. c #CDB492",
"T. c #C9B493",
"R. c #D2B692",
"E. c #D5BA95",
"W. c #D9BB96",
"Q. c #D1B798",
"!. c #D6BC99",
"~. c #DABE9A",
"^. c #D8B794",
"/. c #E0BF97",
"(. c #E0BF9A",
"). c #DABFA0",
"_. c #D6C09A",
"`. c #DDC29D",
"'. c #D8C097",
"]. c #E2C39E",
"[. c #E4C89F",
"{. c #E9C49F",
"}. c #DEC4A1",
"|. c #DFC9A2",
" X c #E3C6A1",
".X c #E9C7A2",
"XX c #E5CAA3",
"oX c #EACCA5",
"OX c #E6CDA9",
"+X c #EBCEA9",
"@X c #F1CEA9",
"#X c #F0CEA7",
"$X c #ECD1A6",
"%X c #EDD2AA",
"&X c #E7D1A7",
"*X c #F1D1A7",
"=X c #F3D4AC",
"-X c #F9D6AF",
";X c #F4D8AE",
":X c #EED6B1",
">X c #F5D6B1",
",X c #F8D7B1",
"<X c #F6DAB2",
"1X c #FADCB4",
"2X c #FCDEB8",
"3X c #FCE1B6",
"4X c #FEE3BB",
"5X c #F7E0B4",
"6X c #FFEDC8",
/* pixels */
"E.`.`.].XX-X,X].W.E.^.E.oX<X;X].W.Y.=X`.`.XX.X|.XXY.XXXXOX]. XE.OXXX`.XXoXoX].].].].~.].W.oX%X].].oXXX].[.XX X}.XX!.XX[.+X~.!.I.",
"`.+X~.(.K.^.R.`..X+XI.`.oX!.U.I.OX=XE.]._.I.U.`.$X%X-XW.].].`.;XXX`.W.~.R.U.!.].XX+XU.`.+X&X`.~. X.XXX`._.Y.U.`.$X%X$XW.R.Y.]. X",
".X!. X X`.Y.`.oXoX+X%X X`.`.`.oX+X}.!.`.$X%X%X%X<X~.!.].W.'.!.R.U.`.XX$X`.E.].oXoXOX%X].`.W.`..XXXXXW.`.oX=X%X$X<X`.`. X`.!.].].",
"OX X+X=XoX X$XoX.X`.~.!.=X,X1X`.R.E.XX=X`.].].`.I.R.!.E.E.~.oX=X*XoX=XoXXX].$XXXoX`.~.!.XX;X,X].R.R.[.-X`. X].`.I.E.!.!.`.oX[.oX",
"`.].W.~.oX=X-XK.`.+XR.`.Y.K.W. X XoX%XW.Y.E.'.`.`.`.].[.$X$XoX^.W.`.].!.XX=X-XK.`.+XR.`.E.R.E.XX}.oX+XW.I.E.'.`. X`.`.{.=X=X$X;X",
"W.].!.`.W.^.^.].XXS.OX].+X%X+X+X=XW.W.%X;X[.XX*X;X1X-X[.].].I.`.oXXXR.`.~.R.E.].XXH.OX}..X.X#X+X=XW.!.%X=XXXXX*X-X1X*XoX^.!.`.W.",
".X].XX[.+X~.OX#X`.1XOX+XQ.^.~.!.I.`.`.~. X;X=XXXK.!.E.].`.XX`.oX`.E.&X+X.X~.oXoX].1XoX+X!.!.`. XE.W.|._.XX<X=XXXK.E.E.`.`.`.`.XX",
"W.W.].=X`.}.oXK.W.W.W.W.!.}..XW.!.&XoXXX=XR.[.`.OXXX{.$X[.%X;XoX'.E.%XoX`.].#XK.E.W.E.R.!.W.`.E.W.XX[.oX-XR.].`.XXOXoX$X;X*X=X`.",
"W.W.K.].%XXX~.].Q.K.!.R.}.@X>X_.=X%XE.R.XX].E.E.<X+X'.E.~.E.E.].].;XU.'.oX.X`.}.R.K._.Y. XoX;X~.=X:XE.E.`.].!.E.1X+X`.I.E.I.~.U.",
"E.XX`.`.~.`.].+X=X.X X+X+XW.W.R.].E.`.XX[.[.oX+X!.W.].].`.`.XXOXoXR.!.[.`.`. X;X-X.XXX.X@XW.E.Q.`.E.E.OX[.`.[.].E.!.].]. X%X+X`.",
"oX}.+X-XoXE.].`.R. X` b.R.!.|..X].oX+X].].`.`.W. XXXOX%X+X$X%X+X[.'.{.;X.XE.`.E.R.oX$X$X~.Q.OX%X[.XX`.;X[.!.!.].XXoX[.=X%XR.W.OX",
"W.oXK.R.`.~.%X-X].l.u 6 Q *.OXOXoX`.W.E.`.%X;X%XoX#X!.W.].$X$XOXXX*X].W. XOX.XQ.E.`. XI.`.oX+X`.`.`.].R.XX$XOX$XOX].!.R.R.[.-X#X",
"`.].!.~..X%X XU.~.=XB.O.+.X.W ( =.W.!.=X].`.`.`.~.`.].!.W.`.E.Q.[.oXW.~.%X%X5X$X#XoXE.XX+X].XX~.[.oX`.$X.XOX X].`.{.oX`.].W.R.W.",
" XW.oXoX*X X~..X+X X` d +.+.d 4 # -.1X(.`.+X+X%X+X^.`.=XoXOXOXXX].].#X,X+X].~.XX]. XOX$XW.`.~.].%X[.R.E.E.`.XX+X-XXX].;X#XXX XXX",
"`.W.oX,X^.!.].=XR.`.R./ e +.+.| a 7 ` OX%X4X}.].].oX+X[.%X2X6X4X-X1XR.~.W.Y.Q..XW.`.W.`. X.X}.].`.^.].XXXX-X}.].].].$XE.R..XoX X",
">X=X.X].~.+X>X X`.].@X1XQ  .+.+. . .s _ F.J. X`.$XoX%X]..X].}.`.`.`.%X%X$X+X-X`.`.].%X<X1X1X>X:XoXoX;XoX}.`.XX~.XX`.`.`.<XoXoX<X",
" X.X~.`.<X1X].1X%X,XXXH.@ 3 t +.+.$.$.d ^ ^ C.:X~.XXW.~.!..X~.~.+X3X(.~.%X].`.1X=X,XXX`.XXXXOX~.oX].U.E.!.!.=X,X].OX.X`.}.~.W.R.",
"W..X%XoXW.R.E.`.^.~.E.N.%.@ # 3 X.+.+.+.e X X =.`.|.}.}.=X>X5X,X1X X X}.~.`.~.].E.(.E.H.~.`.R.+X].!.].;X=X;X].`.oX5X+X<X1X%X X!.",
"1X+X,X4X3X$XQ.+X`.`.oXoXK.=.# X 7 X.+.O...&   w y.XX%X=X<XW.R.W.<X6X3X4X2X%X}.%X`.'..XoX+XoX+X XOX<XOX].OX].!.%X@X`. XE.W.`..X>X",
".X.X~.!.}.3X3X=X+X=X,X3X=XY.J.E 4 5  .O.o.d % . l u.1XI.`.%X%X,X+X~.!.W.!.+X=X%X$X=X1X3X%XoX:X<XoX'.].`.W.OX+X+X!.-XXX+X=XOX`.R.",
"].R.]..X`.Q.E.oXOX~. X].].W.Y.R.( 4 4 | X.o.r w   j t.`.+XXX~. X XOX+XOX+X`.!.oXOX(. X].`.~.W.W.XX-X5X4X;X$XXX X2X~. X}.>XXX<X<X",
"OX=X1X1X1X1X%X[. XW.~.~.].XXOX}.[ ^ 4 $ e N w.V g   g 0.}.Y.~.+X1X1X2X=XOX%X%X[.].~.~.~. XXX X=X'.`.W.!.!.W.~.`.`.}.=X%X].`.!.`.",
"<X XW.~.W.Q.~.+X`.XX`.;X3X<X5XXXQ._ 5 o   m 4.p n g o : R J ! W W..X XQ.}.W.`.OX`. X~.;X1X<X5X X$X|.=X$XXX}.=X<X3X=X|. X~.<X=X>X",
"^.~.OXOXOX~.XX%X=X,X1X~.^.^.].=X2XQ.p .   o Z 7.L b l . * $   o E Q. XOX%X`. X%X=X,X1X/.W.^. X=X,XoXXX+X4X<XXX`.!.`.`.%X2X`. XoX",
"XX=X=X<X2X,X1X+X~.R.U.(.,X-X1XXXS.).Z.5     o z 8.M ,.;.C :   O @ 6 Y.2X=X=X,XoX~.^.U.`.,X-X1XXXH.!.`.~._.`.`.`.Q.OXoX.XOXoX}.E.",
"XX<X1XOX X XR.W.}. XQ.-XXX!.`.OX}.:X`.v.6     o g 8.8.9.q.;.g O     < C.OX].R.W.}.`.W.=XXXW.`.OX`.=X%X1X=XXXXXoX=X>X~.}.W.~.XX+X",
">X X~.W.R.XX+X$X+X1X,X X.X+X-X,X4X2XOXY.z.p       = S 9.e.q.1.C       $ z..X.X%X+X1X<X].OX+X=X,X4X3XOX`.%X<X;XoX X!.OX%XOX.X`.].",
"~.~. X$X>X1X2X,X].U.E.+X<X=X].!.XX!.!.XX Xa.y     O S 9.e.e.e.<.g       X z.1X1X(.R.^.+X<X*X].W.XX!.!.OX=XW.].`.`.XX1X.X%X+XOX~.",
"=X%X.X:X].Q.^.I.W.W._.=XI.`.!.>X X}.%X1X XK.g.5   > V q.q.q.9.} v l .     o -.K.~.!.}.@XI.`.!.>X X}.:X,X}.R.OXOXXX#XOXOX-X X1X>X",
"+X`.`.~.`.oX%X}. X X-XU.`.oX,X}.+X%XOX(.Q.}.OXp o   o Z q.q.q.7.L c l O     o '  X X>XY.].oX,X}.+X:X X].Q. X%X;X4X+XOX%X].OX`.OX",
"W.`.=X=X%X%X X>X1X X`.XX=X].`.>X2X.X|.}.=X5X2X( X     x H q.q.q.9.Y c m +     o '  X X].=X].`.>X5X.X`. X>X5X5X`.!.R. X+X+X X+X~.",
"XXoX<X}.W.E.~.!.R.+X%X1X X}.+XoX`.R.~.oX.X~.}.b.$   + 7.F F q.q.e.q.T x V +     o ) $X3X X}.+X+X`.R.~.+X.X~.}. XOX`.XXK.].OX X=X",
"oXXX].`.].'.`.R.!.=X].I.R.=X(.`.`.XX,X].}.!.`.`.J.<   * 1.G M 9.e.q.q.F L C =     o W Y.Q.=X].`.).XX<X].}.!.}.`.=X].1X X^.%X+X].",
"-X].oX].XXXX`.oX+X X XOX+X^.`.OX<X1XoXOX%X%X=X<XW.Z.6 o + >.H Y 8.e.q.e.H 0 V =       p ].E.`.OX,X1X.XOX$X%X=X1XW.E.Y.XX.X*XXX3X",
"!.[.XXoX-X=XoXoXW.OX].].W.OX=X=X.X!.OX%X1X5X<X`. XXXE.y   O { J P 7.e.q.q.K 0 m :       8 Y.=X=XoX!.+X=X5X1X<X`.XXOXXXoX~.W. X X",
"oX`.!.E.W.I.`.Q.Y.!. X~. X XR.Q.`.OX%X`.Y.~.R._.+X1X3X{.E o   S } L 5.q.q.q.2.8 z >       7 m.R.~.&X%X!.R.!.R._.+X<X1X.X`.!.~.`.",
"XX].XX`.!.~.`.!.].+X.XoX@X+X!.OXXX=XW. X=X+XE.*X X+X~.Q.~./ o   C 2.9 1.e.q.q.3.q z f       # C.XX%X^.~.+X&XR.*X X+X~.W.!.].=X,X",
"!.[.=X*X=X$X+X-X+X/.*XW.~.=X,X:XXX`.!.oX5X$X%X`.`.~.!.`.$XoX) o   B ,.L 3.q.q.q.1.q n g       X z.W.}.%X1XoX=X].~.!.!.`.%X=X`.W.",
"[.`.`.R.I.~.W.~.!.W.~. X@X].~.W.E.oX%XE.Y.Y.E.~.R.oX+X@X$X].].' o   l <.P 2.q.q.q.5.9 b j       o b.%XW.Y.Y.E.~.R.OX*X*X+X`.W.}.",
"`.'.R.`.!.!.Q.!..X+X~.OX].K.R.P.XX%X!.oX.X].`.XX].+X`.W.'.`.`.].' o   g 1.Y J e.e.e.8.I b l .   X G.W.oX+X X`.OX.X=XOXW.`.`.~.`.",
"`.{.-X].oX=X=X=X X`.`.$X].%XoXOX`.R.Y.oX$X`.`.oXK.Y.T.R.}.OX`.!.W.=.o   f 4.T K e.q.e.9.U c z O   1 ' -.;XXX[.;X^.~.!.`.`.+X}.~.",
"[.`.U.`.'.(.!.XX}.W.`.E.Y.I.W.I.Y.}.XX!.H.G.A.S.R.Y.J.K. XOXW.Q.E.Q.f.X   : 7.n H q.q.r.q.T c V + + b 0 ` U.I.I.`.}.R.R.%X=X$X+X",
"!.`.].`.`.!.$X`.`.`.I.`.!.!.R.A.R.].I.R.E.'.P.!.^.'.~.].XXI.W.XX`.~.I.i.#   = 4.F M 9.e.r.r.~ G C > G h 5 N.E.OX].oXoX=X-XU.~.~.",
"oX$XoXOXoX=XW.[.%X$X+X'.`.I.E.XXJ.A.G.K.P._.`.`.`.P.G.G.S.m.Z.N.D.m.Z.A.l.<   * <.H T 9.q.q.w.1.:.x n #   d.XX$X=X!.U.R.`.E.~.].",
"=XoX+X X$X`. X=XU.!.!.].K.I.K.J.A.Z.N.J.P.Y.I.H.m.Z.A.A.A.m.m.N.c.x.m.Z.A.d.5 o + ;.H c 8.q.8.U M 0 >.k ` Z.oX].R.E.`.+X*X#X+X+X",
"!.W.W.W.`.$X.XI.E.E.K.H.R.!.!.~.S.m.c.z.n.z.k.h.c.c.b.j.i.i.i.s.s.f.k.s.d.v.d.6   . { G P 5.Y Z D y , ~ h.R.!.!.oX$X=X~.U.R.U.E.",
"`.!.~.`.U.+X X.X$X`.U.Y.!.`.H.m.z.s.s.a.&.j.d.p.j.d.j.a.a.d.j.s.d.z.p.d.i.z.f.j.9 o o v I D M J 9 Z = # =.E.~.I.XX~. XW.W.`.oX].",
"{.+X~..XXX`.`.W.E.].oX].'.N.c.n.v.d.s.p.z.p.s.x.j.i.d.x.z.x.a.v.z.s.d.l.l.d.d.p.p.) ] q K H y M D f . ) Z.K.W.=X].R.XX=X+X=XR.~.",
"$XW.*X].`.+X`.~.^.W.>XU.Z.x.f.x.a.s.z.x.p.f.s.i.s.z.n.s.i.a.p.d.i.s.z.d.d.h.d.s.p.s.c.W C f - k n X ( d.Z.R.E.I.`.$X=X`.U.~. X+X",
"!.+XR.~.`.].<X+X+XOXQ.K.Y.A.Z.d.s.l.x.l.z.x.x.c.x.s.l.s.i.j.l.d.d.s.p.p.d.h.c.z.k.h.p./ O . , 3.V.=.d.c.H.'.OX*X=X'.OX'.I. X].E.",
"}.!.XX$X-X.XoX].+X].XX X].S.b.b.c.m.d.s.i.p.p.p.p.s.p.z.v.s.d.p.d.d.h.z.x.z.h.d.z.j.z.i.E < 8 p.l.x.a.d.z.S.I.I.R.W.!.$X=X].`.`.",
"oX}.E.W.~.W.E.R.R.W.`.].I.R.`.`.N.c.z.v.x.d.l.f.i.z.z.z.z.j.z.x.x.d.p.p.a.p.p.i.p.p.j.l.%.%.h.c.a.d.f.v.D.D.E._.I.XX$X$X*X].+X=X",
"}.OXOXOX].!.OX+X`.`.`.`.oX`.E.I.N.I.P.I.J.P.S.D.m.l.j.s.s.s.a.a.s.d.z.z.f.p.h.v.x.z.z.z.Z.c.v.l.s.x.N.H.R.[.$X$X%X`.`.R.^.E.R.'.",
"%XoX`.,X-X&X`.`.%X+X,XoX`.I.K.E.OX[.R.J.N.S.J.H.m.c.m.m.v.c.d.x.c.v.v.S.D.b.x.m.K.S.K.D.A.b.c.Z.J.J.A.A.A.T.~.].!.I.W.K.!.].I.XX",
"`.Q.I.!.I.U.].%X-X`.`.`.OXE.I.T.L.I.R.E.`.I.Y.H.H.I.E.Y.I.A.J.J.N.m.N.S.N.c.Z.E.`.K.S.P.!.J.A.A.m.A.J.Y.`.I._.R.!.].XX*X*XXXoX+X",
"!. XXXXX|.XX<X.X~.`.$X-X`.$X-XoXXX`.oX*X`.XXoX%X`.I.I.P.L.K.S.A.K.H.Y.!.R.Y.`.Q.I.I.`.XXU.#XOXOX`.W.].+X`.XX%X1XoX/.~.~.W.~.R.`.",
"XX.XoXU.$X-X].`.`.+XW.E.~.R.!.!.`.!.E.W.}._.R.`.].~.U.Y.I.!.Q.E.!.R.W.H.`.].R.I.Y.`.P.R.`.E.!._._.!.R.W.`.~.W.`.oXoXW.!.!.`.`.`.",
"$X].^.[.OXW.Q..X X`.XX%XXX}.E.`.].'.}.].`.`.`.;X`.~.`.].&X$X[. X[.[.I.'.W.Y.K.`.!.!.}.oXOX}.W.`.`.'.`.`.`.`.!.;X`.].`.XX$X$XXX}.",
"].~.OXR.!.].OX`.%X%X<X~. X=X;X>X;X5X;X<X.XoX*X~.+X%X%XXX!.`..X X`.E.XXU.R.`. X`.OX%X<X`.].$X;X>X;X1X=X1XoX+X*X`.oX%X+XoX`.`.XXoX",
"}. X!.`.R.`.`.+XOX!.!.`.oXW. X}.R.`.`.!.`.].~.W.`.`.~.`.'.[.`.~.I.].R.!.P.!.!.+X&X`.`.`.$X`. X`.I.'.`.W.~.`.!._.].`.~.~.!.XXE.R.",
" XoX+X>X=X;X-X]..X+X=X*X].XX X!.XXXX`. XoX[.+X].`.~.!.R.$X-X>X%X!.oXXXXXOX=X=X_.~.OXoX=X`._.).!.$XXX~.`.].'.oX[.oX`.`.].*X=X:XoX",
"=X X~.^.Y.!.!.~. X~.!.I.+X@X1X%X`.OX;X].].+X].`.XXoXXX=X`.W.`.].=X].].XXXX].+X}.OX=X%X XOXXX:X1XXX+X1X%XXX%XoX[.XXOXoX=X].~.XX$X",
" X`.`.`.R.Y.W.~.~.~.~.`. XU.}.}.$X-X].`.W.`.U.oX%X].`.~.`.XX`.E.E.`.!.Q.^.`.XX%X-XXX~. X%X5X+X+X=XXXXXE.OX].W.XX%X`.~.~.`. X|.}.",
"].`.%X%X%X+X+XoXoX%X+X-X~.`.OXOX,X'.`.oX=XOXoXoX`._.`.`.oX%X=X=XoX].+XXXXXOX+X=X~. XOX%X X`. X%X~.!.`.}.$X`.oXoX`.!.`.XXOX=X+X%X"
};
