/* XPM */
static char *result[] = {
/* columns rows colors chars-per-pixel */
"64 64 212 2 ",
"   c #020202",
".  c #0C0C01",
"X  c #0B0B0B",
"o  c #070708",
"O  c #121202",
"+  c #1C1B01",
"@  c #18130C",
"#  c #1D1A16",
"$  c #181614",
"%  c #1B0F0A",
"&  c #31190D",
"*  c #242301",
"=  c #2C2A01",
"-  c #2F2D09",
";  c #302F06",
":  c #363400",
">  c #3D3B01",
",  c #31300D",
"<  c #25211D",
"1  c #3B391F",
"2  c #392217",
"3  c #2E2922",
"4  c #2B2B2B",
"5  c #282725",
"6  c #332B22",
"7  c #322620",
"8  c #33322C",
"9  c #3E3C2D",
"0  c #3B3729",
"q  c #3F3931",
"w  c #413E02",
"e  c #512D1B",
"r  c #543C14",
"t  c #6A361C",
"y  c #413C2B",
"u  c #4C372D",
"i  c #5A3827",
"p  c #473B32",
"a  c #442B20",
"s  c #6A3B25",
"d  c #444202",
"f  c #4C4A02",
"g  c #44420F",
"h  c #524F00",
"j  c #524B08",
"k  c #5A5601",
"l  c #5A5605",
"z  c #46441B",
"x  c #4D4B1A",
"c  c #4D4A16",
"v  c #504E14",
"b  c #5D5B1F",
"n  c #575415",
"m  c #605D07",
"M  c #615E1B",
"N  c #7C4D1A",
"B  c #656102",
"V  c #6A6603",
"C  c #6E6A01",
"Z  c #6B680A",
"A  c #726E07",
"S  c #797500",
"D  c #7B7609",
"F  c #6B6714",
"G  c #68651C",
"H  c #686518",
"J  c #726E18",
"K  c #7A7615",
"L  c #797516",
"P  c #444225",
"I  c #4D4B25",
"U  c #48472A",
"Y  c #504E25",
"T  c #555323",
"R  c #5C5A21",
"E  c #474134",
"W  c #4A4339",
"Q  c #514538",
"!  c #5A5239",
"~  c #694936",
"^  c #736E26",
"/  c #484745",
"(  c #564D41",
")  c #5B5347",
"_  c #6B5E4C",
"`  c #635647",
"'  c #655E56",
"]  c #696359",
"[  c #716350",
"{  c #796A56",
"}  c #7F7258",
"|  c #7F7261",
" . c #847F00",
".. c #817D12",
"X. c #864D30",
"o. c #985433",
"O. c #924A27",
"+. c #A7572F",
"@. c #A9572E",
"#. c #AD5930",
"$. c #B25C31",
"%. c #B85F33",
"&. c #B76339",
"*. c #90684F",
"=. c #83745C",
"-. c #897A5F",
";. c #867662",
":. c #8E7D65",
">. c #847C70",
",. c #868100",
"<. c #8A8509",
"1. c #918C02",
"2. c #918C08",
"3. c #969104",
"4. c #9B9609",
"5. c #898412",
"6. c #948D17",
"7. c #A39D01",
"8. c #A29D0B",
"9. c #AFA903",
"0. c #ABA506",
"q. c #B3AD05",
"w. c #BBB402",
"e. c #958A37",
"r. c #C6BF00",
"t. c #C4B504",
"y. c #C7C001",
"u. c #C9C204",
"i. c #A8994D",
"p. c #A99853",
"a. c #8D8061",
"s. c #948366",
"d. c #958569",
"f. c #99876A",
"g. c #97896A",
"h. c #9B8A6C",
"j. c #9E8D71",
"k. c #9B8770",
"l. c #9F9073",
"z. c #A18D6F",
"x. c #A0916F",
"c. c #A28E71",
"v. c #A49374",
"b. c #A99575",
"n. c #AC9977",
"m. c #A9967A",
"M. c #AC9A7B",
"N. c #A39379",
"B. c #B39D7C",
"V. c #B49A7A",
"C. c #B5A07D",
"Z. c #CC8D64",
"A. c #9A9080",
"S. c #B69F80",
"D. c #B6A281",
"F. c #BCA583",
"G. c #BFAA89",
"H. c #BEA787",
"J. c #BBAC98",
"K. c #C2A785",
"L. c #C3A985",
"P. c #C4AC8A",
"I. c #CAAE8B",
"U. c #CAAC87",
"Y. c #C6B08D",
"T. c #CCB28E",
"R. c #D1B48E",
"E. c #CDB492",
"W. c #CAB694",
"Q. c #D2B692",
"!. c #D5BA95",
"~. c #D9BB96",
"^. c #D1B798",
"/. c #D6BC99",
"(. c #DABE9A",
"). c #D8B794",
"_. c #E0BF97",
"`. c #E0BF9A",
"'. c #DABFA0",
"]. c #D6C09B",
"[. c #DDC29D",
"{. c #D8C097",
"}. c #E1C39E",
"|. c #E4C89F",
" X c #E9C49F",
".X c #DEC4A1",
"XX c #DFC9A2",
"oX c #E3C6A1",
"OX c #E8C7A2",
"+X c #E5CAA4",
"@X c #EACCA5",
"#X c #E6CDA9",
"$X c #EBCEA9",
"%X c #F1CEA9",
"&X c #F0CEA7",
"*X c #ECD0A6",
"=X c #EDD2AA",
"-X c #E7D1A7",
";X c #F1D1A7",
":X c #F3D4AC",
">X c #F9D6AF",
",X c #F4D8AE",
"<X c #EED6B1",
"1X c #F5D6B1",
"2X c #F8D7B1",
"3X c #F6DAB2",
"4X c #FADCB4",
"5X c #FBDEB8",
"6X c #FCE1B6",
"7X c #FEE3BB",
"8X c #F7E0B4",
"9X c #FFEDC8",
/* pixels */
"!.[.[.}.|.>X3X}.~.).).~.OX3X,X_.].!.=X].}.OX@X[.+X^.+X|.OXoXXX^.+X@X].OX@X@X|.}.|.}.(.}.(.@X=X|.}.OXOX[.XXOX+X.XXX/.+X+X+X(.~.T.",
"[.$X(.`.T.).Q.(.OX=XE.].$X/.Q.T.+X:X!.}.{.W.Q.[.*X=X:X[.|.[.[.,X+X[.(.~.!.R.!.}.|.$XQ.~.=X+X}.(.oXOX+XoX{.T.R.[.=X=X*X~.~.W.oXoX",
"OX/.oXoX[.E..X@X@X@X=XoX[.'.[.@X@X[./.[.@X:X=X=X,X~.~.}.~.(.~.R.Q.[.+X=X[.^.}.@X@X#X=X|.(./.[.OX|.+X/.[.@X:X:X=X3X[.].}.[.[.~.}.",
"#XoX$X:X+XOX*XOX@X[.(./.:X3X4X[.!.^.OX:X[.}.}.].R.!./.^./.].OX,X;X@X;X@X@X}.*X+X@X.X(./.@X,X3X`.!.!. X:X[.oX}.].T.!.(.(.[.@X|.$X",
"[.}.~.(.@X:X>XI..X$XE.[.^.I.).+XoX@X=X~.T.!.~.[.[..X}.@X@X@X@X~.].{.}./.OX,X>XU.[.*X^.[.~.R.!.+X[.+X$X~.E.^.{.[.}.[.[.@X:X:X@X>X",
"~.}./.[.~.).).}.+XG.#XoX$X$X@X$X=X_.~.=X,X+XOX;X,X5X:X|.|.}.T.[.@XOXQ.[./.!.!.[.+XL.+X.XOX@X@X$X:X[./.=X>X+X|.;X>X3X:X X!.!.[.~.",
"OX}.+X|.$X/.#X&X[.4X@X@X/.~.(.(.T.[..X(.XX3X,X|.U./.!.}.{.+X[.@X[./.=X@XOX(.@X@X}.4X@X*X^.~.}.+XR.{..X{.oX3X;X+XI.^.{.[.[.[.[.OX",
"~.~.}.:X[.oX@XI.~.~.~.)./.[.oX~./.-X+X|.:XQ.|.[.+XOX@X-XOX=X,X+X{.Q.=X@X[.}.&XI.).!./.Q././.[.).(.OX@X|.,XQ.OX[.+X@X@X-X:X=X,X[.",
"~.].I.[.=XOX(.}.).P.(.Q.}.:X>X/.:X<X!.~.+X}.!.!.1X=X].!.(.!.!.+X}.>XR.{.$X@X(.[.Q.P.[.E.oX@X:X].:X<X!.!.(.|.!.!.3X=X].!.^.T.~.!.",
"^.OX[.[.[.(.oX$X1XOX] m.}.^./.E.[.~.].oX}.oX@X$X/.~.[.OX[.[.+X+X@XR.{.|.[.(.|.>X>XOX+XOX&X/.^.^.|.!.!.+X+X].|.@X!./.}.}.}.=X@X}.",
"*XoX$X>X@X!.}.[.Q.m.u 6 ~ *.oXoX[.@X@X}.}.[.[.~.OX+XOX=X@X*X=X@XOX].@X:X@XQ.(.^.).@X=X@X[.^.OX$X[.|.[.,X|././.[.OX+XOX=X:XT./.@X",
"~.@XU.Q.[.(.=X:X}.(.Z.$.%.+.Q ` d.(.(.)..X=X,X=X@X*X(./.[.=X$X$X|.*X}.~.}.#X@X/.R.[.|.T..X@X=X[.[.[.}.!.#X@X+X$X@X|./.Q.R.@X:X;X",
"(.}.].(.OX:XoXR.(.=X{ s %.%.s 4 # =.~.:X|.[.}.].~.[.}./.~.[.Q.^.OX-X!.(.&X=X8X:X=X@X/.+X$X|.oX[.+X@X[.*X@X@XoX}.].@X@X[.}.~.^.!.",
"oX~.@X@X;XoX(.OX$XoXE.( i %.%.X.p 6 ;.`.[.$X$X:X@X/.[.:X$X#X#X+X[.}.&X3X$X}.].oXoX|.+X*X!.[.{.}.=X|.R./.^.[.+X$X>X|.}.,X&X+XoXOX",
"[.~.@X2X!.~.[.:XQ.[.(.#X~ +.%.%.+.X.a ] J..X.X}.|.@X$XOX=X5X9X7X>X5XQ.~.~.E.^.OX~.[./.[.oXOX.X}.~.).}.@XOX,X}.oX`.oX*X~.R.@X@X+X",
"1X:XOX}.(.$X1XoX}.}.$X/.@ & s $.&.&.&.i / / N.[.@X+X=X}.oX}.oX].[.[.=X:X$X@X,X}.(.}.=X3X4X2X2X1X@X@X,X@X.X[.+X(.oX}.[.[.<X@X@X3X",
"oX@X(.[.3X4X}.8X:X>XOXT.-.@ % 2 #.&.%.%.e X $ d.(.#X!.(.(.#X(.~.$X6X(.(.:X|.[.3X=X>XOX`.+X+X#X[.@X}.T.!././.:X3X}.+X#X(.}.(.~.Q.",
").oX=X@X).Q.Q.[.).}.!.L.F.;.# X 7 +.%.$.O.%   > p.+X[..X:X:X5X>X4XoXoXoX(.].(.}.~.[.!.L.~.[.^.OX|./.|.,X:X3XoX[.OX5X$X3X4X$XoX~.",
"4X%X2X7X7X*X).$X[.].OX@X@XT.F.W 4 5 o.%.#.t % . k i.=X:X3X~.R.~.3X9X6X7X5X=X.X=X].[.@X@X*X@X=XoX+X3X#X}.@X}./.=X%X[.+X~.~.[.#X:X",
"OXOX(./.[.7X6X:X$X:X4X6X=X$X=X<X) 4 5 X.@.$.r w   h i.T.}.:X=X3X$X(./.(./.OX,X=X$X:X3X7X=X@X1X<X@X(.}.[./.+X@X$X/.1X@X#X:X#X[.Q.",
"}.^.oXOX[.).Q.@X#X`.oX[.[.(.~.P.| / 4 $ e N t.Z f   f e.+X.XQ.#XoX#X$X#X*X.X^.OXOX`.+X(.}.(.~.~.+X,X8X7X,X=X@XoX5X(.oX.X>XOX3X3X",
"OX=X4X4X8X5X=XoXoX(.(.(.oX+X+X:XY.] 5 o   l 0.9 n h   : E K ! Q 2X4X4X1X+X:X:X+X|.(.(.(.}.#XoX:X[.].!.(.~.).].[.[..X=X=X[.[./..X",
"3XOX(.(.~.^.(.$X[.oX[.,X4X3X5X}.<XW.E .   X V 0.U v l . + O     p (.oX/.[./.[.#X[.oX[.,X8X1X8XoX$X+X:X$X+X[.,X3X7X:XXXoX(.5X:X1X",
")./.+X$X#X(.XX=X:X>X5X~.).~.}.,X1X#XP.6     o l q.M 2.,.C >   O @ 3 P.#X=X[.oX=X:X>X6X~.).~.oX:X3X@XoX=X7X,X+X[.(.[.[.:X3X[.oX+X",
"+X:X:X3X5X4X4X@X(.).Q.`.3X>X5XoXP./.P.s.7     o f 9.q.w.w.,.f O     < E.$X:X4X@X].).R.`.3X>X5XoXL./.(.(.{.[.}.[.^.#X@X@X#X@X.X~.",
"+X3X6X+XoXoXQ.~.oX'.).:XoX/.[.#X'.1X$X#XN.0       = S w.r.r.4.A       $ m.oXQ.~..X[.~.:X+X~.oXoX.X:X=X4X1X+X+X+X:X:X~.oX).(.|.$X",
"1XoX(.~.~.oX$X*X$X3X4XoX@X$X:X2X7X7XOX.X'.B.E     O S w.r.r.y.3.f       o k.OX$X$X4X3XoXOX#X:X3X7X8X#X[.-X3X3X@XoX~.#X$X#X@X[.[.",
"(.(.oX=X:X4X5X3X`.Q.).#X2X:X}.~.+X/.(.#X1XE.:.5   w V y.r.r.r.K c h .     X k.4X`.Q.).@X3X>X}.~.#X(./.#X1X~.}.[.[.#X3X#X=X$X#X(.",
":X=X@X=X}.^.).T.(.~.[.$XT.[./.1XoX'.1X5X[.!..Xp o   X F r.r.y.q.I x k O     o [ /./.[.:XT.[./.1X}..X<X5X.X!.+X+XOX&X#X#X>X@X5X=X",
"$X[..X(.[.@X=X.XoXoX3XR.}.@X3X.X#X:XoX}.^.[.=X) X     z J r.y.y.w.T x B +     o [ oX1XT.}.@X2X.X$X=XoX`.^.oX=X,X7X$X#X$X`.#X(.#X",
"(.[.:X=X=X=XoX1X4X X}.}.:X|.[.1X7XOX[..X:X7X5Xm.$   + 0.M G y.y.r.r.R z C +     o ` }.oX:X}.[.1X8XOX[.oX=X3X5X.X/.).oX@X#X@X$X(.",
".X*X1XoX~.!.(./.^.#X$X6XoX.X$X@X[.Q.[.OXOX(.[.oXB.<   * 3.F b w.r.r.r.G P C *     o ( 6XoX.X$X$X[.Q.(.$X#X(..X+X+X[.#XI.oXoX#X;X",
"@X@X}.[.}./.[.Q./.1X}.T.E.:X`.[.oXoX3X|..X/.[.[.;XP.8 o + 1.J b q.r.y.r.J 9 V =     o q P.>X`..X`.oX3X}..X/..X.X;XoX3X XQ.;X$X[.",
">X}.+X}.oX#X[.$X$XoX.XOX$X)..XoX3X3X@X+X=X=X:X4X~.^.L.q o .  .K I 0.r.r.y.K 0 B :       0 F.(.#X3X5XOX#X*X=X:X3X(.~.^.#X@X&XOX6X",
"/.+XOX@X,X,X@X*X~.#XoX}.(.#X:X,XOX/.#X=X3X7X,X].#XoX+XoXE o   S ..P 8.r.y.y.5.8 l >     o 5 I.,XoX/.$X=X3X8X,X[.oX+X+X@X].!.+X}.",
"OX[.!.!.).R.[.E.E.~.}.(.oXoX^.).[.+X=X[.T.(.!./.$X4X4XOXoX! o   C 5.9 4.y.y.y.5.8 l d       # c.[.-X*X[.Q.~.!.{.$X4X3XOX[./.(..X",
"+X|.|.[./.(.(.(.}.$X@X@X$X#X(.#XOX=X~.oX:X*X^.;X|.$X(./.(.[.{ X   m 2.P 2.r.y.r.4.8 n f       X c.:X~.(.$X#X!.*XoX#X(.~.(.}.>X3X",
"/.|.:X:X:X*X$X>X*X(.%X~.(.1X2X=X#X[./.@X8X@X,X[.(.(./.[.$X@X~._ o   k 3.I 5.r.r.y.8.9 v h       X c.}.$X5X@X:X}.(.(./.[.=X:X[.Q.",
"OX{.[.R.T.(.(.(.~.(.(.}.%X}.(.~.~.@X<X).E.E.!.~.Q.OX@X%X;X}.}.*X-.o   f 4.T K y.y.y.9.U v k O   X D.@X(.T.T.^.[.Q.OX:X;X$X[.~.[.",
"[./.!.[././.Q.(.oX#X[.#X}.T.E.E.OX=X!.@XOX}.[.#XoX$X}.~.[.].].|.~.f.o   d 7.R L r.r.u.w.I x l O   6 } ;.$X+X[.+X@X:X+X(.(.[.(.}.",
"[. X,X}.@X,X:X;XoX[.[.;X[.=XOX@X].^.W.$X$X[.[.@XP.E.E.^.[.+X[././.!.k.X   : 0.M G r.r.r.r.R U B + + j 0 =.+X+X,X)././.[.[.#XoX[.",
"|.[.!.[.~.[./.OXoX/.].~.Q.T.Q.E.W.XXOX/.K.K.C.L.^.E.L.I.+X$X^.Q.^./.(.P.$ o = 7.H G t.r.u.u.G G C > H g 3 z.T.T..X.XQ.Q.$X:X$X$X",
"/.[.}.[.[./.*X[.[.(.R.[.!.].Q.F.!.|.R.).Q.].T.{.).{.(.}.OXY.(.+X].(.T.H.c.5   * 3.J b w.r.r.r.4.5.z b $   h.W.+X}.@X@X:X>XQ.(.~.",
"@X*X@X+X@X:X~.oX=X*X*X].].E.~.+XL.C.H.P.W.].[.[.}.P.F.K.G.C.F.C.H.B.D.F.P.n.3 o O ,.L Y q.r.q.Y M 0 2.j _ D.=X=X:X/.R.Q.}.).].}.",
"=X@X$XOX*X}.oX:XR.~./.}.P.T.Y.P.F.D.F.P.Y.W.T.L.C.D.F.H.F.B.V.C.n.b.B.C.F.n.b.0 o . S F I 8.T F D P , ^ m.*X$X[.!.^.[.$X;X&X$X*X",
"/.~.(.~.].=XOXR.!./.P.L.!./.~./.H.M.n.v.l.v.v.x.n.M.n.c.s.d.s.g.g.l.v.g.h.m.v.s.0 o   v U D M L P l = # m.E.~.!.@X*X:X(.R.R.R.!.",
"[.~.~.[.R.$X}.@X=X(.R.T./.[.L.B.v.g.g.g.-.z.h.s.c.g.z.f.f.h.c.g.h.x.f.h.s.v.j.z.v._ _ 8 K A y M L f X _ d.~./.T.OX~.oX~.(.[.@X}.",
"OX*X].OXoXoX(.!.Q.}.@X|.{.C.B.N.b.h.g.s.v.f.g.v.z.s.h.b.v.b.g.b.v.f.h.c.j.j.g.d.s.h.b.! C g ; j b X ! d.!.Y.~.:X|.Q.+X:X@X:XQ.(.",
"@X~.;X}.(.$XoX(.).~.3XR.F.v.l.b.f.g.v.b.g.j.h.s.g.v.v.g.s.h.g.h.s.d.v.h.g.v.h.g.s.f.M.) O . ; 6.l.| j.F.C.Q.!.T.].*X=X].!.[.}.$X",
"/.$X!.(.[.oX1X$X$X+X^.I.Y.H.D.h.g.v.v.c.v.v.v.n.b.g.j.h.:.c.c.h.h.h.s.d.h.j.m.v.v.v.d.-.p 3 9 s.g.j.v.m.P.{.+X:X,X].OX{.T.oX|.!.",
".X~.|.*X;X@X$X[.$XoX+X}.}.F.M.B.n.M.h.g.s.g.f.d.s.d.g.b.b.h.h.d.h.h.v.v.b.c.v.h.v.h.v.h.:.=.a.x.v.m.g.h.b.L.T.W.R.~./.*X:X}.(.[.",
"$X.X/.^.(.~.~.Q.).^.[.}.T.Q.[.[.B.n.b.m.m.h.c.h.s.x.b.v.v.z.v.b.b.g.s.d.f.g.d.s.s.f.z.c.f.g.m.m.s.h.h.M.F.F.^.].T.OX*X:X;X}.$X>X",
"[.#X+X#XoX/.#X*X.X[.[.[.*X]./.T.F.Y.Y.T.L.Y.G.F.C.v.z.g.g.g.f.f.g.h.v.N.h.g.v.M.v.v.l.v.D.M.m.c.g.v.C.L.R.+X@X=X*X[.}.R.~.!.E.(.",
"=X$X[.3X4X+X[.[.&X@X3X@X(.T.I./.+X+XR.P.F.P.P.L.B.b.B.B.m.n.h.b.n.m.m.G.F.n.b.M.T.K.P.H.D.M.n.C.P.P.F.F.F.E.(.}./.T.~.I.~.[.T.oX",
"[.^.T./.T.R.}.=X>X[.[.[.+X/.I.E.U.T.R./.[.Y.E.L.G.E.!.T.I.H.G.P.C.B.F.F.C.n.F.^.}.P.P.Y./.P.F.H.C.F.P.E.[.R.{.!./.oX*X$X;XOX$X*X",
"~.oX+X+XXXOX3XOX[.[.*X>X[.=X>X@XOX[.@X*X[.+X@X:X[.T.T.Y.U.I.L.F.Y.L.E./.^.E.(./.T.T.[.#XQ.;X+X@X[.~.}.$X{.+X=X3X@X_.].(.~.(.^.(.",
"OX$X*XR.$X>X}.~.(.$X~.^.[.Q././.[.(.!.~..X].Q.[.}.}.T.E.T./.!.^./.R.~.L.].oXQ.T.E..XE.Q.].~.].]././.R.!..X(.~.[.@X@X]././.[.[.[.",
"*X}.R.|.OX(.^.#XoX[.#X$X+X[.^.}.}.]..X[.[.}.].,X(.(.(.|.+X*X|.OX+X|.T.{.].R.I.(.^./..X@X+X.X^.[.[.{.XX}.(.[.{.,X[.`.[.+X*X*X+X}.",
"[.[.+X).].}.@X.X=X=X5X(.|.:X:X,X,X8X,X3X@X@X:X(.$X=X;X@X{.[.oXOX[.!.+XR.^.[.oX[.*X=X3X(.oX*X>X1X,X4X,X3XOX@X:X(.@X=X=XOX].].+X@X",
".XoX!.[.^.[.].$X+X/./.[.@X(.oX[.R.[.[./.~.}./.~.[.(.].].].+X[.(.R.}.R./.Y././.$X*X].[.[.-X[.oX[.Q.{.[.~.[.[./.{.}.[.(.(.(.+X!.^.",
"oXOX=X1X:X,X,X}.OX$X=X>X}.oXoX/.+X+X[.oX$XoX@X|.[.(./.Q.*X>X1X=X].+XOX+X@X:X:X[.(.#X$X:X[.].(./.+X+X.X].}.{.+X|.@X(.].[.:X,X:XOX",
":XoX(.).T./.(.(.oX(.~.T.$X:X5X=X(.-X3X}.|.OX|.[.#X@X+X:X[./.(.}.,X|.[.+XOX[.#X.X#X,X=XoX#XOX<X5XOX$X5X=X+X=X@X+XOX$X$X:X}.~.+X=X",
"OX[.(.[.^.Q.~.(./.[.(.[.oXQ.[..X$X>X}.[.).].R.@X:X}.].[.[.+X[.~.!.~./.!.^.[.+X:X:X+X.X.X=X8X*X#X>X+X}.~.@X|.!.@X=X[.(.[.[..X#X[.",
"[..X=X=X=X@X@X$X$X@X@X>X/.[.#X@X3X/.[.@X>X@X@X@X(.].[.[.@X:X=X:X@XoX$XOXoX$X=X=X(.}.#X*XOX[..X=X[.^.[..X*X[.@X@X[./.[.+X#X:X$X*X"
};
