/* XPM */
static char *result[] = {
/* columns rows colors chars-per-pixel */
"64 64 210 2 ",
"   c #020202",
".  c #0C0C01",
"X  c #0B0B0B",
"o  c #070708",
"O  c #121202",
"+  c #1C1B01",
"@  c #19130C",
"#  c #1B1714",
"$  c #181715",
"%  c #1B0F0A",
"&  c #221F1A",
"*  c #31190D",
"=  c #242301",
"-  c #2C2A01",
";  c #2F2D09",
":  c #302F06",
">  c #363400",
",  c #3D3B01",
"<  c #31300D",
"1  c #29251F",
"2  c #3B391F",
"3  c #392217",
"4  c #2B2722",
"5  c #2B2B2B",
"6  c #282827",
"7  c #332C24",
"8  c #342B24",
"9  c #33322D",
"0  c #3D3B2D",
"q  c #3A3526",
"w  c #413E02",
"e  c #512D1B",
"r  c #543C14",
"t  c #6A361C",
"y  c #473C2D",
"u  c #5A3827",
"i  c #433C32",
"p  c #4C3E34",
"a  c #442B20",
"s  c #6A3B25",
"d  c #444202",
"f  c #4C4A02",
"g  c #44420F",
"h  c #524F00",
"j  c #524B08",
"k  c #5A5601",
"l  c #5A5605",
"z  c #46441B",
"x  c #4D4B1A",
"c  c #4D4A16",
"v  c #504E14",
"b  c #5D5B1F",
"n  c #575415",
"m  c #605D07",
"M  c #615D1B",
"N  c #7C4D1A",
"B  c #656102",
"V  c #6A6603",
"C  c #6E6A01",
"Z  c #6B680A",
"A  c #726E07",
"S  c #797500",
"D  c #7B7609",
"F  c #6B6714",
"G  c #68651C",
"H  c #686518",
"J  c #726E18",
"K  c #7A7615",
"L  c #797516",
"P  c #444225",
"I  c #4D4B25",
"U  c #48472A",
"Y  c #504E25",
"T  c #555323",
"R  c #5C5A21",
"E  c #494237",
"W  c #544C39",
"Q  c #595132",
"!  c #70503D",
"~  c #644430",
"^  c #716C25",
"/  c #474542",
"(  c #534E48",
")  c #5D5344",
"_  c #5A5247",
"`  c #655B4C",
"'  c #695C4B",
"]  c #6A6359",
"[  c #7B6D5A",
"{  c #776754",
"}  c #7E725F",
"|  c #847F00",
" . c #817D12",
".. c #864D30",
"X. c #985433",
"o. c #924A27",
"O. c #A7572F",
"+. c #A9572E",
"@. c #B25C31",
"#. c #B85F33",
"$. c #AD5930",
"%. c #B76339",
"&. c #8A7259",
"*. c #8C7C64",
"=. c #857762",
"-. c #907E66",
";. c #867D72",
":. c #868100",
">. c #8A8509",
",. c #918C02",
"<. c #918C08",
"1. c #969104",
"2. c #9B9609",
"3. c #898412",
"4. c #938C17",
"5. c #A39D01",
"6. c #A29D0B",
"7. c #AFA903",
"8. c #ABA506",
"9. c #B3AD05",
"0. c #BBB402",
"q. c #998C39",
"w. c #C6BF00",
"e. c #C4B504",
"r. c #C7C001",
"t. c #C9C204",
"y. c #A39448",
"u. c #B6A45E",
"i. c #948366",
"p. c #95856A",
"a. c #99866A",
"s. c #97896A",
"d. c #9B8A6C",
"f. c #9D8D71",
"g. c #9F9073",
"h. c #A18D6F",
"j. c #A0916F",
"k. c #A18F71",
"l. c #A49274",
"z. c #A99575",
"x. c #AC9977",
"c. c #A49478",
"v. c #AA9579",
"b. c #AD9B7A",
"n. c #B39D7C",
"m. c #B49A7A",
"M. c #B5A07D",
"N. c #C98C62",
"B. c #9F9584",
"V. c #B39D81",
"C. c #AFA18F",
"Z. c #B6A282",
"A. c #BCA583",
"S. c #BFAA89",
"D. c #BDA786",
"F. c #C2A785",
"G. c #C3A986",
"H. c #C4AC8A",
"J. c #CAAE8B",
"K. c #CAAC87",
"L. c #C6B08D",
"P. c #CDB28E",
"I. c #D1B48E",
"U. c #C6AF90",
"Y. c #CDB492",
"T. c #C9B493",
"R. c #D2B692",
"E. c #D5BA95",
"W. c #D9BB96",
"Q. c #D1B798",
"!. c #D6BC99",
"~. c #DABE9A",
"^. c #D8B794",
"/. c #E0BF97",
"(. c #E0BF9A",
"). c #DBBFA0",
"_. c #D5BFA2",
"`. c #D6C09A",
"'. c #DCC29D",
"]. c #D8C097",
"[. c #E1C39E",
"{. c #E4C89F",
"}. c #E9C49F",
"|. c #DEC4A1",
" X c #DFC9A2",
".X c #E3C6A1",
"XX c #E8C7A2",
"oX c #E5CAA4",
"OX c #EACCA5",
"+X c #E6CDA9",
"@X c #EBCEA9",
"#X c #F1CEA9",
"$X c #F0CEA7",
"%X c #ECD1A6",
"&X c #EDD2AA",
"*X c #E7D1A7",
"=X c #F1D1A7",
"-X c #F3D4AC",
";X c #F9D6AF",
":X c #F4D8AE",
">X c #EED6B1",
",X c #F5D6B1",
"<X c #F8D7B1",
"1X c #F6DAB2",
"2X c #FADCB4",
"3X c #FCDEB8",
"4X c #FCE1B6",
"5X c #FEE3BB",
"6X c #F7E0B4",
"7X c #FFEDC8",
/* pixels */
"E.'.'.[.{.;X1X[.W.^.^.W.XX1X:X[.].R.&X'.'.XX+X'.oXR. XXXOX'.oXR.+XoX'.oXOXOX[.[.[.[.~.[.].OX&X.X[.XXXX'.oXoXoX'.oX!.oXoX+X~.E.I.",
"'.@X~.(.P.^.R.~.XX&XT.'.@XE.I.P.oX-XE..X].T.I.|.%X&X-X'.[.[.'.:XoX'.W.~.I.R.W.[.+X%XY.~.%XOX[.~..XXXoX.X`.P.I.'.%X&X%XW.E.P..X.X",
"XX!..X.X'.Y.|.OXOXoX&X.X'.~.'.OX@X|.E.'.OX-X&X%X1X'.W.[.].~.E.R.R.'.oX%X'.R..XXXoX@X%XXX'.!.'.XXoX.XE.'.OX-X&X%X1X'.'..X[.!.'.[.",
"+X.X@X-XoXXX%XXXOX'.~.~.-X1X2X'.R.R.OX-X'.[.[.'.P.R.!.R.E.'.oX-X=XOX-XOX+X{.*XoXXX|.~.W.oX:X2X(.E.E.{.;X'..X[.'.P.R.].!.'.OX{.OX",
"'.[.W.~.OX-X;XJ.|.@XR.~.Q.J.W..X.XOX%XW.T.E.'.'.|.'.[.OXOX*XOX^.'.'.[.!.XX-X;XK.'.@XY.'.W.P.R.XX'.OX@XW.Y.R.].'.[.'.'.OX-X-XoX1X",
"W.[.!.'.W.^.^.[.oXS.+X.X@X@X@X@X@X[.W.>X:X{.{.=X;X2X-X{.{.[.P.'.XXXXR.|.!.^.E.[.oXH.+X'.OX@X#X@X-XW.!.&X-XoXoX&X;X2X=X}.E.W.'.W.",
"XX[.oX{.@X!.+X$X'.2XOX%X!.^.~.!.P.'.|.~.oX:X-XoXJ.!.E.{.].oX'.OX].E.&XOXXX].XX%X[.2XOX%XQ.W.|..XR.W. X].oX1X-XXXJ.E.E.'.'.'.'.XX",
"W.W.[.-X'..XOXJ.W.W.R.W.!.|.XXW.E.*XoX{.-XR.oX'.oXoXOXoXXX-X:XXX].E.%XOX'.[.@XP.E.W.E.R.!.!.'.!.~.oX{.OX;XR.[.'.oXoXOX%X:X&X:X'.",
"R.'.J.'.&XXX~..XR.U.'.I.'.-X-X'.;X&XE.R.oX'.E.E.1X@X~.E.~.W.R.[.'.;XE.].@XOX~.'.R.H.~.Y..XOX-X`.:X>XE.E.].[.E.E.3X%X'.R.Q.I.~.R.",
"E.XX'.'.'.~..X@X-XXX[.OX#XE.W.Y.'.E.'.oX{.oXOXXXE.W.[..X'.'.oX+X*XI.E.[.'.~.{.;X;XOXoXOX#X!.R.R.'.E.E.oXoX'.oX{.E.!.[..X|.%XOX'.",
"%X.X@X;XOXE.[.~.R..X@XOX~.!..X+X'.OXOX{.[.'.[.~.XXoX+X%XOX%X%X@X{.'.OX-X@XR.'.E.^.OX%XOX'.R.+X@X[.oX'.:X{.!.E.[.oXOXXX&X-XY.~.XX",
"W.+XK.R.'.~.%X;X[.(.] d.!.OX*XXXOX'.~.R.'.%X1X%XOX=X!.W.|.&X@X+X{.=X[.W.'.+XOXQ.R.'..XP.'.OX@X'.'.'.[.E.+XOX+X@XoX.XE.R.I.XX-X-X",
"~.[.'.W.XX&X.XI.~.V.y 6 ' &.;X(.^.W.!.;X.X'.[.'.!.'.'.E.W.'.R.!.XXoXW.~.#X&X2X%X%XOXR.+XOX{.XX'.{.OX'.%XOXOX.X.X'.XX*X'.'.E.E.E.",
".XW.XX@X-X.X~.XX@X}.N.$.#.+.y ) -.@X2X(.'.@X@X%XOXW..X-X+X+X+XoX'.{.OX1X@X[.~.[.[.oX@X*XW.'.!.[.&X{.E.E.!.`..X@X;X}.[.;X-XXXoXXX",
"[.W.OX1X^.!..X#XR.(.{ s #.#.s 8 # &.W.@X-X5X|.|..XOX@XXX@X3X7X5X;X2XR.~.W.Y.R.+XW.'.E.'..XXX|.[.'.^.[.OXXX:X'.[.[.[.*X^.I.OXOX.X",
",X#XOX'.W.@X,X.X)..XXX` e #.#...p 8 } 1X).~..X'.%XoX%X[.XX[. X'.'.'.&X-X%X@X,X.X~.[.-X1X2X1X,X,X{.OX-XOX|.'.oX'.oX'.'.'.:X@XoX1X",
".XXX~.'.1X2X[.2X%X<XXX'.~ X.#.#.O.X.a ` C.S.&X&X~.+XE.~.~.+X~.~.#X3X~.'.-X{.'.2X&X;XXX(.oXoX+X!.OX{.P.E.!.!.-X1X[.+X+X'.|.~.E.R.",
"W.XX&XXXW.R.E.'.W.[.R.z.@ * s @.@.%.%.s / ( c.'.'.|.'.'.-X;X2X<X<X{..X|.!.!.~..XW.[.E.G.~.'.R.@X[.W..X:X-X1X.X'.XX3X%X2X3X@X.XW.",
"2X-X<X5X4X%XR.@X'.~.XX'.-.@ % 3 O.#.#.#.a X X p.~.+X%X-X:XW.R.W.1X7X5X5X2X-X|.@X'.].XX*XOXOX&X.XoX1XoX[.oX[.!.&X@X'.oXR.W.'.OX,X",
"XX.X~.!.|.5X4X-X@X-X2X4XR.-.& X 8 X.#.@.o.* o , u.5X2XP..X%X%X2X@X~.!.W.Q.@X1X%X@X-X1X5X&XOX,X1XOX'.'..XW.+X+X%XW.;XXX+X-X+X'.I.",
".XR..XXX~.Q.E.OX+X(..X'.[.D.c.E 5 4 X.#.$.s % . k y.'.'.@XoX~..X.X+X@X+X@X'.E.OX+X/.XX'.[.~.W.W.oX;X1X5X1X*XXX|.3X~..X|.;XXX1X1X",
"+X#X2X3X4X2X&X[..XW.~.~..XXX|.%X( 6 6 ..O.@.r w   h y.:X+X~.oX@X2X2X3X-X+X&X&XoX[.~.~.~.|.oX.X&X'.`.W.`.~.W.'.'.'.|.-X&X'.'.!.|.",
"1X.XW.~.W.R.'.@X|.oX'.:X4X,X2XQ.;./ 5 $ e N e.Z f   f q.!..X@X;XW.XX.XW.|.W.'.+X'..X'.-X4X,X4X|.%XoX%X&XoX|.:X,X4X-X|. X'.2X-X,X",
"^.W.+X+X+X~. X&X%X;X3XW.^.W.[.-X_.] 4 o   m 5.0 n h   > W ^ Q E ,X|. X+X%X'..X&X-X;X5XW.^.W.|.-X1XXXXX&X4X1XoX'.!.'.|.&X1X'.XXoX",
"oX-X&X2X3X1X2XOXW.R.I.(.1X;X2XoXH.U.i .   . B 8.U x l O = O     i _.&X3X-X#X2XOX~.R.I.[.1X-X2XoXJ.!.~.].!.'.'.'.Q.+XOXOXXX+X'.W.",
"XX1X5XoX.X.X^.W..X.X^.,XoX!.'.+X).&XY.7     o l 9.M <.:.C >   O @ 7 R.|.+X.XR.W..X[.W.-XXXW.|.XX|.&X-X4X,XoXOXOX-X,X~.[.W.~.oX@X",
",X.X~.W.E..X@X&XXX2X1X.XXX@X-X<X7X3X!.p.8     o f 9.9.0.w.| f O     & V..X.XXX&X@X1X1X.X@X@X-X1X5X2XXX'.+X1X1XOX.X!.+X@X+XOX'.'.",
"~.~..X%X,X1X3X<X[.R.^.@X1X;X(.W..X!.!.!.v.7       - S 0.r.r.2.C       $ v.-X3X2X(.R.R.@X,X-X[.W.+X!.!.+X-XW.'.'.'.oX2X+X&X@X+X~.",
"-X&XXX>X[.R.W.P.~.!.'.-XP.'.!.,X[.~.>X2XQ.p.p     O S 0.w.w.w.<.f       o -.^.P.~.!.|.#XP.'.!.,X.X|.>X2X'.E.oX*XoX%X+X+X;X.X3X-X",
"@X'.'.~.|.oX@X|..X.X,XI.'.OX1X|.@X-XXX(.Q.~.p.4   , V w.w.w.w. .v h .     o -..X.XXX,XP.[.OX<X|.+X&XXX(.Q.|.&X:X7X&XXX@X(.@X'.+X",
"!.'.&X-X%X-X.X,X2X.X|.[.-X{.'.,X3XXX X X-X3X&X0 o   X F w.w.w.7.P v k O     X =.2X.X.X[.-X[.'.,X4XXX X|.-X2X2X|.W.R..X@X@XXX@X~.",
"oXOX1X.XW.!.!.!.R.@X@X3X[.|.@XOX'.R.~.XX+XW.|._ X     z J w.w.w.0.T x B O     o ' +X%X4X.X|.@X+X'.E.~.XX+X~.|..XoX'.+XH.|.oX.X-X",
"oXXX[.'..XE.|.R.!.,X'.P.Y.-X(.'.|.oX1X.X X!.|.v.$   + 8.G G w.r.r.w.R I V +     o ` '.J.R.-X[.|.~..X1X.X|.!.|.'.-X[.2X.XE.$X@X[.",
":X[.OX{..XoX[.%X@X.XoXXX@X^.|.+X1X2XXXoX@X%X-X1Xv.1   = 1.F b 0.r.w.r.G P C =     o W @X@XW.'.+X1X2XXX+X@X%X-X2X~.R.R.oXOX@XXX4X",
"'.oXXXoX;X-XOX%XW.+X.X[.~.+X&X-XXX!.+X-X2X3X:X'.XXH.7   + ,.J T 9.w.w.w.J 0 V -     o i R.+X-X-XXX!.@X-X1X4X:X'.+XoXoXOX'.R.oX[.",
"OX'.E.E.W.Y.!.R.Y.W.[.~..X.X^.R.'.oX%X'.Y.!.E.`.%X2XOXi   O | L I 8.r.w.r.K q B >       7 Y.^.R.'.*X%X!.R.~.E.!.OX1X2XXX'.!.~.|.",
"oX'.oX'.!.~.'.!.'.@XOXXX@X@X~.+XXX&X~.oX-X*XR.-XoX@X~.R.E o   S  .P 6.r.r.r.3.9 l ,       4 Z.oXXX%XW.~.@X*XE.%X.X@X'.R.`.[.,X1X",
"W.oX-X=X-X%X@X;X@X(.-XW.W.,X<X>XoX'.!.OX4XOX&X'.!.'.Q.|.OX) .   C >.0 2.r.r.r.3.9 n d     o # A.+X~.|.@X2XOX-X[.~.~.!.'.%X-X[.R.",
"oXW.'.I.P.~.W.~.!.W.~.[.#X[.~.W.W.@X&XW.R.T.W.~.R.XX@X-X%X.X' o   B >.P 4.w.r.r.2.9 n f       X p.XX%XW.Y.T.W.W.R.+X-X=XOX'.W.'.",
"'.'.R.'.!.!.R.!.oX@X~.+X[.J.Y.P.+X%XE.oXXX'.'..X{.@X'.W.~.'.'.{ o   k 1.I 3.w.r.w.8.q n h       X V.'.OX@X.X'.+XOX-XXX'.~.|.~.'.",
"'.}.-X[.@X-X-X-X.X'.'.=X'.%X@XOX].R.Y.@X@X'.'.OXJ.Y.Y.R.|.+X'.!.[ o   f 2.n K w.w.r.8.U x k .   X z.Y.%X:XoXoX;XR.W.`.~.|.+X.X'.",
"{.'.^.'.W.'.W.{..X!.'.E.R.P.R.T.T. X.X!.G.G.A.F.Y.Y.H.H.oXXXR.R.R.*.X   , 8.R L r.w.r.0.T x m O   7 *.} P.P.P.P.|.|.R.^.@X-X%XOX",
"!.'.{.'.'.!.%X'.|.~.I.'.!.`.R.D.R.[.P.^.R.].L.!.I.'.~.[.+XP.W.oX'.~.*.X   > 8.M G r.r.r.t.R x V + + v 2 [ oX!.+X[.XXOX-X1XI.~.~.",
"OX*XOXoX*X-XE.XX%X%X@X].'.P.R.oXJ.A.D.H.T.].'.'.'.J.D.F.S.n.A.M.D.n.Z.i.$   - 5.G M w.r.t.t.R H A , F g 4 Z.%X%X-XW.I.R.'.W.~.'.",
"%XOX@X.X%X'.XX%XI.!.E..XJ.P.P.H.A.Z.Z.K.L.Y.Y.G.M.Z.A.D.A.n.m.M.b.z.M.Z.d.&   = 1.J b 9.w.w.w.4. .g n $   d.[.[.R.E.'.@X-X$X@X@X",
"E.W.~.W.~.%XXXR.E.W.H.G.R.E.E.!.D.b.x.l.c.g.j.j.x.x.x.k.i.i.i.s.d.f.h.s.d.p.1 o + :.L Y 7.w.9.Y M y ,.n ' l.W.E.OX*X;X~.I.I.I.R.",
"[.!.W.'.I.@X.XOX%X~.P.T.].'.H.m.l.s.s.a.=.h.d.p.l.a.k.a.d.d.h.d.d.l.i.s.i.c.p.7 o . S F U 6.T F D P < ^ =.'.'.Y.XX~..XW.W.'.OX[.",
"XX%X'.XX.X|.'.^.E.[.%X[.~.Z.b.c.l.j.s.s.l.i.s.z.d.i.f.z.k.z.s.z.l.s.d.l.k.f.s.a.q o o v U D G L y l - # c.G.W.=X[.R.oX-X@X-XR.~.",
"@X~.=X{.~.@X'.~.^.W.,XR.Z.z.f.z.a.s.c.z.s.d.s.i.s.c.z.s.i.a.s.d.i.s.l.d.d.l.d.p.i.' [ 9 L A 0 M L f X ' d.R.E.P.'.*X&X'.R.'.'.-X",
"E.@XR.~.'.[.1X@X@XoXR.J.T.A.Z.d.a.l.c.h.l.z.z.b.z.p.d.s.i.h.f.d.h.s.i.p.s.f.v.l.k.g.p.W Z d : j n X W i.G.'.oX-X=X'.XX].P..X{.E.",
"|.!.XXOX-XOXOX[.@X.X+X.X[.D.b.b.x.b.d.s.i.s.a.i.i.s.s.z.z.d.f.p.d.d.g.l.z.k.l.d.l.d.f.) O . - 4.B.i.i.d.z.D.P.Y.R.E.].*X-X[.~.'.",
"OX|.!.E.~.~.W.R.^.R.'.[.I.R.'.'.n.x.z.z.z.d.k.f.i.l.l.l.c.d.l.z.z.s.p.p.a.d.p.i.a.s.k.a.y 4 0 l.p.d.d.v.A.D.!.].P.XX@X-X=X[.@X-X",
"|.+XoX+X.XE.+X%X|.'.'.~.OX'.W.P.A.L.L.P.J.L.L.Z.n.l.h.s.s.s.p.a.s.d.l.l.f.s.g.b.z.l.l.l.p.p.f.k.s.c.M.H.I.{.@X*X=X'.'.R.W.E.Y.~.",
"&XOX[.1X1X*X'.'.#XOX1XOX].T.J.Q.oX|.E.H.A.S.H.G.b.x.n.n.z.v.d.l.b.z.v.S.A.b.z.b.H.F.H.A.Z.b.m.Z.L.S.A.A.A.Y.W.[.W.P.W.J.W.'.P..X",
"'.R.P.Q.P.P.[.&X:X'.'.|.+XE.P.Y.K.P.Y.!.`.L.Y.G.H.P.E.P.P.D.S.J.M.n.Z.A.M.x.Z.R.'.J.H.U.!.H.A.S.n.D.J.Y.'.Y.].E.!..XOX%X=X+X@X%X",
"!..XoX+XoXXX1XXX~.[.%X;X'.%X;XOXXX[.OX%X'.XX@X%X'.P.P.L.K.J.G.D.J.H.Y.!.R.Y.|.!.P.P.'.+XR.%XoXoX].E.[.@X].oX&X1XOX~.~.~.W.~.R.~.",
"XX$X@XI.@X<X.X~.~.%XR.W.'.Y.~.W.'.'.E.W.|.].W.~..X[.P.T.T.].!.R.E.E.W.G.'..XE.L.Y.'.T.R.'.E.!.].].].R.^.'.!.W.'.OXOXW.!.E.'.|.'.",
"OX[.I.{.+X~.R.XX.X|.+X@XoX|.R.'.[.].'.'.'.'.!.1X~.~.].{.*X%X'.XXoX{.P.].~.P.J.'.Q.!.'.OXoX|.W.'.'.`.'.[.'.'.!.:X'.(.'.OX*X%XoX[.",
"'.'.+XR.!.[.+X|.&X&X2X~..X%X1X,X:X1X:X1XOXOX-X~.@X%X-XXXW.'.XX.XW.E.oXI.R.'..X~.+X&X1X'.oX%X;X,X:X1X:X1XOXOX-X'.XX%X-X+X!.'.oXOX",
"|..XE.'.R.'.].@XoX!.!.|.OX~.|.|.E.'.'.E.~.[.W.W.'.'.!.].'.XX'.~.R.|.R.E.L.!.!.@X*X'.'.'.*X'..X'.P.'.'.E.~.[.!.]..X'.~.!.'.oX!.R.",
".X+X@X-X-X:X;X{.XX@X-X-X[..X.X!.@XoX'.oXOXoXOX[.'.~.!.R.%X;X,X&X!.OXXXoXOX&X-X'.~.+XOX-X'.`._.!.OX+X!.|.'.'.{.{.+X'.'.'.%X-X>XOX",
"-X.X~.^.P.!.!.~..XW.W.P.$X-X2X&X~.*X,X'.[.OX.X[.+XXXoX-X'.~.~.[.-X[.'.oXoX.X@X|.+X:X&X.X+XoX-X2XXX%X2X&XXX&XOXoXXXOXOX-X[.~.oX%X",
".X'.'.'.E.Y.^.~.!.~.~.'..XR.|. X%X-X[.'.W.'.I.OX%X[.'.~.'.|.'.E.E.'.!.!.^.'.oX&X-XoX).|.&X4X%X@X,XoX|.E.OXXXE.oX&X'.~.'.'..X+X'.",
"[.'.&X-X&X@X@X@X@X%X@X;X~.~.+X+X1XW.'.OX-X+XOX+X'.].'.|.OX-X-X-X*X[.@XoX.X+X@X-X'..XXX%XoX'.|.&X'.R.'.oX*X'.%XOX'.E.'.oX+X-XOX@X"
};
