/* XPM */
static char *result[] = {
/* columns rows colors chars-per-pixel */
"64 64 215 2 ",
"   c #020202",
".  c #0C0C01",
"X  c #0B0B0B",
"o  c #070708",
"O  c #160F0B",
"+  c #121202",
"@  c #1C1B01",
"#  c #14120D",
"$  c #1F130D",
"%  c #161413",
"&  c #1C1917",
"*  c #221D18",
"=  c #31190D",
"-  c #242301",
";  c #2C2A01",
":  c #2F2D09",
">  c #302F06",
",  c #363400",
"<  c #3D3B01",
"1  c #31300D",
"2  c #25211D",
"3  c #2D281D",
"4  c #3B391F",
"5  c #392217",
"6  c #2E2A24",
"7  c #2B2B2B",
"8  c #282725",
"9  c #332A23",
"0  c #342B24",
"q  c #33332D",
"w  c #3B342B",
"e  c #3E3C2C",
"r  c #3C3B25",
"t  c #343331",
"y  c #413E02",
"u  c #512D1B",
"i  c #543C14",
"p  c #6A361C",
"a  c #413C2C",
"s  c #4C372D",
"d  c #5A3827",
"f  c #483D33",
"g  c #442B20",
"h  c #6A3B25",
"j  c #444202",
"k  c #4C4A02",
"l  c #44420F",
"z  c #524F00",
"x  c #524B08",
"c  c #5A5601",
"v  c #5A5605",
"b  c #46441B",
"n  c #4D4B1A",
"m  c #4D4A16",
"M  c #504E14",
"N  c #595618",
"B  c #605D07",
"V  c #625E1B",
"C  c #7C4D1A",
"Z  c #656102",
"A  c #6A6603",
"S  c #6E6A01",
"D  c #6B680A",
"F  c #726E07",
"G  c #797500",
"H  c #7B7609",
"J  c #6B6714",
"K  c #68651C",
"L  c #686518",
"P  c #726E18",
"I  c #7A7615",
"U  c #797516",
"Y  c #444225",
"T  c #4D4B25",
"R  c #48472A",
"E  c #504E25",
"W  c #555323",
"Q  c #5C5A21",
"!  c #4A4235",
"~  c #474238",
"^  c #544D33",
"/  c #6A4A37",
"(  c #605738",
")  c #6D6927",
"_  c gray26",
"`  c #534C43",
"'  c #5C5244",
"]  c #575047",
"[  c #66594A",
"{  c #6F604E",
"}  c #70624F",
"|  c #696358",
" . c #756855",
".. c #7D7058",
"X. c #847F00",
"o. c #817D12",
"O. c #864D30",
"+. c #985433",
"@. c #924A27",
"#. c #A7572F",
"$. c #A9572E",
"%. c #B25C31",
"&. c #B85F33",
"*. c #AD5930",
"=. c #817A28",
"-. c #B76339",
";. c #84745D",
":. c #867A5F",
">. c #8C6E56",
",. c #8A7A64",
"<. c #847C70",
"1. c #868100",
"2. c #8A8509",
"3. c #918C02",
"4. c #918C08",
"5. c #969104",
"6. c #9B9609",
"7. c #898412",
"8. c #938C16",
"9. c #A39D01",
"0. c #A29D0B",
"q. c #AFA903",
"w. c #ABA506",
"e. c #B3AD05",
"r. c #BBB402",
"t. c #9E903C",
"y. c #C6BF00",
"u. c #C4B504",
"i. c #C7C001",
"p. c #C9C204",
"a. c #9D9042",
"s. c #A7974E",
"d. c #B1A15C",
"f. c #948366",
"g. c #968569",
"h. c #99866A",
"j. c #97896A",
"k. c #9B8A6C",
"l. c #9E8E71",
"z. c #9F9073",
"x. c #A18D6E",
"c. c #A0916F",
"v. c #A28E71",
"b. c #A49374",
"n. c #A99575",
"m. c #AC9977",
"M. c #A99679",
"N. c #AD9A7B",
"B. c #A29578",
"V. c #B39D7C",
"C. c #B49A7A",
"Z. c #B5A07D",
"A. c #CC8F65",
"S. c #B39E82",
"D. c #BB9D81",
"F. c #A09584",
"G. c #B6A181",
"H. c #BCA583",
"J. c #BFAA89",
"K. c #BDA687",
"L. c #B3A490",
"P. c #C2A785",
"I. c #C3A986",
"U. c #C3AC8A",
"Y. c #CAAE8B",
"T. c #CAAC87",
"R. c #C6B08D",
"E. c #CCB28E",
"W. c #D2B48E",
"Q. c #C5B190",
"!. c #CDB492",
"~. c #CFB995",
"^. c #D2B692",
"/. c #D5BA95",
"(. c #D9BB96",
"). c #D1B798",
"_. c #D6BC99",
"`. c #DABE9A",
"'. c #D8B794",
"]. c #E0BF97",
"[. c #E0BF9A",
"{. c #DABFA0",
"}. c #D6C09B",
"|. c #DCC29D",
" X c #D8C097",
".X c #E2C39E",
"XX c #E4C89F",
"oX c #E9C59F",
"OX c #DEC4A1",
"+X c #DFC9A3",
"@X c #E3C6A1",
"#X c #E8C7A2",
"$X c #E5CAA3",
"%X c #EACCA5",
"&X c #E6CDA9",
"*X c #EBCEA9",
"=X c #F1CEA9",
"-X c #F0CEA7",
";X c #ECD0A6",
":X c #EDD2AB",
">X c #E7D1A7",
",X c #F1D1A7",
"<X c #F3D4AC",
"1X c #F8D6AF",
"2X c #F4D8AE",
"3X c #EED6B1",
"4X c #F5D6B1",
"5X c #F8D7B1",
"6X c #F6DAB2",
"7X c #FADCB4",
"8X c #FBDEB8",
"9X c #FCE1B6",
"0X c #FEE3BB",
"qX c #F7E0B4",
"wX c #FFEDC8",
/* pixels */
"/.|.|..XoX1X7XoX(./.'.(.&X2X1X`.(.~.:X|.|.$X$X@X+X^.@X$X%X|.$X^.>X&X X$X%X%X.X.X$X.X`..X|.%X:X.X.X&X.X.XXX$X$XOX$X_.$X$X%X X(.!.",
"|.*X`.[.E.^.^.`.#X*X!. X*X/.^.W.$X<X_..X}.E.W.|.:X:X,X|.@X|.|.2X$X|.`.`.^.^.'..X@X*XW._.;X$X.X`.@X%X.X.X}.E.W.|.>X:X;X(.^.!.@X@X",
"#X_.@X@X|.!.|.%X%X&X:X$X|.`.|.%X*XOX_.|.%X:X:X:X6X_.(..X(.(.(./.W.|.$X:X.X).@X%X$X%X:XXX|._.|.#X$X$X(.|.%X<X:X:X4X|.|.@X.X X|..X",
"&X@X*X<X$X#X:X%X%X|.`.'.<X7X7X|.^.(.@X<X.X.X.X|.E._.^._._.`.$X<X,X%X,X%X%X.X>X$X%XOX`._.%X<X7X[.^.^.$X1X|.@X.X|.W.^. X_.|.%X.X*X",
"|..X'.|.*X<X1XY.{.*X).`.~.Y.(.@X@X*X:X(.!./. X|..X|..X%X%X;X%X'.|. X.X_.XX<X1XY.|.*X^.|.^.^.(.$XOX>X:X).W.^. X|..X|.|.%X,X:X%X6X",
"(..X`. X(.'.^..X&XJ.&XOX*X*X*X*X,X]._.:X2XXX$X,X2X7X<XXXXX|.E.|.%X$X^.|.(./.^..X$XJ.$XOX%X*X#X*X=X].(.:X2X$X$X;X1X7X,XXX(.(. X`.",
"%X.X$X$X*X}.&X-X.X7X*X*X_.(.`._.E.|.OX_.@X2X<X$XY.(.(..X X$X.X%X`.(.:X%X%X_.%X*X.X9X*X%X(._.OX$X^. X+X_.$X4X1X$XY.^.(..X|.|.|.&X",
"'.'..X<X`.@X%XY.'.'.[ v.E.{.#X(._.>X$X%X,X^.XX|.$X&X%X$X$X,X2X$X X/.*X%X|..X-XY.'._.^.^._.(.|.'.(.$X%XXX1X^..X|.$X&X%X>X<X:X<X.X",
"^.`.Y.|.:X%X`.@X(.g.s 7 / >.1X`.1X:X/.'.&X.X(./.4X:X`./. X^./.@X|.1X^. X%X%X`.OX^.U._.^.@X%X<X X<X3X(./.`.XX_.^.7X*X X).).!.`.W.",
"(.%X|.|.`.`.@X*X=X&XA.%.-.*.s ' ,.).`.@X.X.X$X*X_.'..X@X|.|.$X&X%XW. XXX|.|.@X1X1X%XXX&X=X_.^.).|././.$X$X X$X$X_._..X@X.X,X%X.X",
"*XOX*X1X%X^..X`.W.@X;.h &.&.h 7 & ;.*X@X.X|.|.(.$X$X$X:X;X:X:X%X$X X%X<X*X^.|.^.'.%X>X%X|.).%X*XXX$X|.2XXX_._.|.@X%X$X:X*X^._.%X",
"'.&XT.^.|.|.-X<X.X[.(.! d &.&.O.f 9  ._.OX,X6X:X%X,X_.(..X:X*X*XXX;X.X'.OX$X%X_./.`.@XW.|.%X*X|.|.|..X/.&X%X$X*X%X.X(.^.^.%X<X,X",
"|..X X`.%X:X.XW.|.,X@X&X/ @.-.&.+.+.g | L.U..X|.(.|.|.(.'.|.^.).$X%X(.`.<X:X6X,X,X$X(.&X%X.X@X|.XX*X|.;X%X#X@X@X|..X%X|..X'.^.(.",
".X(.*X%X,X@X`.&X*X.X|.H.# = p &.&.&.-.d _ ` S.,X%X_.@X,X*X&X&X&X.X.X#X7X:X[.`..X.X@X>X>X(.|.`..X:X|.W._.(.}.$X*X1X%X.X1X-X$X$X$X",
"`.(.%X5X(.(.|.1X/.|.`.{.;.% $ 5 $.&.&.&.u # X ,..X%X*X$X*X8XwXwX1X7X^.`._.!.).&X(.|.(.|.@X#XOX|.|.'.XX%X$X1XOX.X.X.X>X(.W.%X*X@X",
"4X1X#X.X`.*X4X.X`..X=X7X`.h.* O 9 +.&.%.@.$   y d.&X:X.X#X[.`.OX|.|.:X,X*X*X1X.X|..X:X4X7X7X4X4XXX%X<X%XOX|.$X|.@X.X X|.2X*X&X4X",
".X%X(.|.4X7X.X6X<X7X@X`..XR.G.f 7 8 O.&.*.h O . c s.(.|.`.&X`.(.*X8X[.`.<X@X|.6X<X5X$X[.@X$X&X`.%X.XW.(.`._.<X6X.X$X$X.X|.`.'./.",
"(.#X:X%X'.(./.|.'..X(.P.`..X!.@X] 7 7 O.#.%.i y   k a.|.,X1X8X5X5X@X@X@X`. X`..X(.`./.I.`.+X^.#XXX_.$X:X<X4X.X|.%X0X*X7X7X*X@X(.",
"6X<X5X0X9X>X).*X|. X#X*X:X%X:X_.<._ 7 % u C u.D k   k t.>X~.U.(.6X0X8X0X8X:XOX:X X X$X%X*X%X*X$X>X4X&X.X%X.X`.:X*X|.$X).`.|.%X4X",
"#X@X`._..X0X9X<X*X,X7X9X:X%X1X6X).| 7 o   v w.a N z   , ~ =.( ^ *XOX_._._.*X<X:X*X1X7X9X<X%X3X6X%X X.X|.).&X*X>X(.<X$X*X,X&X|.E.",
".X)..X%X X)./.#X&X].@X|..X_.(._.&X@X! .   o A w.Y M c . @ +   o f _.&X&X*X|.(.%X&X[.@X|..X`._.(.&X1X6X0X2X:X$XOX8X`.@XOX4X$X6X6X",
"%X=X7X7X0X7X<XXX@X`.`.`.@X$X$X,X`. XZ.3     o v e.L 4.1.S <   + # q `.1X&X:X:X$X.X`.`.`.OX$X$X,X`. X/.`.(.'.|..X|.OX:X:X.X|._.OX",
"4X$X(.`.'.).`.*X|.@X|.2X7X4X7X@X*X$X|.l.9     o x q.e.r.y.X.k +     2 M.OX(.|.&X|.$X.X<X7X4X7X@X:X+X,X>X$X$X2X4X0X,XOX$X|.6X<X4X",
"'._.&X*X&X`.+X:X:X7X7X`.(.'.|.1X4X%X$X_.S.w       ; G r.y.y.6.S       % N.|.@X:X<X1X7X`.(.(..X<X5X%X&X*X0X2X$X X`.|.|.<X6X|.@X%X",
"$X<X<X6X8X7X7X%X`.^.^.[.2X<X7X$XI._.|._.Q.l.f     . G r.y.y.y.5.k       o v.7X*X X'.^..X1X<X8X&XI._.|. X}.|.|.|.).&X%X%X&X%X|.^.",
"$X4X9X%X#X@X^.'.OX@X).1X&X_..X&X|.<X:X9X4X|.g.2   < A y.y.y.y.I M z .     o ;.(.OX.X).1XXX_.`.%XOX<X<X7X<X$X%X%X<X4X(.@X(.`.$X*X",
"<X@X`.(.^.$X%X*X*X7X5X@X#X*X<X5X0X7X&X|.*X4X*Xa o   X J y.y.y.e.R M c +     o ;.*X6X4X.X%X%X,X5X0X8X$X|.>X4X4X%X@X_.&X*X%X#X.X|.",
"`.|.@X>X1X7X7X7X.XW.^.*X4X1X.X(.&X_.`.&X1X).OX] o     b P y.y.y.r.W n Z +     o } ^.'.*X7X<X@X_.$X_._.&X1X_.|.|.|.$X7X&X3X*X&X`.",
"<X3X%X:X@X^.).W.`.(.}.=X!.|._.4X.X|.3X7X.X^.*XS.%   - 9.L K y.i.y.y.V Y S @     o ' }.-XE.|._.4X@XOX3X7XOX^.&X>X%X*X*X&X4X#X7X<X",
"%X|.OX`.|.&X:XOX@X@X1X^..X%X2XOX>X<X@X@X).@X:X:XR.2   - 5.L Q r.y.i.i.K Y S -     o ' W..X%X5XOX*X:X&X[.).@X:X2XwX*X&X*X.X&X|.&X",
"`.|.<X:X:X:X@X4X7X@X.XXX,X@X|.4X8X#X$X@X<X7X7XOX_.V.9 o @ 3.P N e.y.y.y.P r A ;     o f @X@X|.4X7X%X|.OX4X6X7XOX).^.@X*X*X$X*X`.",
"@X%X4X@X(.(._._.^.&X*X7X@X@X:X&X|.^._.#X&X(.OX@X$X|.).w o + X.I T w.i.y.i.U r Z ,     o w Q.*X&X|.(.`.#X#X`.OX@X%X X$XY.OX$X$X,X",
"$X%X|.|..X_..X^._.4X|.E.^.<X.X|.|.$X6X.X+X_.OX|.<X.X6XoX! o   G o.R 0.i.i.i.7.q v <       6 D.OXOX+X4XoXOX_.OX|.,X@X4XoX/.*X*X.X",
"1X.X%XXX$X$X|.*X*X@X@X%X#X).|.%X7X7X*X$X*X:X<X6X(./.^.$XoX' o   S 7.e 6.y.y.i.7.t v j       & S.4X7X%X$X*X:X<X6X`.^.).@X%X,XXX9X",
"_.$X$XXX<X<X*X*X'.&X@X.X`.%X<X<X#X(.&X:X6X9X4X|.&X&X$XXX|./.[ o   B 4.Y 7.y.i.i.6.t N k       X b._.&X<X6X9X4X X&X&X$X%X`._.$X.X",
"%X|.(.(.(.W. X).!._.@X`.@X@X).).`.&X:X|.!.`.^.}.*X1X7X%XXX|.OX .o   c 3.T 7.i.y.y.0.r N z       X N.:X}.(. X^.}.%X6X7X%X|._.`.|.",
"$X.X$X|._.|.`.`..X*X%X$X=X*X`.$X$X:X`.@X,X>X^.<X.X%X`._.`. X8X1X,.o   k 9.W I i.y.i.w.R M c .   o K.^.`.*X*X^.<X@X%X`.(.`..X1X4X",
"_.XX<X,X,X;X*X4X;X[.=X].`.<X4X3X$X|._.%X9X%X:X|. X|._.OX*X%X`.(.OXf.o   y 9.N U y.y.i.r.T M B +   3 ..,.7X%X<X|.`.`._.|.:X<X|.^.",
"$X|.|.W.E.`.`.`.(._.`..X=X.X.X(.^.%X<X/.E.!.^.`.!.%X#X<X,X@X.X;X$X*Xl.X   , w.V K y.i.i.i.Q T Z @ @ M r | !.(.(.^.#X,X<X>X|.(..X",
"|. X^.|._._.^._.@X*X`.&X.XY.!.R.&X>X(.%X%X.X.X&X@X*X.X'.`. X|.$X(.*X.Xn.&   ; 9.L K y.i.i.p.Q L S j L l 6 V.|.&X%X<X$X|.`.|.`.|.",
"|.oX<X.X%X<X,X1X$X|.|.,X|.:X%X$X|.^.!.%X:X|.|.%XY.Q.~.).|.&X X`.(.^.|.*XK.8   - 3.P N r.y.y.p.6.2.b N &   k.|.2X).(.}.`.OX*XOX`.",
".X.X'.|. X.X_.XX@X'. X(.^.E.'.E.!.OX$X`.P.P.H.I.~.!.U.T.@X%X^.).^._.|.4X&X^.w o + 1.U W q.y.e.^ N e 4.v [ x.E.E.OXOX!.(.:X<X:X*X",
"_.|..X|.|._.;X X|.|.E..X_._.).K./..XE.^.~.}.R._.'. X`..X$XY.`.+X X`.R.J.U.U.P.a   . G J T 0.W J H Y 1 ) M.&X_.$X.X%X%X,X4XW.`.(.",
"%X>X*X$X&X,X`.#X*X:X>X X X!./.$XU.H.H.Y.E.}.|.|..XR.H.P.I.V.H.G.J.V.G.H.J.U.D.U.! o o M R H V U Y B ; & V.|.:X:X<X'.^.^.|.(.`..X",
"<X%X%X&X:X|.$X,XW._._..XY.R.Y.I.H.G.G.U.R.!.!.I.S.Z.H.K.H.V.m.Z.m.n.V.G.H.m.m.V.x.{  .t I F r V U j X ,.U.*X*X.X^./.|.#X,X-X*X*X",
"_.'.`.'.(.:X#X^./._.U.I.^._._.`.J.N.m.n.B.c.c.c.m.m.N.x.f.f.g.k.k.z.x.k.l.n.b.f.k.k.g.^ S l : x V # } V.~.(.(./.*X:X<X`.W.^.W./.",
"|._.'.|.W.*X@X%X;X`.W.E.}.|.U.V.b.k.k.f.:.x.k.g.x.k.x.h.h.k.k.k.k.b.f.j.f.b.l.b.b.k.h.' O . > 8.F.,.v.H.N. X X!.$X(.@X(.`. X%X.X",
"XX;X`.%X@X@X`././..X%X.X|.Z.N.B.b.k.j.f.n.f.k.b.x.f.l.n.b.n.k.n.b.h.k.b.l.k.j.g.f.l.n.k.! 3 w f.b.b.b.m.^.R.(.,X.X^.$X1X*X<X^.`.",
",X`.-X.X|.*X.X`.).'.4X^.G.n.b.n.h.h.b.b.k.l.k.f.j.b.n.j.f.k.g.k.f.g.b.v.j.b.k.j.f.k.m.k.....f.n.k.k.n.H.G.!._.E. X;X<X}.W.|.@X*X",
"/.*X^.(.|..X4X*X*X>X^.Y.Q.H.G.k.k.b.n.l.b.b.n.n.n.j.l.j.f.k.v.k.k.k.f.g.l.l.M.b.b.z.g.f.z.b.N.j.h.x.n.M.J.(.$X<X,X|.&X XE.@XXX'.",
"|._.$X:X<X%X%X.X*X.X&X.X.XH.N.N.m.m.k.k.f.g.f.j.f.g.j.b.M.k.l.g.k.k.v.b.n.v.b.k.b.k.b.k.n.g.f.k.b.M.g.k.n.J.E.!.^.(. X;X<X.X`.|.",
"%XOX(./.`.(./.^.^.'..X.XW.!.$X XV.m.n.M.M.k.v.l.f.b.b.b.n.k.v.n.n.k.f.f.j.h.g.f.g.h.k.b.k.k.m.M.f.k.k.M.H.J.^.}.E.$X*X,X,X.X*X<X",
"OX&X&X&X|./.&X*XOX`.|.|.%X X_.!.Z.R.R.E.U.R.J.H.Z.b.x.k.h.j.h.h.g.k.z.B.l.j.b.m.n.b.b.b.Z.N.M.v.k.n.Z.I.^.XX%X:X<X|.|.W.(./.!. X",
":X;X.X7X7X;X|.|.*X%X7X%X`.E.T._.&X@X^.U.H.I.U.P.N.m.V.V.n.n.k.n.M.m.M.J.K.m.b.N.U.P.U.K.H.N.m.G.J.U.H.H.H.!.`..X_.E.'.Y._..XE.@X",
"|.).E.).E.W..X:X2X.X|.OX%X/.Q.).T.E.!./.|.R.!.U.I.!./.!.E.J.J.U.Z.V.H.H.V.m.G.^.@XU.U.U.).R.H.K.Z.H.U.!.|.E.}.W._..X%X,X,XXX*X:X",
"_.@X$X$XOX$X4X%X|.[.;X1X`.;X1X%X%X|.%X,X|.$X*X,X|.E.E.R.I.Y.I.H.U.I.!._.~.!.OX(.!.R.|.*X^.,X$X&X|.(..X*X X>X:X7XoX|.`.`.`.`.).`.",
"$X-X-XW.*X1X.X(.`.*X^.(.`.!. X_.OX}.^.(.OX X/. X@X.XW.!.!./._.^. X^.(.I. X@X^.Y.!.|.!.!.|._.}.}.}.}.W.(.|.`._.|.%X%X(._.(.|.OX|.",
"*X.XW..X%X`.).&X@X|.&X*X$XOX^..X|. X+X|.|..X}.4X`.`._.@X>X*XXX@XXX$XE. X`.^.U.|.)._.OX%X$X|.^.|.|. X|..X|..X X4X|..X|.$X>X;X$X|.",
".X`.&X^._..X&X|.:X:X6X|.@X:X6X4X2X9X2X1X%X%X,X`.*X:X<X$X_. X#X@X|._.$XW.).|.@X|.*X:X6X|.$X,X1X1X2X6X<X6X%X%X,X|.%X>X,X&X`. X&X%X",
"|.@X_.OX^. X|.%X&X_._.|.%X(.@XOXW.|.|._.`..X`.(.|.|. X X(.%X|.`.W.|.W._.R._.`.*X>X`.OX X>X|.@X|.^. X|._.`.|._. X.X.X|.`.`.$X/.^.",
"$X&X*X1X,X4X1X$X%X*X,X<X.X$X@X_.&X$X X$X%X$X%X.X|.`.^.^.;X1X4X:X_.%X$X$X%X4X<X}.`.&X*X<X|.}.`._.%X$XOX|..X(.$XXX*X X XOX<X,X6X&X",
":X#X`.^.!._._.`.@X`._.!.-X,X8X:X`.>X4X.X.X%X@X|.&X%X$X<X|._.`.@X<X.X.X@X@X.X*XOX&X2X:X@X&X$X6X6X$X*X4X:X$X:X%X$X&X%X*X<X.X`.$X*X",
"@X|.`.|.^.~.(.|.(.`.`.|.@X^.OXOX:X1X.X|.'.|.W.%X:X.X|.|.|.$X|.(.(. X_.(.).|.@X<X4X$X`.@X:X9X*X*X1X$X$X(.%X@X(.$X:X|.`.`.|.@X+XOX",
".XOX:X<X:X*X%X*X#X*X*X1X(.`.&X&X4X(.|.%X2X&X%X%X|.}.|.|.%X<X:X:X%X@X%X&X$X%X:X:X`.@X#X>X&X_.@X>X|.).|.OX>X|.%X%X|.(..X$X$X<X*X*X"
};
