/* XPM */
static char *result[] = {
/* columns rows colors chars-per-pixel */
"64 64 210 2 ",
"   c #020202",
".  c #0C0C01",
"X  c #0C0B0B",
"o  c #070708",
"O  c #121202",
"+  c #1C1B01",
"@  c #1A140B",
"#  c #161513",
"$  c #1C1917",
"%  c #1B0F0A",
"&  c #221D19",
"*  c #31190D",
"=  c #242301",
"-  c #2C2A01",
";  c #2F2D09",
":  c #302F06",
">  c #363400",
",  c #3D3B01",
"<  c #31300D",
"1  c #27231E",
"2  c #35271B",
"3  c #3B391F",
"4  c #2C2B2A",
"5  c #282725",
"6  c #332C24",
"7  c #322620",
"8  c #33322C",
"9  c #3B352B",
"0  c #3C3C29",
"q  c #413E02",
"w  c #512D1B",
"e  c #543C14",
"r  c #6A361C",
"t  c #423C2D",
"y  c #4C372D",
"u  c #5A3827",
"i  c #4A3E32",
"p  c #442B20",
"a  c #6A3B25",
"s  c #444202",
"d  c #4C4A02",
"f  c #44420F",
"g  c #524F00",
"h  c #524B08",
"j  c #5A5601",
"k  c #5A5605",
"l  c #46441B",
"z  c #4D4B1A",
"x  c #4D4A16",
"c  c #504E14",
"v  c #5D5B1F",
"b  c #575415",
"n  c #605D07",
"m  c #615E1B",
"M  c #7C4D1A",
"N  c #656102",
"B  c #6A6603",
"V  c #6E6A01",
"C  c #6B680A",
"Z  c #726E07",
"A  c #797500",
"S  c #7B7609",
"D  c #6B6714",
"F  c #68651C",
"G  c #686518",
"H  c #726E18",
"J  c #7A7615",
"K  c #797516",
"L  c #444225",
"P  c #4D4B25",
"I  c #48472A",
"U  c #504E25",
"Y  c #555323",
"T  c #5C5A21",
"R  c #4C443A",
"E  c #484334",
"W  c #544B3B",
"Q  c #5A5132",
"!  c #61422E",
"~  c #70503E",
"^  c #6C6827",
"/  c #464542",
"(  c #524F4B",
")  c #5A5349",
"_  c #6A5E4C",
"`  c #625747",
"'  c #665D52",
"]  c #716553",
"[  c #7A6955",
"{  c #7D6E5D",
"}  c #6A6560",
"|  c #847F00",
" . c #817D12",
".. c #864D30",
"X. c #925233",
"o. c #9E5633",
"O. c #924A27",
"+. c #A7572F",
"@. c #A9572E",
"#. c #AD5930",
"$. c #B25C31",
"%. c #B85F33",
"&. c #807927",
"*. c #B76339",
"=. c #84765E",
"-. c #90684C",
";. c #8C7C64",
":. c #877865",
">. c #868100",
",. c #8A8509",
"<. c #918C02",
"1. c #918C08",
"2. c #969104",
"3. c #9B9609",
"4. c #898412",
"5. c #928C17",
"6. c #A39D01",
"7. c #A29D0B",
"8. c #AFA903",
"9. c #ABA506",
"0. c #B3AD05",
"q. c #BBB402",
"w. c #918432",
"e. c #C6BF00",
"r. c #C4B504",
"t. c #C7C001",
"y. c #C9C204",
"u. c #A4964A",
"i. c #A99853",
"p. c #948366",
"a. c #968669",
"s. c #99876A",
"d. c #97886A",
"f. c #9B8A6C",
"g. c #988567",
"h. c #9E8D71",
"j. c #9F9073",
"k. c #A18D6F",
"l. c #A0916F",
"z. c #A18E71",
"x. c #A49374",
"c. c #A99575",
"v. c #AC9977",
"b. c #A39279",
"n. c #AA9679",
"m. c #AD9A7A",
"M. c #B29D7D",
"N. c #B49A7A",
"B. c #B5A07D",
"V. c #D29269",
"C. c #B49E81",
"Z. c #A19585",
"A. c #B5A182",
"S. c #BCA584",
"D. c #BDA886",
"F. c #BFAA89",
"G. c #B6A38C",
"H. c #C2A785",
"J. c #C3A985",
"K. c #C4AC8A",
"L. c #CAAE8B",
"P. c #CAAC87",
"I. c #C5B08D",
"U. c #CCB28E",
"Y. c #D2B48E",
"T. c #CDB492",
"R. c #CAB594",
"E. c #D2B692",
"W. c #D5BA95",
"Q. c #D9BB96",
"!. c #D1B798",
"~. c #D6BC99",
"^. c #DABE9A",
"/. c #D8B794",
"(. c #E0BF97",
"). c #E0BF9A",
"_. c #DABFA0",
"`. c #D6C09A",
"'. c #DDC29D",
"]. c #D8C097",
"[. c #E2C39E",
"{. c #E4C89F",
"}. c #E9C49F",
"|. c #DEC4A1",
" X c #DFC9A2",
".X c #E3C6A1",
"XX c #E8C7A2",
"oX c #E5CAA4",
"OX c #EACCA5",
"+X c #E6CDA9",
"@X c #EBCEA9",
"#X c #F1CEA9",
"$X c #F0CEA7",
"%X c #ECD0A6",
"&X c #EDD2AA",
"*X c #E7D1A7",
"=X c #F1D1A7",
"-X c #F3D4AC",
";X c #F9D6AF",
":X c #F4D8AE",
">X c #EED6B1",
",X c #F5D6B1",
"<X c #F8D7B1",
"1X c #F6DAB2",
"2X c #FADCB4",
"3X c #FBDEB8",
"4X c #FCE1B6",
"5X c #FEE3BB",
"6X c #F7E0B4",
"7X c #FFEDC8",
/* pixels */
"W.'.'.[.}.;X2X[.Q.W./.Q.OX1X-X^.Q.T.&X'.'.oXoX.XoX!. XoX+X[..XE.*X+XQ.oXOXOX[.[.{.[.^.[.'.OX&X[.[.OX[.[.{.oXoX|..X`..XoX%X^.W.Y.",
"'.@X^.).U.E.Y.'.XX@XT.].@XQ.E.Y.+X-XW..X`.T.Y.'.*X=X=X(.[.[.'.:XoX'.^.^.W.Y./.[..X@XE.W.@X+X[.^.}.oX{.|.`.T.Y.'.%X&X&XQ.E.T.|..X",
"XX~..X.X'.T.'.OXOXOX&X.X'.^.'.OX*X.XW.|.OX&X&X&X2X'.^.[.].^.Q.E.Y.'.oX&X'.!..XoXOX+X*X}.'.Q.'.OX.X.XQ.'.OX-X-X*X<X'.].|.[.`.[.[.",
"+X.X@X-XoXXX&XOXOX'.^.~.&X<X3X'.E.E.OX-X[.[.[.'.U.E.~.E.W.].OX-X=XOX=XOXoX}.*XOXOX|.^.~.OX-X2X^.W.E.OX-X'.|.[.'.T.E.].'.'.OX[.OX",
"'.[./.'.@X-X;XL.|.@XT.'.!.L.Q..X.XOX&XQ.T.E.].'.'.|.[.OXOX*XOXQ.^.].[.Q.oX-X;XP.[.*XE.'.Q.Y.Q..X XOX@X/.T.E.].'.'.'.'.OX-X-X+X;X",
"Q.[.^.].Q./.E.[.oXF.+X.X&X@X@X@X%X[./.&X:X{.oX=X;X1X-X{.[.[.T.'.OXoXE.'.~./.W.[..XK.+X|.OXOX@X@X=X^.~.&X:XoXoX=X;X2X=X}.W.Q.'.Q.",
"OX[.oXoX@X`.+X$X'.2XOXOX~./.^.~.U.'.|.]..X2X-XoXL.W.].[.].oX'.}.'.W.*X@XOX].oX@X[.2XOX@XE.~.|..XW.].|.`..X2X-X.XL.W.].'.'.'.'.oX",
"/./.[.-X^..XOXL././.Q./.~.'.XX~.W.+XOXoX=XE.{.'..X+XOXOXoX-X:XoX].W.@XOX[.[.OXU././.W.E.~.~.'.~./.OXOX{.:XE.}.'.oX+XOX*X:X=X-X'.",
"E.^.L.'.&XOX'..X~.L.' f.~.#X;X^.;X&XW.E.oX'.W.W.<X@X^.Q.].Q.W.[.[.;XE.].@XOX^.'.E.L.~.E..XOX-X`.-X&X].W.`.[.W.E.3XOX].E.~.U.^.Y.",
"Q.OX'.'.^.^.[.@X-Xm.y 7 ` -.E.E.[./.'.oXoX.XOXOX~.^.'..X'.'..X+XOXY.].'.'.'.[.;X,XOX{.+X#X~.E.E.'.W.W.oX.X].OXOXW.Q.[..X.X&XOX'.",
"@X|.@X;XOXE.[.^.E..XV.$.%.@.i ` ;.OX*X.X[.'.'.^..X.X.X=X%X*X&XOXoX].OX-XOXE.].!./.OX%XOX'.!.+X@X{.OX'.:XoX~.`.'.+XOX}.&X&XY.^.+X",
"/.+XP.E.'.'.=X-X[.^.[ a %.%.a 4 $ [ ^.E.'.&X:X&XOX=X^.~.[.&X@X+XoX=X[.Q.[.+XOX~.Y.'..XU.[.OX@X[.`.'.[.E.+X%X.X@X+X[.W.E.E.OX-X$X",
"'.'.].^.OX&X[.U.'.&X~.) u %.%...i 7 ] -X.X'.[.'.].'.'.~./.'.E.~.{.OXW.^.$X=X2X%X=X+XQ.oX@X[..X].OXOX'.%XOXOX.X.X'.{.*X'.[./.E.Q.",
"}.Q.OX*X#XXX^.OXOX}.^./.a X.%.%.o.X.p ' G.T.&X&X@XQ..X=XOX@X+X+X[.[.$X2X@X[.^.[.[.oX*XOXQ.'.^.[.%X|.E.W.E.'.oX@X;X}.[.;X$XoX.XoX",
"[.~.OX<X/.~.'.-XE.'.^.R.$ * a $.%.*.*.u / ( b.|.}.oX@X+X@X3X7X5X;X3XE.^.Q.T.E.+XQ.].~.|..XoX_.[.'./.[.OXoX;X|..X[.[.%XQ.E.{.@X.X",
",X#XXX[.^.@X1X.X'.[.#X@Xs.% % 2 +.%.*.%.u X X ;.OXOX@X[.oX[. X'.'.'.&X@X@X@X,X.X'.[.=X1X2X2X,X,XoXOX:XOX|.'.oX]..X[.'.'.:X@X+X<X",
".XOX~.[.;X2X[.2X-X;XoX^.P.:.$ X 6 +.%.$...*   , i.+XW.'.^.+X^.W.@X3X).^.-X.X'.1X&X;X{.).oXoX+X~.OX{.Y.W.~.~.-X2X[.oX+X^..X^.Q.E.",
"/.XX&X+X/.E.W.'.W.[.E.J.Q.K.x.R 4 5 X.*.#.r % . j u.'.|.=X;X2X2X<X.X.X.X~.].'.[.Q.[.W.J.^.'.E.OX[.W..X-X-X1X'.'.OX3X&X1X2X@X.XQ.",
"2X-X<X5X4X*XE.%X'.^.OX@X&X@XOX[.( 4 5 ..@.$.e q   g u.-X<X~.E./.1X7X3X5X3X-X|.@X].].oXOX@XOX&X.X+X1X+X[.@X[.~.&X@X[..XE.^.'.OX,X",
"XX.X^.Q.|.5X4X-X@X=X2X4X&XOX-X+X:./ 4 # w M r.C d   d w.~. X.X2X@X^.~.~.~.OX:X&X#X-X3X4X-XOX>X1X@X].'.[.E.+X@X@X~.-XOX@X=X+X'.T.",
".XE..XXX^./.E.OX+X).oX^.'.^.Q.~.R.} 5 o   j 9.0 b g   > R J Q R .X+X@X+X&X'.Q.OX+X)..X^.'.^.Q.Q.OX-X6X5X:X&XOX.X4X^..X X,X.X<X1X",
"+X=X<X3X4X3X&X.X.X^.^.^..XoXoX=X^.I.t .   o C 9.I c j . = O   o R +X3X-X+X&X&X.X.X^.^.^..X.X.X-X'.].E.^.Q./.].'.|.|.#X&X[.'.~.|.",
"1X.X^.^.~.E.'.@X'..X'.-X4X,X3X'.&X XT.6     o k q.v 1.>.C ,   O O 6 K./.|.Q.).*X[..X[.-X4X;X3X.X@X X=X&XoX X:X,X6X-X XoX`.<X,X,X",
"/.^.oX@X+X^. X&X&X;X4X^.Q./.[.-X1XOXQ.h.6     o d 8.0.q.r.| d O   o & G.+X|..X&X&X<X2X'.W.Q.[.-X2XOX+XOX5X:XoX'.^.'.'.&X1X'.}.+X",
".X-X&X3X2X<X3XXX^.E.Y.).2X-X6XoXJ.~.^.I.a.8       - A q.e.e.3.V       # M.-X2XOX^.E.Y.[.<X-X2X+XJ.`.].~.`.'.'.'.!.+XOXOXoX@X|.E.",
"oX<X4X+XoX.XE.~..X.X/.,X.X~.[.+X|.-X-X3X.Xb.i     . A q.e.t.t.2.d       X s.E./.|.[.Q.-XoXW.^.+X|.-X=X3X-X+XOXOX-X,X^.|./.^.oX@X",
";X[.~./.Q..X+X@XOX2X2X.X+XOX-X<X5X3X+X'.@X&Xh.5   , B e.e.e.e.J c g .     o ;.&X@X2X2X.XOXOX-X<X7X2XOX'.+X<X2X.X.X~.oX@X+XOX[.'.",
"^.'..X&X-X2X3X2X).E.E.@X<X;X[.~.+X~.~.+X,X/.!.9 o   X D t.e.e.0.L c j O     o ;.).E./.*X1X;X[.~..X~.^.+X,XW.[.].'.oX2X@X&X@X+X^.",
"-X&XOX&X[.E.Q.U.^.~.'.@XU.'.~.,X[.^.,X3X'.E.@X) X     l H t.e.e.q.Y z N +     o _ /.'.=XU.'.~.,X[.|.>X2X|.E.+X+X+X@X@X+X;XOX3X&X",
"@X'.|.^.|.OX&X|..X.X,XE.[.OX<X|.@X-X.X).~..X&XC.#   + 6.G F e.e.e.e.T L B +     o ) <XU.[.OX,X|.@X-XoX^.~..X&X:X5X@X+X@X).+X^.+X",
"Q.|.-X&X&X&X.X,X3X[.)..X=X.X'.,X3XOX|.|.&X3X2X'.n.& o = 2.D T q.e.t.e.F L V =     o W .X#X[.'.,X3XOX'..X-X1X3X|.~.E..XOX@XoX@X^.",
" XOX,X.XQ.E.^.~.E.@X@X4X.X.X@XOX'.E.^.OX+X^.'..X.XD.6 o + <.H T 0.e.e.e.H 0 B -     o R ^.|.&X@X^.E.^.OXXX^.'..X+X'.oXL..XoXoX-X",
"OXOX[.'.}.W.'.E.~.,X'.U.T.-X^.|.'. X<X}.|.~.'.'.-X[.+Xt   . | J P 9.e.e.e.J 9 N >       6 ].).|._.|.<X}.|.~.'.'.-X}.1XXX/.=X@X[.",
":X[.OX'..X+X'.OX@X.X.XOX@X/.|.+X<X2X+X+X&X&X-X2X/.!.E. XW o   A  .I 7.e.e.e.4.8 k ,       5 S.+X<X3XOX+X@X&X-X1XW.W.E..XOX@XoX4X",
"~..XOXOX-X:XOX&X/.+X[.[.^.+X-X-XoX~.+X-X1X4X:X'.+XoX.XOX'.W o   V ,.0 3.t.t.t.4.8 b s       $ D.OX~.+X%X2X3X:X'.oXoXoX.X^.Q..X[.",
"OX'.W.W.Q.U.^.E.E.~.[.^..X.X/.E.^.%X*X'.E.~.E.~.%X2X2XOX[.[._ o   n 1.L 1.t.t.t.3.8 b d       X f.*X&X].W.].E.`.*X3X3XOX'.~.^.|.",
".X'.OX'.~.'.^.^.[.@XOXOX#X@X~.oXoX&X^..X=X&XE.-X[.@X^.~.^.'.4X{ o   j 2.P 4.e.e.e.7.0 b g       X C.Q.'.@X+XE.=X.X@X^.Q.~.[.-X2X",
"^.oX-X=X-X%X@X:X@X^.#XQ.^.-X<X>XoX'.~.OX6XOX>X'.].'.~.^.@XOXQ.Q.:.o   d 3.Y J e.t.t.9.I c j .   X n.].%X3XOX-X'.^.~.~.|.&X-X'.E.",
"oXQ.'.Y.U.^.Q.~.~./.^.[.@X[.^./.W.+X&X/.T.T.E.^.E.OX@X#X%X[.[.&X.Xa.X   q 6.v H t.t.e.q.Y z N O   2 =.{ U.T.E.'.E.oX=X=XOX'.Q..X",
"'.].W.'.W.^.E.^.+X+X^.@X[.U.E.U.oX&X].OX@X'.'..X}.@X[.Q.'.'.]..XQ.@Xz.X   > 9.F F e.e.y.e.T l B + @ c 3 { .X'.*XOX-XoX^.'.'.^.'.",
"'.}.;X[.@X-X-X-X.X'.'.=X|.&XOX+X]./.T.@X&X'.'.OXL.T.R.E.`.+X'.~.~.E.|.A.$ o - 3.D F q.e.t.y.^ G V , D f 4 B.OX-X/.~.~.'.|.@X X^.",
"{.'.W.Q.Q.'.W.{..X^.].Q.E.L./.U.T.|.oX~.H.H.S.J.E.T.K.L..X@XE./.E.~.].,XJ.5   = 2.H T q.e.y.e.5.,.l v $   =.J.U.|._.E.Q.@X&X@X@X",
"`.'.[.'.'.W.%X'.'.^.E.'.~.~.E.S.W.'.U.E.E.`.I.~.E.].^.'.+XI.^..X].^.U.D.K.m.6 o + >.H Y 8.e.0.P m 0 <.k ] B.`.+X}.OXOX=X;XY.^.^.",
"OX%XOX+X%X-XQ.oX*X%X@X].].T.W.+XP.S.S.L.R.`.'.'.[.K.H.H.J.M.S.B.D.N.S.G.J.K.m.9 o . A D P 3.v D S t < ^ b.+X=X%X=XW.E.E.'.W.^.[.",
"&XOXOX+X*X[..X=XY.~.~.[.I.U.U.K.A.S.A.P.I.T.U.J.M.B.S.S.S.N.m.M.m.c.M.A.S.m.M.M.9   o x I S m J t k - 1 A.+XOX[.Q.E.'.@X-X$X@X@X",
"W./.^./.].&XXXE.W.Q.K.J.E.W.W.~.F.m.c.x.x.j.x.l.m.m.M.k.a.p.a.f.f.h.k.f.f.c.x.p.f._ _ 8 J Z t T S s X [ A.E.W.W.+X%X-X'.Y.Y.Y.W.",
"[.~./.'.Y.@X.XOX%X^.Y.T.`.'.K.M.x.f.f.d.=.f.f.p.l.f.k.a.g.f.k.f.f.x.a.f.p.x.f.k.x.f.g.Q C f ; h G X ` f.m.].].T.oX^..X/.^.].OX[.",
"OX&X^.OXoX|.^./.W.[.OX.X].B.m.j.c.f.d.d.c.a.d.c.f.a.f.c.x.c.s.c.x.g.f.l.h.h.f.a.a.f.c.` O . > 5.Z.=.d.m.!.U./.%X}.Y..X;X@X-XE.^.",
"OXQ.=X{.^.+X'.~.Q./.1XE.C.n.h.c.s.f.x.c.d.f.f.p.d.x.c.d.p.a.d.f.p.a.x.f.f.x.f.a.d.g.n.p.t 1 0 f.s.f.n.S.A.!.W.I.].%X>X].W.'.[.$X",
"W.@XW.~.'.}.1X#XOX*XT.L.T.S.A.s.s.x.b.k.x.c.c.c.c.d.h.d.p.k.z.f.f.f.a.a.d.h.n.x.x.j.p.a.=.;.x.d.d.z.b.c.J.].OX-X-X'..X].U..X}.W.",
"|.~.}.*X-XOXOX[.@X.X.X.X[.S.M.m.m.m.f.g.p.d.a.a.p.a.d.x.c.f.h.a.f.f.h.x.c.z.x.f.x.f.j.f.c.a.p.h.x.c.f.f.c.D.U.R.Y.Q.^.%X-X'.~.'.",
"@X XE.Q.^.~.Q.E./.~.'.[.U.E.'.'.N.v.c.m.c.f.z.h.p.l.c.x.b.k.h.c.c.f.p.a.s.f.d.a.a.d.k.x.g.f.n.n.a.f.f.n.D.D.E.`.U.oXOX-X=X}.&X-X",
"|.+X+X+X[.!.oX%X|.'.'.'.%X'.~.U.S.I.I.I.I.I.F.S.B.x.z.f.f.d.s.s.d.f.j.x.h.d.j.n.c.x.x.x.A.m.n.k.f.c.B.J.E.{.%X%X=X].[.Y.W.W.E.Q.",
"&XOX'.2X2XOX'.'.&XOX<XOX^.U.L.~.oX.XE.K.S.F.F.J.m.c.M.N.c.c.f.c.v.c.n.F.S.v.c.m.K.J.K.S.S.m.n.A.K.F.S.S.S.R.^.[.~.U.Q.L.~.[.U. X",
"'.E.L.~.U.Y.[.&X:X'.'.'.@XW.L.T.P.U.E.~.'.I.T.P.K.T.W.U.I.D.F.K.B.M.A.D.B.v.A.~.'.L.K.L.~.K.S.S.N.S.K.R.'.U.`.E.~..XOX@X=X.X@X*X",
"~..X+XoX'.OX<X+X^.'.&X;X^.=X-X+XoX'.OX=X].oX@X-X'.U.U.I.P.L.J.S.K.K.T.~.!.T.^./.T.T.].+XE.=X.X+X].^.}.OX].OX&X<XOX^.^.^.^.^.Q.^.",
"oX@X$XY.@X<X[.Q.'.@XW.E.'.E.^.Q.'.`.Q.Q.|.~.E.]..X[.U.T.T.~.Q.W.].E.Q.J.'..XE.U.T.'.I.T.^.~.`.'.`.W.Y.W.|.^.Q.'.OXOX^.~.E.'.|.|.",
"@X[.Y..XOX^.E.+X.X'.+X@XoX|.E.'.[.].|.'.[.'.`.<X^.^.^.{.OX%X'..XoX{.U.`.^.U.L.'.~.~.|.@XoX|.E.'.'.`.[.'.^.'.~.1X'.[.'.oX%X%X.X'.",
"[.^.+XE.~.|.@X|.&X&X2X^.}.&X1X,X:X6X1X<XOXOX=X^.@X&X&XoXW.'.oX.X^.W..XY.E.'..X^.&X&X1X]..X=X;X,X:X2X:X2XOXOX=X'.OX*X-XoX`.'.+XOX",
"'..XQ.|.E.].].@X+X~.~.'.oX^..X'.T.'.'.`.^.'.^.Q.'.^.^.].].OX'.^.Y..XY.].I.~.~.@X*X].|.'.%X'..X'.E.].'.^.].'.^.].}.'.^.^.~.OXW.E.",
".XOX@X-X-X:X:X[.OX@X#X-X[.oXoX~.OXoX`..X@X.X%X[.'.^.~.E.&X;X,X&X~.OX+X.X+X-X-X'.^.+X@X-X'.~.^.~.OXoX|.`.[.].oX{.@X^.'..X=X-X>XOX",
"-XoX^./.T.W.^.^..X^.~.T.@X=X1X&X'.*X<X[.[.OX[.[.+XOX.X-X'.~.^.[.-X[.[..XoX[.+X|.+X-X&X.X+XoX>X3X.X@X3X&X{.&XOX.X+X+XOX-X[.^.oX&X",
".X'.^.|.E.!.Q.^./.'.^.'..XE.|. XOX-X[.'.Q.].Y.OX&X[.'.'.'.oX'.Q.W.].~.~./.'.oX-X,XOX^..X-X6X*X@X-X+X.XQ.+X{.Q.OX&X^.Q.].'. XoX|.",
"[.|.&X&X&XOXOX@X@XOX@X,X^.^.+XOX,X^.'.@X:XOXOXoX'.`.'.'.OX-X=X&XOXoX@XoX.X@X@X&X^..X.X&X+X^..X&X^.E.'.|.%X'.OXOX'.W.[.oX+X-XOX@X"
};
