/* XPM */
static char *ae6c6bc47f61467580bc257aa1b6e766j9sb7gDJYRrxjXc2[] = {
/* columns rows colors chars-per-pixel */
"64 64 171 2 ",
"   c white",
".  c #F8FAFA",
"X  c #F9FBFB",
"o  c #FAFBFB",
"O  c #FAF7FB",
"+  c #FAFAFB",
"@  c #F7FAFA",
"#  c #F9FAFA",
"$  c #F9F9FA",
"%  c #F7F8FA",
"&  c #F6F7F7",
"*  c #F8F9FA",
"=  c #F9F9F9",
"-  c #F8F7F8",
";  c #F5F6F7",
":  c #F8F9F9",
">  c #F6F7F8",
",  c #F1F1F1",
"<  c gray98",
"1  c #FBFBFB",
"2  c #F8FBFB",
"3  c #F8FAF8",
"4  c #F9FAF8",
"5  c #F9F8F9",
"6  c #F7F6FA",
"7  c #F8F9F7",
"8  c #F8F8F9",
"9  c #F7F8F8",
"0  c #EFEFEF",
"q  c #FBFBFA",
"w  c #FAF9FB",
"e  c #FAFAF8",
"r  c #F9FAF9",
"t  c #F8F8FA",
"y  c #F8F9F8",
"u  c #F7F8F9",
"i  c gray94",
"p  c #FBFBFC",
"a  c #FAF8FB",
"s  c #ECECEC",
"d  c #F9FAF7",
"f  c #EEEEEE",
"g  c gray92",
"h  c #F6F7FA",
"j  c gray93",
"k  c #E9E9E9",
"l  c #E7E7E7",
"z  c #F9FAFB",
"x  c #F7F9FA",
"c  c gray90",
"v  c gray91",
"b  c #FAFAF9",
"n  c #F6F9FA",
"m  c #F8F8F7",
"M  c #F8F6F7",
"N  c #F6F7F9",
"B  c #EAEAEA",
"V  c #E4E4E4",
"C  c gray89",
"Z  c #E2E2E2",
"A  c #F9F8FA",
"S  c #F9F6F7",
"D  c #F8F9F6",
"F  c #F5F5F9",
"G  c #F5F6F9",
"H  c gray87",
"J  c #F7F6F7",
"K  c #989899",
"L  c gray60",
"P  c #989999",
"I  c #989898",
"U  c #979797",
"Y  c #F9F9F8",
"T  c gray97",
"R  c #F7F7F9",
"E  c #F5F6F6",
"W  c #F5F4F6",
"Q  c #F3F5F6",
"!  c #F4F5F6",
"~  c #006BD3",
"^  c #0078D7",
"/  c #CBE0F2",
"(  c #F7F7F8",
")  c #F7F9F9",
"_  c #0073D5",
"`  c #CBE0F1",
"'  c #F7F6F8",
"]  c #F9F7F8",
"[  c #F4F5F9",
"{  c #F5F8F9",
"}  c #FFFEFA",
"|  c #F7F5F8",
" . c #F3F7F8",
".. c #F7F9F8",
"X. c #F7F7FA",
"o. c #F6F8F9",
"O. c #F6F6F9",
"+. c #CBDFF1",
"@. c #E7EEF5",
"#. c #F7F8F7",
"$. c #FFFDF9",
"%. c #FCFAFA",
"&. c #FFFEF9",
"*. c #F7F9F6",
"=. c #F4F5F8",
"-. c #F7F8F5",
";. c #FFFEF8",
":. c #F8F8F8",
">. c #0072D5",
",. c #0277D6",
"<. c #F5F7F9",
"1. c #FFFDF8",
"2. c #F9F9F7",
"3. c #006AD3",
"4. c #258ADB",
"5. c #8DBFE8",
"6. c #0073D4",
"7. c #F7F4F8",
"8. c #F5F5F7",
"9. c #D4E5F4",
"0. c #FFFBF8",
"q. c #117FD7",
"w. c #F7F8F6",
"e. c #FAF9F9",
"r. c #0077D6",
"t. c #0076D5",
"y. c #1D85D9",
"u. c #F4F7F8",
"i. c #F6F5F5",
"p. c #F5F7F8",
"a. c #0074D4",
"s. c #CEE1F2",
"d. c #BDD9F0",
"f. c #0072D4",
"g. c #5AA6E2",
"h. c #0075D5",
"j. c #F6F4F7",
"k. c #F1F5F5",
"l. c #ECF1F5",
"z. c #FFFCF9",
"x. c #F3F6F7",
"c. c #F5F5F8",
"v. c #0076D4",
"b. c #F6F6F5",
"n. c #F4F6F7",
"m. c #F6F6F7",
"M. c #54A1E1",
"N. c #006ED3",
"B. c #CBDEF1",
"V. c #FCFAF7",
"C. c #187FD8",
"Z. c #F5F5F6",
"A. c #006CD3",
"S. c #F5F6F8",
"D. c #F4F5F7",
"F. c #F6F5F7",
"G. c #F6F6F6",
"H. c #F6F4F6",
"J. c #F3F4F5",
"K. c #E6E6E7",
"L. c #E6E6E6",
"P. c #E5E6E6",
"I. c #E5E5E6",
"U. c #E4E5E5",
"Y. c #E4E4E5",
"T. c #E3E4E4",
"R. c #E3E3E4",
"E. c black",
"W. c #FFFFFE",
"Q. c #FDFFFF",
"!. c #FFFFFD",
/* pixels */
"                                                                                                                                ",
"                                                                                                                                ",
"                                                                                                                                ",
"                                                                                                                                ",
"                              . X X o o O + + + @ # # # $ $ % & * = - * ; : > ,                                                 ",
"                              < 1 1 2 o o + + + 3 # # 4 5 $ 6 7 * * 8 * ; : 9 0 0                                               ",
"                              < q 1 1 o o w + + e # # r 5 $ t y * * 8 * u : 9 , 0 i                                             ",
"                              < p 1 1 o o a + + < # # r 5 $ t y * * 8 * u : 9 , 0 s s                                           ",
"                              < 1 1 1 o o w + + e # # d 5 $ t y * * 8 * u : 9 i f g g s                                         ",
"                              < 1 1 2 o o + + + d # # 4 5 $ h 9 * * 8 * > : > f j s g k l                                       ",
"                              . X o o o w + + + @ # # z $ $ x u * = - * ; : > j g s l l c v                                     ",
"                              # o o o a + + + b # # # z $ $ r * n m M * N : > B B v l l V C Z                                   ",
"                              A w a + + + + b @ # # # S $ $ D * n F * * G : > k l l c V V Z H V                                 ",
"                              $ + + + + + < @ # # # z $ $ h > * : 8 * u u : J K L P L L I I I I U                               ",
"                              $ + + + + Y x * * * * - t t y % % T J % ; u u R > ; ; ; ; E W Q ! u                               ",
"                              $ + + e @ ~ ^ ^ ^ ^ ^ ^ ^ ^ ^ ^ ^ ^ ^ ^ ^ ^ ^ ^ ^ ^ ^ ^ / ( ( > > z                               ",
"                              ) # # # # ~ ^ _ _ _ _ _ _ _ _ _ _ _ _ _ _ _ _ _ _ _ _ ^ ` ' ( > > z                               ",
"                              ) # # # # ~ ^ : ] $ $ % 4 * * Y 8 * * [ : N 8 { u u } ^ ` |  .> > z                               ",
"                              ..# r 4 r ~ ^ 8 $ $ X.d * * : 8 8 * E : : o.8 u u u } ^ ` ( > > > z                               ",
"                              u z 5 ] 5 ~ ^ 8 $ % d * * x O.M * u N : F 8 o.u u u } ^ +.> > > > z                               ",
"                              R $ $ $ $ ~ ^ N r & * * : @.M * u N : N 8 8 u u u u } ^ +.> > > > z                               ",
"                              R $ $ $ X.~ ^ #.* * * Y $.^ %.* G : : o.8 { u u u u &.^ +.> > > > z                               ",
"                              *.4 4 7 #.~ ^ u * ) ( T ^ ^ ^ =.: u { 8 { u u u u -.;.^ +.> > > > z                               ",
"                              N * * * * ~ ^ u :.8 M >.^ ^ ^ ,.: <.8 u u o.u u u 9 1.^ +.> > > > z                               ",
"                              N * * = 2.3.^ ( M * 4.^ ^ ^ ^ ^ 5.8 u u u 6.N u 9 7.1.^ +.> > > > #                               ",
"                              8.R R 8 8 ~ ^ u * 9.^ ^ ^ ^ ^ ^ ^ 0.u u q.^ 6.w.( ( 1.^ +.> > > > $                               ",
"                              N * * * * ~ ^ > e.^ ^ ^ ^ ^ ^ ^ ^ r.> u t.^ ^ y.( u.1.^ +.> > > i.x                               ",
"                              > * * * u ~ ^ p.t.^ ^ ^ ^ ^ ^ ^ ^ ^ a.u s.^ ^ ^ d.> 1.^ +.> > & ; *                               ",
"                              & N : : : ~ ^ f.^ ^ ^ ^ ^ ^ ^ ^ ^ ^ ^ g.#.h.^ ^ ^ 0.1.^ +.> > j.; *                               ",
"                              & : : : : 3.^ ^ ^ ^ ^ ^ ^ ^ ^ ^ ^ ^ ^ ^ k.l.^ ^ ^ t.z.^ +.> i.x.; *                               ",
"                              ; u o.8 8 ~ ^ ^ ^ ^ ^ ^ ^ ^ ^ ^ ^ ^ ^ ^ ^ c.6.^ ^ ^ v.^ +.b.n.; ; *                               ",
"                              m.8 8 8 u ~ ^ ^ ^ ^ ^ ^ ^ ^ ^ ^ ^ ^ ^ ^ ^ 6.;.^ ^ ^ ^ ^ +.; ; ; ; *                               ",
"                              ; u u u u ~ ^ ^ ^ ^ ^ ^ ^ ^ ^ ^ ^ ^ ^ ^ ^ ^ M.N.^ ^ ^ ^ B.; ; ; ; *                               ",
"                              ; u u u u ~ ^ ^ ^ ^ ^ ^ ^ ^ ^ ^ ^ ^ ^ ^ ^ ^ ^ V.^ ^ ^ ^ B.; ; ; ; *                               ",
"                              ; u u u u ~ ^ ^ ^ ^ ^ ^ ^ ^ ^ ^ ^ ^ ^ ^ ^ ^ ^ ^ C.^ ^ ^ B.; ; ; ; *                               ",
"                              ; u u u u ~ ^ ^ ^ ^ ^ ^ ^ ^ ^ ^ ^ ^ ^ ^ ^ ^ ^ ^ _ ^ ^ ^ B.; ; ; ; *                               ",
"                              E 9 9 9 9 3.^ ^ ^ ^ ^ ^ ^ ^ ^ ^ ^ ^ ^ ^ ^ ^ ^ ^ ^ ^ ^ ^ B.; ; ; ; *                               ",
"                              Z.' ( ( ( A.^ ^ ^ ^ ^ ^ ^ ^ ^ ^ ^ ^ ^ ^ ^ ^ ^ ^ ^ ^ ^ ^ B.; ; ; ; *                               ",
"                              Q p.p.> > S.S.S.S.S.S.S.S.S.S.S.S.S.S.S.E 8.D.D.D.D.D.D.; ; ; ; ; *                               ",
"                              ! > > > > > > > > > > > > > > > > > & F.x.; ; ; ; ; ; ; ; ; ; ; ; *                               ",
"                              ! > > > > > > > > > > > > > > > G.F.x.; ; ; ; ; ; ; ; ; ; ; ; ; ; *                               ",
"                              ! > > > > > > > > > > > > > i.m.x.; ; ; ; ; ; ; ; ; ; ; ; ; ; ; ; *                               ",
"                              ! > > > > > > > > > & i.F.n.n.; ; ; ; ; ; ; ; ; ; ; ; ; ; ; ; ; ; *                               ",
"                              ! > > > > & & i.H.m.; n.; ; ; ; ; ; ; ; ; ; ; ; ; ; ; ; ; ; ; ; ; *                               ",
"                              J.; ; ; x.x.n.; ; ; ; ; ; ; ; ; ; ; ; ; ; ; ; ; ; ; ; ; ; ; ; ; ; x                               ",
"                              J.; ; ; ; ; ; ; ; ; ; ; ; ; ; ; ; ; ; ; ; ; ; ; ; ; ; ; ; ; ; ; ; $                               ",
"                              J.; ; ; ; ; ; ; ; ; ; ; ; ; ; ; ; ; ; ; ; ; ; ; ; ; ; ; ; ; ; ; ; $                               ",
"                              J.; ; ; ; ; ; ; ; ; ; ; ; ; ; ; ; ; ; ; ; ; ; ; ; ; ; ; ; ; ; ; ; $                               ",
"                              J.; ; ; ; ; ; ; ; ; ; ; ; ; ; ; ; ; ; ; ; ; ; ; ; ; ; ; ; ; ; ; ; $                               ",
"                              K.L.L.L.L.L.L.L.P.P.I.I.c U.c U.U.U.V Y.V V V V V T.V T.T.T.T.R.R.C                               ",
"                                                                                                                                ",
"                                                                                                                                ",
"                                                                                                                                ",
"                                        E.                                                                                      ",
"                                        E.                                                                                      ",
"                              E.E.E.E.  E.  E.E.  E.  E.  E.E.  E.E.E.    E.E.E.  E.E.E.    E.E.E.                              ",
"                              E.    E.  E.    E.  E.  E.E.  E.E.E.        E.  E.  E.  E.  E.    E.                              ",
"                              E.    E.  E.E.  E.  W.E.Q.E.      E.        E.  E.  E.  E.  E.    E.                              ",
"                              E.E.E.    E.  E.E.    E.    E.E.  E.    E.  E.E.E.  E.  E.  !.E.E.E.                              ",
"                              E.                    E.                    E.              E.  E.Q.                              ",
"                                                                                            E.E.                                ",
"                                                                                                                                ",
"                                                                                                                                ",
"                                                                                                                                "
};
