/* XPM */
static char *_4aba4c96e734c54b7b519fbbd36d47f5XaeG6VaEsX1myTd[] = {
/* columns rows colors chars-per-pixel */
"64 64 151 2 ",
"   c black",
".  c #070707",
"X  c #252525",
"o  c #3E3E3E",
"O  c #797979",
"+  c gray63",
"@  c #C1C1C1",
"#  c gray83",
"$  c gray85",
"%  c gray84",
"&  c gray78",
"*  c #B7B7B7",
"=  c #8E8E8E",
"-  c #646464",
";  c gray19",
":  c #222222",
">  c #060606",
",  c gray8",
"<  c #808080",
"1  c #BCBCBC",
"2  c #EFEFEF",
"3  c #FEFEFE",
"4  c white",
"5  c #F9F9F9",
"6  c gray92",
"7  c gray79",
"8  c #0C0C0C",
"9  c gray53",
"0  c #F8F8F8",
"q  c gray87",
"w  c gray35",
"e  c gray12",
"r  c #010101",
"t  c gray59",
"y  c gray14",
"u  c gray5",
"i  c #A5A5A5",
"p  c #DADADA",
"a  c #C3C3C3",
"s  c #B1B1B1",
"d  c gray64",
"f  c gray66",
"g  c #B2B2B2",
"h  c gray74",
"j  c gray93",
"k  c #282828",
"l  c gray72",
"z  c #FBFBFB",
"x  c gray91",
"c  c #111111",
"v  c gray3",
"b  c gray1",
"n  c #020202",
"m  c gray2",
"M  c #090909",
"N  c #0B0B0B",
"B  c #323232",
"V  c #989898",
"C  c #DDDDDD",
"Z  c #2A2A2A",
"A  c #ACACAC",
"S  c #D8D8D8",
"D  c #777777",
"F  c gray28",
"G  c gray58",
"H  c gray94",
"J  c gray42",
"K  c #A2A2A2",
"L  c #131313",
"P  c #1E1E1E",
"I  c gray9",
"U  c #EEEEEE",
"Y  c #C5C5C5",
"T  c #A7A7A7",
"R  c #F6F6F6",
"E  c gray60",
"W  c #444444",
"Q  c #1D1D1D",
"!  c #6A6A6A",
"~  c #FDFDFD",
"^  c #606060",
"/  c #CDCDCD",
"(  c #838383",
")  c gray39",
"_  c gray95",
"`  c gray10",
"'  c #ECECEC",
"]  c #D2D2D2",
"[  c gray6",
"{  c #E1E1E1",
"}  c gray70",
"|  c #191919",
" . c #E6E6E6",
".. c gray15",
"X. c #717171",
"o. c #2D2D2D",
"O. c #6F6F6F",
"+. c gray21",
"@. c #373737",
"#. c gray97",
"$. c gray20",
"%. c gray96",
"&. c gray13",
"*. c #A4A4A4",
"=. c #E7E7E7",
"-. c #B6B6B6",
";. c #E4E4E4",
":. c #D0D0D0",
">. c #CACACA",
",. c #959595",
"<. c #161616",
"1. c #6C6C6C",
"2. c #686868",
"3. c #232323",
"4. c #D5D5D5",
"5. c gray23",
"6. c #939393",
"7. c #8B8B8B",
"8. c #272727",
"9. c #040404",
"0. c gray71",
"q. c #CBCBCB",
"w. c #626262",
"e. c gray99",
"r. c gray57",
"t. c #6D6D6D",
"y. c #1B1B1B",
"u. c #7B7B7B",
"i. c #676767",
"p. c gray75",
"a. c gray56",
"s. c gray4",
"d. c gray38",
"f. c gray11",
"g. c #EAEAEA",
"h. c #E2E2E2",
"j. c gray82",
"k. c gray80",
"l. c #D7D7D7",
"z. c #A9A9A9",
"x. c #F4F4F4",
"c. c DimGray",
"v. c gray73",
"b. c #535353",
"n. c gray17",
"m. c gray45",
"M. c #8D8D8D",
"N. c gray69",
"B. c #9B9B9B",
"V. c #898989",
"C. c #2F2F2F",
/* pixels */
"                                                                                                                                ",
"                                                                                                                                ",
"                                                                                                                                ",
"                                                                                                                                ",
"                                                                                                                                ",
"                                                                                                                                ",
"                                                                                                                                ",
"                                                          . X o O + @ # $ % & * = - ; : >                                       ",
"                                                      , < 1 2 3 4 4 4 4 4 4 4 4 4 4 5 6 7 = ;                                   ",
"                                                  8 9 0 4 4 4 4 4 4 4 4 4 4 4 4 4 4 4 4 4 4 4 q 8                               ",
"                                                w 7 4 4 4 4 4 4 4 4 4 4 4 4 4 4 4 4 4 4 4 4 4 4 e                               ",
"                                            r t 3 4 4 4 4 4 4 4 4 4 4 4 4 4 4 4 4 4 4 4 4 4 4 4 y                               ",
"                                          u i 4 4 4 4 4 4 4 4 4 3 p a s d f g h q j 4 4 4 4 4 4 k                               ",
"                                          l z 4 4 4 4 4 4 4 x < c v > b n n b m M N B V C 4 4 4 Z                               ",
"                                      n A 3 4 4 4 4 4 z S D                               F G H k                               ",
"                                      J z 4 4 4 4 4 3 K L                                   r P I                               ",
"                                    L U 4 4 4 4 4 5 V                                                                           ",
"                                    Y 4 4 4 4 4 4 T .                                                                           ",
"                                  F 4 4 4 4 4 3 R                                                                               ",
"                                r E 4 4 4 4 4 z W                                                                               ",
"                                Q 2 4 4 4 4 4 l                                                                                 ",
"                                ! 4 4 4 4 4 ~ ^                                                                                 ",
"                                / 4 4 4 4 4 # n                                                                                 ",
"                              8 4 4 4 4 4 4 (                                                                                   ",
"                              ) 4 4 4 4 4 _ `                                                                                   ",
"                              V 4 4 4 4 4 ' L                                                                                   ",
"                              g 4 4 4 4 4 ] N                                                                                   ",
"                            [ { 4 4 4 4 4 } b                                                                                   ",
"                            |  .4 4 4 4 4 d                                                                                     ",
"                            ..j 4 4 4 4 4 X.                                                                                    ",
"                            o._ 4 4 4 4 4 O.                                                                                    ",
"                            +.R 4 4 4 4 4 O.                                                                                    ",
"                            @.#.4 4 4 4 4 O.                                                                                    ",
"                            $.%.4 4 4 4 4 O.                                                                                    ",
"                            Z 2 4 4 4 4 4 X.                                                                                    ",
"                            &.6 4 4 4 4 4 *.                                                                                    ",
"                            ` =.4 4 4 4 4 -.b                                                                                   ",
"                            L ;.4 4 4 4 4 :.N                                                                                   ",
"                            r >.4 4 4 4 4 ' L                                                                                   ",
"                              ,.4 4 4 4 4 _ <.                                                                                  ",
"                              1.4 4 4 4 4 4 2.                                                                                  ",
"                              3.4 4 4 4 4 4 4.                                                                                  ",
"                                =.4 4 4 4 4 3 5.                                                                                ",
"                                6.4 4 4 4 4 4 7.                                                                                ",
"                                3.5 4 4 4 4 4 x 8.                                                                              ",
"                                9.0.4 4 4 4 4 4 q.                                                                              ",
"                                  w.e.4 4 4 4 4 z r.                                                                            ",
"                                  > S 4 4 4 4 4 4 5 t.                                                                          ",
"                                    y._ 3 4 4 4 4 4 4 2.c                                   . o.y.                              ",
"                                      u.3 4 4 4 4 4 4 3 # i.                            8 1.p.4 y                               ",
"                                        p 4 4 4 4 4 4 4 4 4 =.a.y.s.M . m > . v s.| d.7 4 4 4 4 f.                              ",
"                                        m l 4 4 4 4 4 4 4 4 4 4 ~ g.h.j.@ a k.l. .4 4 4 4 4 4 4 |                               ",
"                                          r z.x.4 4 4 4 4 4 4 4 4 4 4 4 4 4 4 4 4 4 4 4 4 4 4 4 `                               ",
"                                              w.C 4 4 4 4 4 4 4 4 4 4 4 4 4 4 4 4 4 4 4 4 4 4 4 L                               ",
"                                                [ 2.' 4 4 4 4 4 4 4 4 4 4 4 4 4 4 4 4 4 4 4 U O                                 ",
"                                                      c.K h.x.~ 4 4 4 4 4 4 4 4 #.x.6 v.7.b.                                    ",
"                                                          | n.o m.M.+ g N.B.V.t.C.Z &.b                                         ",
"                                                                                                                                ",
"                                                                                                                                ",
"                                                                                                                                ",
"                                                                                                                                ",
"                                                                                                                                ",
"                                                                                                                                ",
"                                                                                                                                "
};
