/* XPM */
static char *a9c0ec01a40148f4f3dfd95cf3f1390c5csfQdXN60VVAy1h[] = {
/* columns rows colors chars-per-pixel */
"64 64 116 2 ",
"   c black",
".  c #010101",
"X  c #131313",
"o  c gray8",
"O  c #0E0E0E",
"+  c gray2",
"@  c #181818",
"#  c gray91",
"$  c gray93",
"%  c #EAEAEA",
"&  c gray85",
"*  c #AFAFAF",
"=  c gray42",
"-  c #676767",
";  c gray11",
":  c #1B1B1B",
">  c gray98",
",  c white",
"<  c gray94",
"1  c #B6B6B6",
"2  c gray36",
"3  c #DDDDDD",
"4  c #565656",
"5  c #FBFBFB",
"6  c #FEFEFE",
"7  c #F4F4F4",
"8  c #ECECEC",
"9  c gray95",
"0  c gray96",
"q  c #CECECE",
"w  c gray99",
"e  c #777777",
"r  c #252525",
"t  c #232323",
"y  c #2D2D2D",
"u  c gray19",
"i  c #2F2F2F",
"p  c gray30",
"a  c #A5A5A5",
"s  c #DADADA",
"d  c #D5D5D5",
"f  c #5D5D5D",
"g  c #A7A7A7",
"h  c #222222",
"j  c gray65",
"k  c #EFEFEF",
"l  c #3E3E3E",
"z  c #090909",
"x  c gray73",
"c  c gray69",
"v  c gray9",
"b  c gray90",
"n  c #070707",
"m  c #585858",
"M  c #808080",
"N  c #040404",
"B  c #E6E6E6",
"V  c #B9B9B9",
"C  c #C1C1C1",
"Z  c gray70",
"A  c #989898",
"S  c #161616",
"D  c #0C0C0C",
"F  c #020202",
"G  c gray64",
"H  c gray84",
"J  c gray1",
"K  c gray71",
"L  c gray92",
"P  c #797979",
"I  c #1E1E1E",
"U  c #F6F6F6",
"Y  c #0B0B0B",
"T  c #C6C6C6",
"R  c #E1E1E1",
"E  c #606060",
"W  c #F9F9F9",
"Q  c #FDFDFD",
"!  c gray35",
"~  c #373737",
"^  c #F8F8F8",
"/  c #747474",
"(  c #848484",
")  c gray49",
"_  c gray59",
"`  c #343434",
"'  c #323232",
"]  c #313131",
"[  c #3A3A3A",
"{  c #4B4B4B",
"}  c #9A9A9A",
"|  c #CBCBCB",
" . c gray88",
".. c gray66",
"X. c #838383",
"o. c #E9E9E9",
"O. c #464646",
"+. c #868686",
"@. c gray6",
"#. c #C5C5C5",
"$. c #151515",
"%. c gray97",
"&. c #F1F1F1",
"*. c #E4E4E4",
"=. c gray87",
"-. c gray62",
";. c #939393",
":. c DimGray",
">. c #7C7C7C",
",. c gray18",
"<. c gray17",
"1. c gray16",
"2. c #272727",
"3. c gray14",
"4. c gray13",
"5. c gray81",
/* pixels */
"                                                                                                                                ",
"                                                                                                                                ",
"                                                                                                                                ",
"                                                                                                                                ",
"                                                                                                                                ",
"                                                                                                                                ",
"                                                                                                                                ",
"                              . X o o o o o o o o o o o o o o o X O +                                                           ",
"                              @ # $ $ $ $ $ $ $ $ $ $ $ $ $ $ $ % & * = - ;                                                     ",
"                              : > , , , , , , , , , , , , , , , , , , , , < 1 2                                                 ",
"                              : > , , , , , , , , , , , , , , , , , , , , , , , 3 4                                             ",
"                              : > , , , , , , , , , , , , , , , , , , , , , , , , 5 &                                           ",
"                              : > , , , , 6 7 8 % 9 0 0 0 0 0 0 7 , , , , , , , , , , q o                                       ",
"                              : > , , , , w e r t y u u u u u u i p a s , , , , , , , , d                                       ",
"                              : > , , , , w f                           - & , , , , , , , g .                                   ",
"                              : > , , , , w f                             h j , , , , , , k l                                   ",
"                              : > , , , , w f                               z x , , , , , , c                                   ",
"                              : > , , , , w f                                 v b , , , , , k n                                 ",
"                              : > , , , , w f                                   m , , , , , , M                                 ",
"                              : > , , , , w f                                   N B , , , , , V                                 ",
"                              : > , , , , w f                                   N C , , , , , Z                                 ",
"                              : > , , , , w f                                   . j , , , , , #                                 ",
"                              : > , , , , w f                                   . A , , , , , w S                               ",
"                              : > , , , , w f                                     A , , , , , 5 D                               ",
"                              : > , , , , w f                                   F G , , , , , H                                 ",
"                              : > , , , , w f                                   J K , , , , , V                                 ",
"                              : > , , , , w f                                   n L , , , , , P                                 ",
"                              : > , , , , w f                                   I U , , , , $ Y                                 ",
"                              : > , , , , w f                                   T , , , , 6 R                                   ",
"                              : > , , , , w f                                 E W , , , , Q !                                   ",
"                              : > , , , , w f                               ~ ^ , , , , , d D                                   ",
"                              : > , , , , w f                           v ! , , , , , , , /                                     ",
"                              : > , , , , 5 !                       N ( H Q , , , , , , )                                       ",
"                              : > , , , , 6 _ ` ' u ] ] ] [ { E } |  ., , , , , , , , ..N                                       ",
"                              : > , , , , , , , , , , , , , , , , , , , , , , , , 0 X.z                                         ",
"                              : > , , , , , , , , , , , , , , , , , , , , , , , o.O.                                            ",
"                              : > , , , , , , , , , , , , , , , , , , , , , R +.@.                                              ",
"                              : > , , , , , , , , , , , , , , , , , , 5 #.2 $.                                                  ",
"                              : > , , , , 6 %.&.k $ 8 L o.*.=.d -.;.:.N                                                         ",
"                              : > , , , , w >.,.<.1.2.3.4.@ @.+                                                                 ",
"                              : > , , , , w f                                                                                   ",
"                              : > , , , , w f                                                                                   ",
"                              : > , , , , w f                                                                                   ",
"                              : > , , , , w f                                                                                   ",
"                              : > , , , , w f                                                                                   ",
"                              : > , , , , w f                                                                                   ",
"                              : > , , , , w f                                                                                   ",
"                              : > , , , , w f                                                                                   ",
"                              : > , , , , w f                                                                                   ",
"                              : > , , , , w f                                                                                   ",
"                              : > , , , , w f                                                                                   ",
"                              : > , , , , w f                                                                                   ",
"                              : > , , , , w f                                                                                   ",
"                              : > , , , , w f                                                                                   ",
"                              : > , , , , w f                                                                                   ",
"                              : Q , , , , , f                                                                                   ",
"                              o | 5.5.5.5.q 2                                                                                   ",
"                                                                                                                                ",
"                                                                                                                                ",
"                                                                                                                                ",
"                                                                                                                                ",
"                                                                                                                                ",
"                                                                                                                                ",
"                                                                                                                                "
};
