/* XPM */
static char *_889f563a7c3421afb2141ab46d66a9c7nFB3Dpfhf35Nw9D[] = {
/* columns rows colors chars-per-pixel */
"64 64 69 1 ",
"  c black",
". c #093300",
"X c #136600",
"o c #7D7D7D",
"O c #2FFF00",
"+ c #8CFF72",
"@ c #0090FF",
"# c #00E9FF",
"$ c #828282",
"% c #888888",
"& c #B7A584",
"* c #C3A984",
"= c #CBAC87",
"- c #C3AC8B",
"; c #CBAE8A",
": c #C7B28F",
"> c #CDB38E",
", c #D1B48E",
"< c #C9AF92",
"1 c #CDB391",
"2 c #CFB893",
"3 c #D2B692",
"4 c #D8B794",
"5 c #D4BA95",
"6 c #D9BB96",
"7 c #D1B798",
"8 c #D6BC99",
"9 c #DABE9A",
"0 c #E0BF97",
"q c #E0BF99",
"w c #DABFA0",
"e c #D7C097",
"r c #DBC194",
"t c #D7C09B",
"y c #DCC29D",
"u c #E1C39E",
"i c #E9C49F",
"p c #E4C89F",
"a c #D5C3A1",
"s c #DEC4A0",
"d c #DFC9A2",
"f c #E3C6A1",
"g c #E8C7A2",
"h c #E5CAA3",
"j c #EACCA5",
"k c #E6CCA9",
"l c #ECCEA9",
"z c #F1CFA7",
"x c #F0CEA9",
"c c #ECD1A6",
"v c #EDD2AB",
"b c #F1D1A7",
"n c #F3D4AC",
"m c #F8D6AE",
"M c #F4D8AE",
"N c #F9D8AE",
"B c #ECD3B0",
"V c #EFD8B1",
"C c #F6D6B1",
"Z c #F8D7B1",
"A c #F6DAB2",
"S c #FADCB4",
"D c #F7E0B4",
"F c #FBE1B6",
"G c #FDE3BA",
"H c #C3C3C3",
"J c #CBCBCB",
"K c #D5FFCC",
"L c white",
/* pixels */
"5yrihNZi6544jMMu92lyyhgdd2fhjyf5hhthjjpuuu9uyjnfujhufhhfftfhj642",
"ylqw;439gl:9l83>hb5f81,dlbn9hydnhy99334uhl35chy9fhhyt:,yccc652df",
"g8fsy1sjhlvhysyjld5yjvvcA86f69653yhcy7fjhllpy8ygpf6yjnnvAytfuy9u",
"hflChgcjjy98vZS935jnuuuy>58489hbbjbjhpjhgd98jnSq37jbyfut2398yjuj",
"yu69jnM;fv2y7;4hfjc4:8rydyujjcj6yyu5jbm;yl5y4>4ffjc4276yydygbMjA",
"8u99844uf&hflclllu6VMfhbnSbhuu>yjh3y843up-hsjlllb94vMhpznZbj45t9",
"jyhhx9hluSkc7498>ys9fMnh;85uthyp65cljthxuScl55uf36d8fAMh;86utyyh",
"66ub9fl;66468sg6thhjb3pyfhljhnMjr5ljyul;545389y59hhjM3pyhhjcMcnu",
"79;ylj9f7-83ynMtnV84hu55Al93y45fyM3rlj9s3-93fjntnV559p53Sl937>93",
"4hss99flnjfjl543y4tfupjl86uhtyfhj59yy9fmMjfhx857u55dfthh86uhfcly",
"cfjMj4f93hzjw8hhyjcuuyy9hhhccc    jnj3y74lcly7jlyhpMh58ugjhvl36h",
"6h=4y9cnuqu,fjchcr65dlMcjz98u LL   6fhj8,9u,yjluyyu5hchlku423jnb",
"yut9hvu,ylhhjlSf698nfyuy9yy56 LL   ycnDcbh8hjufthlycjghfygjyu634",
"f4jjbh9jlh966932hxSuyllcj4uMj LL   Zlu9ffhkc4y9uvu5589flmpuMxhhh",
"y6jZ54yn3y9kfhdhCf9knGsuph            5h4y5yhkyf96ujhMdfqfc63jjf",
"Cxju9lCiuunSSZZSwgvAq9fylj            CuyunASZAnjjnjs9h9fuyyVjjA",
"fj9yZSuSvZh0pfl5   3t8    LLLLLLLLHHHH    hqh   ju,588nAfhjyd644",
"4hvh635y6q5*9y3l   AMn    LLLLLLLLHwHH    5*9   u5uMnAuylScZSlf7",
"SxZGFc7ltygjcl    L   LLLLLLLHLLLLHLLLHHHJ   L    huku8vlyh79ylC",
"ghq5dGFnlnSGnk       LLLHHHHH$LLHHH$oHHHHJ        yf4hll8Mglnky>",
"y4wl983jhqfyu9       L#LHHHHH$LLHHH$$HHHHJ        DGAvjfSwfdMhAA",
"lxSSSSvph999fhhn   LL@HHLLLo$H@@###@HHo$HHH     yy5984tyysxluy8y",
"Af99649lyhyMSASf  LLLLLLHHHJHHHHHHHH@Ho$ooH     cdclfdMAFndf9AnC",
"68hkk9dvvZS944uM  LLLLLLHHHHHHHHHHHHHHo$$oH     ZjjcGAh99yyVAygj",
"fnbSSSSl64<qSMDh  LHHHHHHHH$$$HHHH$$$H  $oH     -8t8tyft7khjjls5",
"hAFkgs36sf4Cf4yh  LHHHHHHHH$$$JHHJ$$$J  $oJ     dnbGChjhnC9s49fl",
"nf944hklcZSfll  LLLHH$HHHJ$$$$$$$$$$$$HH$% $$     hykAShf4klkjuy",
"9yfvMSSSu33lZn  LLHLLLHH$oHHH     $$$$$$$$$$$     9kn4uyddSlBch9",
"nVgvf74194tb1y  LLHLLLHH$oHHH     $$$$$$$$$$$     vSy5hhjllkChSC",
"jys6dhldfhC     HHHLL$HH$$$  KK+OO $$$$$$% $$        fcAGlklqlyg",
"6ynClbfCSf LLL  LLLooHoo$$$  KL+OO   $  $$%       %%% Sy87fjlgl9",
"dlCs45982l LLL  LLL$$Ho$$$$  +++OO   $  $$$       $$$ dhjtk-dfkv",
"hjuyh5y38n      HHLLLHHH$$$  OOOXX    %$  $ @         yybhAg3zlu",
"Muhfhhyllh      HHLLLHHH$$$  OOOX.    %$  %           MS635fjlpG",
"thfjnMjl6ky     HHLHHHHH$$$$$         %$$% $$        SAthhhh94ff",
"ju454,9218f9fh    HHHHo$$$$$$$        #@$%        v93659lSSjy89s",
"fyhy99y9ulgjxl    HHH@@$$$$$$$       #  $%        49lk5cfly49dnZ",
"6hbnvclClqb69n    $HHHo#  $  $        %$  $       dvSlMu998ycns3",
"hru31898869flu96   oo %$#@ %% %%%%   %          4lc621763gbbls4f",
"y65t9639fk9li<71   $$ %$$%@$$ %$$%   $          lv5cjfyjjnh9yt9y",
"yjMijnnMfyycfncC     $    $  $  $$$   %$        h95bMhhM76t9skd9",
"py495y4hf99455u6     %    %  $  %%%   %%        tlcf,,:>ss34cCll",
"4thyy8cys9,hthu1ub      $%   $                s1fv6uuh8kijjbN396",
"jcjhlc6hccnhcypC5>                            fSf639ykcvb523y69y",
"vjlhcshl,yub69855y                            d44dfxhlju749jbjll",
"54969cg,897,uhhC  $                          $  kljsy665jlM9,3,5",
"y969,lhgcy6yhv94                                yt94&py5h9h46yju",
"hc9ghf965pnbb59a                                jyt5c39bp3hMln39",
"l9zuyls849Sy4ysc69   fy>tc            u84tS   sb99cneft>ycV839fl",
"6l589fCllh73fbS88j   nnMM9            Allk7   D86gnglnnNMthr>hp5",
"s8plbzjulhkhz65djn55>455569cn   $% lbjculihgb65yjC65>458596cM99y",
"jd549t4334yi6tnA6t6dy3yt>hlcb   $% 6994735up4ynN488sy2yt;hlbzhxb",
"skjkd7hldyyybjh9,fhbcvVvbyq74   $% ky8hcd9yyvjh92dhbcnnvbyy36836",
"clySZjyyllZjy54fMvy5>4yi4>6uyy    uSZjtyljZly83fMcy5:49i4>6;8q:d",
"y7;8>,uvM9dyle17=35yf5y78hhlbhhzr69413fxMyydl827;34yf2t58hjcbhll",
"8fhhdhAj9ucC6nmjjycbykcSjyr9993,ythhfhCj9uxn9ZcnjqlxyccSj9996949",
"hjl,lmf99l48y294d856y94yhgr58tyyuup,cmf99l75y8yyyt56s94uhj685yss",
"lu,dj97hfyhlfd7yyrdyu98Ayssjcbfhjj6hj97hdyhlhy89tyyu9ytMyushccfy",
"u9h48yhsvvS9hlMAMSMAjjb9lvbhtygfy4h38ujuvVA9hbMCMFMZjjbyjlbhythj",
"sh4y5yylk88yg6fd2yy89u96u96y9hy9,d,8:89lcyytjyhy2ry6tytth999yf85",
"fglCcCMfjlnbuhf9jfyflujpy975cCCv8chfjnny9klnyt98jhwyuthpky9fbbVj",
"nh942869f98,zxSvyhAupjpyhlfnu99fnuufffkdhMVfkfADflSvhvjphjjnu9kc",
"hy9y5149699yf2sslMuy59,jnuytths45t847yfvChwsvFhlChf4hf4jvy99yfds",
"usvvvlljlllC8ykhA9ylnjjhytuyjvnbjplhhlln9fgchyfvy7ydcyjjy8shhnll"
};
