/* XPM */
static char *_57e6b6a157b4ebeff2ad0178e047fc8MDGr2PBYiKzxluTe[] = {
/* columns rows colors chars-per-pixel */
"64 64 153 2 ",
"   c black",
".  c #093300",
"X  c #136600",
"o  c #7D7D7D",
"O  c #2FFF00",
"+  c #8CFF72",
"@  c #0090FF",
"#  c #00E9FF",
"$  c #828282",
"%  c #898989",
"&  c #B7A584",
"*  c #C3A984",
"=  c #CBAC87",
"-  c #C3AC8B",
";  c #CBAE8A",
":  c #C7B28F",
">  c #CDB38E",
",  c #D1B48E",
"<  c #C9AF92",
"1  c #CDB391",
"2  c #CFB893",
"3  c #D2B692",
"4  c #D8B794",
"5  c #D4BA95",
"6  c #D9BB96",
"7  c #D1B798",
"8  c #D6BC99",
"9  c #DABE9A",
"0  c #E0BF97",
"q  c #E0BF99",
"w  c #DABFA0",
"e  c #D7C097",
"r  c #DBC194",
"t  c #D7C09B",
"y  c #DCC29D",
"u  c #E1C39E",
"i  c #E9C49F",
"p  c #E4C89F",
"a  c #D5C3A1",
"s  c #DEC4A0",
"d  c #DFC9A2",
"f  c #E3C6A1",
"g  c #E9C7A2",
"h  c #E8C7A1",
"j  c #E8C7A2",
"k  c #E3C8A2",
"l  c #E0CAA3",
"z  c #E4C8A0",
"x  c #E4C8A1",
"c  c #E5C9A1",
"v  c #E7CAA1",
"b  c #E4C9A2",
"n  c #E6C9A3",
"m  c #E7CAA2",
"M  c #E7CBA3",
"N  c #E7CAA3",
"B  c #E3C8A4",
"V  c #E0CAA5",
"C  c #E7CBA5",
"Z  c #E4CBA6",
"A  c #E7CDA5",
"S  c #E7CEA5",
"D  c #E7CCA7",
"F  c #E5CAA4",
"G  c #E8C8A1",
"H  c #E9C9A3",
"J  c #EBC9A3",
"K  c #E8CBA3",
"L  c #EACBA2",
"P  c #EDCEA2",
"I  c #EAC8A5",
"U  c #E9CBA5",
"Y  c #EBCBA6",
"T  c #E8C8A4",
"R  c #E9CCA5",
"E  c #E9CCA4",
"W  c #EACCA4",
"Q  c #E9CEA5",
"!  c #E9CDA6",
"~  c #EBCCA7",
"^  c #E9CFA6",
"/  c #EBCEA7",
"(  c #ECCFA7",
")  c #EECEA7",
"_  c #EACCA5",
"`  c #E7CDA8",
"'  c #E6CCA9",
"]  c #E9CFA8",
"[  c #EACEAB",
"{  c #EDCDA8",
"}  c #ECCEA9",
"|  c #EFCFA8",
" . c #EECFA8",
".. c #EBCEA9",
"X. c #F1CFA7",
"o. c #F0CEA9",
"O. c #E8D0A7",
"+. c #ECD1A6",
"@. c #EBD1A8",
"#. c #ECD0A9",
"$. c #ECD0A8",
"%. c #EED1A9",
"&. c #ECD1AB",
"*. c #ECD0AB",
"=. c #EFD1AB",
"-. c #EFD6AB",
";. c #ECD0AC",
":. c #EDD0AD",
">. c #EFD4AE",
",. c #EED4AC",
"<. c #EDD2AB",
"1. c #F1D1A7",
"2. c #F0D1A9",
"3. c #F2D3A8",
"4. c #F3D3A9",
"5. c #F3D1AA",
"6. c #F3D3AA",
"7. c #F3D3AB",
"8. c #F1D4A9",
"9. c #F4D4AB",
"0. c #F2D2AC",
"q. c #F3D2AC",
"w. c #F2D5AD",
"e. c #F1D7AE",
"r. c #F1D5AC",
"t. c #F6D6AD",
"y. c #F7D7AF",
"u. c #F2D4AC",
"i. c #F8D6AE",
"p. c #F3DAAD",
"a. c #F4D8AF",
"s. c #F9D8AE",
"d. c #ECD3B0",
"f. c #EFD8B1",
"g. c #F6D6B1",
"h. c #F8D7B1",
"j. c #F6D9B1",
"k. c #F5DAB1",
"l. c #F7DBB1",
"z. c #F6D9B2",
"x. c #F9D9B0",
"c. c #F8D9B1",
"v. c #F9D9B1",
"b. c #FAD9B2",
"n. c #FEDCB7",
"m. c #FADCB4",
"M. c #F7E0B4",
"N. c #FBE1B6",
"B. c #FDE3BA",
"V. c #C3C3C3",
"C. c #CBCBCB",
"Z. c #D5FFCC",
"A. c white",
/* pixels */
"5 y y u N y.x.u 6 5 4 5 E k.t.u 6 2 &.9 y N C d V 2 d x I y x 5 V J y N Q E i y u u 9 u y E $.i u I x y f N f f d 8 V N E 9 5 , ",
"y ) 9 q ; 4 3 9 T | 1 t ..5 3 > C ,.5 f t 1 , y ..4.o.0 x y d a.N y 6 9 , 3 6 u N ..1 t ) D u 9 f N u f t 1 , y $.$.+.6 5 1 d f ",
"T 8 B f y 1 s E I ` &.x y 9 y I E d 6 y P ,.&.@.k.8 9 u 9 9 5 5 3 y x ..y 5 f N N ` @.i y 5 y T x x 6 y P ,.>.$.k.u y u u 8 q u ",
"C f ..0.N h @.E J y 9 9 w.k.n.y 5 5 J q.y f i 9 1 5 8 5 5 9 C 8.1.C 4.D C u +.F I s 9 8 F a.x.u 5 5 J w.y f u y 1 5 8 8 y Q x I ",
"y u 6 9 Y q.g.; f &.3 y 7 - 5 C f D ..5 1 5 y y y s y J E E I 6 9 y u 8 N 9.t.; y ;.5 y 5 3 5 B s D ..6 > 5 5 y y d y J 4.w.E x.",
"8 u 8 y 5 6 4 u B & Z f ..) Y ..4.9 8 0.a.d p 1.t.m.9.N x f > y Q N 3 y 8 4 5 y x * Z s I J o...1.9 8 @.t.d N 1.q.x.4.J 5 5 y 9 ",
"I u x x o.9 C ..u n...E 8 8 9 8 > y s 9 d t.9.N ; 8 5 u y F y J 6 e @.E I y I ..u m.D ) 5 5 y x 5 6 d t B k.q.N ; 5 5 y y y y N ",
"6 6 u 4.9 d Y ; 6 5 4 4 8 q x 9 e D D x 4.3 p y B C P J p $.k.N 6 5 ..E y f Y ; 6 5 5 3 8 9 y 5 6 F F J t.3 x y V D J +.a.$.w.y ",
"7 9 ; y ;.J 9 f 7 - t > x 4.k.t t.,.5 5 N u 5 5 z...9 5 y 5 5 f y y., e ) I y d 1 - 9 3 f E w.9 w.p.5 5 y u 5 5 m...9 5 7 > 8 3 ",
"5 C y d 9 9 f ) 9.I x I ..5 5 1 u 5 9 V x u N ) 8 6 u x y y f C E 5 5 p y 9 f t.t.I x C o.8 5 7 u 5 5 V x e F N 5 9 u f d ) E u ",
"E f E t.J 5 u y , i ) Q 9 8 B B y E E p u y u 6 N f N $.E $.        E t.Y 3 y 7 4 P @.E 9 7 C ..y D y a.p 8 8 u C D x 4.$.3 6 I ",
"6 I = 3 y y $.t.u u u , B E $.J +.y 6 5 s ..w.,.C 4.9 5 u   A.A.      6 d C E 5 3 y f > f E ..u y y u 5 C E C ..I f 5 3 3 N 0.4.",
"y u 9 9 J $.u > u $.N C Y ..m.f 4 9 5 8.i y u y 9 y u 5 6   A.A.      y ..4.m.@...E 5 V ) i u 9 N Y y $.Y J f u y x E y u 8 7 5 ",
"f 5 ) E o.h y I ..u y 5 6 9 3 > C 0.m.u y ......I 5 u q.E   A.A.      x...u 9 u f x ` E 5 y 9 u ,.y 5 5 5 y V ..i.J u a.4.f x N ",
"y 6 E g.5 8 y q.3 y 9 Z f B V x g.f 9 D >.B.d y x E                         5 C 5 9 8 d f D s f e 6 u J x g.d u q f +.5 , J Y i ",
"g.o.Y u 9 ..g.x y u 0.m.n.m.x.m.9 x w.g.y 9 f y ..E                         g.f 9 x 4.g.m.x.g.w.I J 9.Q s 9 B y f u y y f.) D k.",
"f J 9 y x.m.u m.8.x.N 9 i d D 5       , y 8         A.A.A.A.A.A.A.A.V.V.V.V.        N q N       E p 3 5 8 8 w.m.u V D y f 8 4 4 ",
"6 B $.E 6 3 5 y 6 9 5 * 9 y 5 ..      z.g.&.        A.A.A.A.A.A.A.A.V.V.V.V.        5 * 8       x 5 i >.w.k.u y Y n.$.z.m...f 8 ",
"x.o.h.B.B.@.7 ) y y I E ) )         A.      A.A.A.A.A.A.A.V.A.A.A.A.V.A.A.A.V.V.V.C.      A.        D y D u 8 ;...y B 5 9 y I g.",
"T h 9 8 y B.B.$...0.m.B.&.E               A.A.A.V.V.V.V.V.$ A.A.V.V.V.$ o V.V.V.V.C.                f y 5 D ....6 t.J ` 0.` y > ",
"u 3 s C y 5 5 I B q x 9 u 9               A.A.A.V.V.V.V.V.$ A.A.@ # V.$ $ V.V.V.V.C.                l.B.k.@.C f n.9 f d a.x k.z.",
"....m.n.m.m.&.p x 9 9 9 f x C &.      A.A.A.@ V.A.A.A.o $ V.V.V.V.V.@ V.V.V.o $ V.V.V.          r y 5 y 5 6 9 y y s o...u y 8 s ",
"k.x 9 9 6 4 9 @.y V y t.m.k.m.f     A.A.A.A.A.A.V.V.V.C.V.V.V.V.V.V.V.V.V.V.o $ o o V.          [ d $.@.C d w.z.N.w.d B 9 z.g.g.",
"6 9 B [ C 9 V &.4.g.n.9 5 4 f w.    A.A.A.A.A.A.V.V.V.V.V.V.V.V.V.V.V.V.V.V.o $ $ o V.          m.I I @.B.k.N 9 9 y t g.m.9 x C ",
"f 0.&.m.n.m.m.Y 9 3 , q k.t.m.C     A.V.V.V.V.V.V.V.V.$ $ $ V.V.V.V.$ $ $ V.    $ o V.          - 8 y 8 y y y y 7 Z D J N E d 7 ",
"N g.N.D x f 3 6 s f 4 g.N 8 y C     A.V.V.V.V.V.V.V.V.$ $ $ C.V.V.C.$ $ $ V.    $ o C.          y w.$.n.g.V Q F >.g.9 f 6 9 x ) ",
"g.f 9 5 5 d ..[ ) m.z.f D ..    A.A.A.V.V.$ V.V.V.V.$ $ $ $ $ $ $ $ $ $ $ $ V.V.$ %   $ $           C y ` k.l.J f 8 D ..C Y u y ",
"9 9 B $.g.z.n.b.9 3 4 D x.9.    A.A.V.A.A.A.V.V.$ o V.V.V.          $ $ $ $ $ $ $ $ $ $ $           9 ` q.5 y y y Z m.D d...C 9 ",
"0.w.I >.y 5 4 > 9 6 y o.> y     A.A.V.A.A.A.V.V.$ $ V.V.V.          $ $ $ $ $ $ $ $ $ $ $           g.l.y 5 D D D ..D D t.x n.d.",
"I y y 9 d D ..d f B g.          V.V.V.A.A.$ V.V.$ $ $     Z.Z.+ O O   $ $ $ $ $ $ %   $ $                 f $.a.B.:...o.q [ y C ",
"9 u 0.0...4.f g.m.f   A.A.A.    A.A.A.o o V.o o $ $ $     Z.A.+ O O       $     $ $ %               % % %   m.d 8 3 f D ..B &.9 ",
"d E g.d 4 5 8 8 3 D   A.A.A.    A.A.A.$ $ V.o $ $ $ $     + + + O O       $     $ $ $               $ $ $   s f C y B ; f B B 4.",
"E N u y x 5 y 3 9 0.            V.V.A.A.A.V.V.V.$ $ $     O O O X X         % $     $                       y y 9.i x.i 5 1.) y ",
"a.u D u N N y ....f             V.w A.A.A.V.V.V.$ $ $     O O O X .         % $     %                       w.m.5 2 7 V J ) N B.",
"9 f N J 0.t.....9 C f           V.V.A.V.V.V.V.V.$ $ $ $ $                   % $ $ %   $ $                 m.k.y C C V J 9 5 f f ",
"E y 6 5 5 1 9 2 1 8 f 9 x B         V.V.V.V.o $ $ $ $ $ $ $                     $ %                 ,.9 3 9 5 8 ..l.m.Y y 8 9 y ",
"N y x y 8 9 9 9 u ) N E o.[         V.V.V.V.o $ $ $ $ $ $ $                 @   $ %                 5 9 ..@.5 1.f [ 9 5 9 d q.h.",
"9 N 9.8.4.1.| g.) 9 o.9 9 0.        % V.V.V.$ $     $     $                 % $     $               u ..m.) 8.y 9 9 8 y $.w.u 3 ",
"x 6 y 3 > 8 8 9 6 8 9 u o.u q 8       o $   @ # % %   % %   % % % %       %                     5 D 4.8 1 1 5 9 3 B 1.4...y 5 f ",
"y 6 5 y 8 8 3 8 C D y D u ; 7 1       $ $   % $ @ %   $ $   % $ $ %       $                     E 0.5 ....f y D J q.N y 9 y 9 y ",
"y J t.u ) 8.w.t.x y y 1.f 4.4.4.          $         $     $     $ $ $       % %                 V 8 2 4.w.N l a.4 8 8 9 s D B 9 ",
"u y 4 9 5 y 5 N u 9 y 5 5 3 u 9           %         %     $     % % %       % %                 y | ..x > , > > s s 3 4 @.0.$...",
"8 y f y y 8 $.y s 9 3 x y V u < B o.            $ %       $                                 y 1 f o.9 u f F 8 ` u E ) 4.y.4 9 9 ",
"E +.E D E $.6 N $.$.&.p +.t x g.5 1                                                         f m.f 6 1 9 y O.$.@.9.5 , 3 y 5 9 y ",
"8.I ..C $.y N $., 9 f 9.6 8 8 5 5 y                                                         s 4 3 d f o.V $.) i 3 5 y o.4.) ) ) ",
"5 5 9 6 y $.h 3 8 y 5 > u N J g.    $                                                     $     ....E s y 5 6 5 E $.8.9 , , 1 3 ",
"y 9 8 9 , ) x J $.y 6 y D @.9 5                                                                 y 6 9 5 & u y 2 C 9 x 4 6 y Q u ",
"N ..9 I x f 9 5 4 u 8.9.1.5 9 a                                                                 ) y 9 5 @.5 9 4.i 3 V w.) 9.7 9 ",
"P 9 o.i 9 [ u 9 4 8 n.9 5 9 s ..9 9       f y > y $.                        y 8 7 9 m.      s 4.9 9 ..8.8 f y , y $.>.y , y d Y ",
"5 ..5 8 9 x z...Y D 7 3 C 4.m.8 8 J       8.w.a.8.9                         k.) Y O.5       m.5 6 J 0.B ..4.,.y.9.e x y > f i 5 ",
"w 8 p @.9.J ) u ..f C x X.5 5 y E t.5 5 > 5 5 5 5 8 9 +.w.      $ %   ..9.J ) u ..u C x o.6 5 y E g.9 5 > 5 5 2 5 6 8 $.w.y 9 y ",
") d 5 5 9 9 5 3 3 5 u h 6 y a.l.6 8 6 s y 3 9 y > N ) $.4.      $ %   6 9 9 5 7 3 5 y i 6 y t.k.6 8 5 y s 3 9 y > N P $.1.i ..w.",
"s ` B D s 5 B ..s s y y 4.I V 9 3 d C X.P w.w.w.$.y q 3 5       $ %   ` f 2 C E f y y y >.E C 9 , d C $.P 8.w.>.4.y y 3 5 5 1 y ",
"&.E d m.m.E y y $.I x.I y 5 4 u t.$.y 5 > 5 s u 5 > 8 u y u         f x.x.Q y y ..Y x.I y 5 3 f t.&.y 5 > 8 u u 5 > 5 ; 8 u > u ",
"y 7 ; 5 > , f &.a.y y d ..8 1 8 ; 3 5 y B 2 y 3 5 B E o.4.x C ) r 5 9 8 > 3 f &.g.s d s ..8 1 5 ; 3 5 y B 5 8 5 8 x F 1.1.N ..@.",
"8 f C N d N g.T 9 u 4.a.6 8.i.E N f E 4.y E $.x.) r y 6 6 9 3 3 y 9 f N f B k.I 9 q 4.q.9 x.$.>.J y ) 4.y Q $.x.P 9 y 6 6 9 7 9 ",
"C Y ) , ..i.u 9 y ..5 5 9 7 9 5 y 9 5 6 s 9 5 y J Y e t 5 y y y i y i , @.t.u 9 y @.5 5 y 9 y y y 8 5 6 s 9 5 y I I 9 8 5 y s y ",
") u , d I 6 7 C f y C ..V d 7 u y t d y 9 y 9 k.y u y F +.$.f J Q +.6 x I y 7 C f y V ) x s 8 y y t p y 9 y t g.y u y F O.1.x y ",
"y 9 C 4 t y D s ;.,.l.9 x ..8.h.p.l.k.x.Y E 4.9 ..@.$.I y y T x 9 5 C 3 8 x J u ;.d.k.9 x $.t.h.a.l.a.x.I E 4.y I $.&.N t y D E ",
"s f 5 y 5 y y ..D 8 8 y J 6 f d 5 y y 8 9 u 9 6 y y 5 y 9 p y 9 , d , 8 : 8 8 ..O.y y y E y B y > y y 5 y u 5 y f y y 9 9 x 5 5 ",
"V I ..g.0.a.t.u I ..4.0.u B B 8 E f y f ) f E x y 9 5 7 $.t.g.&.8 E N f C 0.w.y y C ` w.y t w 5 E V s y u 5 Q p ..9 9 d ,.t.d.E ",
"0.x 9 4 1 5 9 9 f 9 8 1 X.4.z.&.y D k.y u E f u C E x w.y 9 9 u t.u u f N f ` s I a.d.x [ x w.m.N ..m.&.N ,.E f C E E 0.u 6 V $.",
"N y y y 5 1 5 9 8 9 9 y f 7 s s ) w.u y 5 y , J $.u y 9 y V d 5 5 y 8 8 4 y B >.g.l 9 B >.M...D 0.D f 5 E x 5 J &.y 9 y y f Z f ",
"u y &.&.,.....) Y ..) t.6 y D E k.9 y ) w.D Q N y y y y I 0.4.$.E u ..C V E $.o.9 f h $.V 9 d >.9 5 y f @.y E E y 8 y C C 0.E .."
};
