/* XPM */
static char *_d7f62fdaf4242f199f45e4a5e3a50cfV6MBioUliOY5QJ4D[] = {
/* columns rows colors chars-per-pixel */
"64 64 153 2 ",
"   c black",
".  c #330000",
"X  c #660000",
"o  c #7D7D7D",
"O  c red",
"+  c #FF7272",
"@  c #0090FF",
"#  c #00E9FF",
"$  c #828282",
"%  c #898989",
"&  c #B7A584",
"*  c #C3A984",
"=  c #CBAC87",
"-  c #C3AC8B",
";  c #CBAE8A",
":  c #C7B28F",
">  c #CDB38E",
",  c #D1B48E",
"<  c #C9AF92",
"1  c #CDB391",
"2  c #CFB893",
"3  c #D2B692",
"4  c #D8B794",
"5  c #D4BA95",
"6  c #D9BB96",
"7  c #D1B798",
"8  c #D6BC99",
"9  c #DABE9A",
"0  c #E0BF97",
"q  c #E0BF99",
"w  c #DABFA0",
"e  c #D7C097",
"r  c #DBC194",
"t  c #D7C09B",
"y  c #DCC29D",
"u  c #E1C39E",
"i  c #E9C49F",
"p  c #E4C89F",
"a  c #D5C3A1",
"s  c #DEC4A0",
"d  c #DFC9A2",
"f  c #E3C6A1",
"g  c #E9C7A2",
"h  c #E8C7A1",
"j  c #E8C7A2",
"k  c #E3C8A2",
"l  c #E0CAA3",
"z  c #E4C8A0",
"x  c #E4C8A1",
"c  c #E5C9A1",
"v  c #E7CAA1",
"b  c #E4C9A2",
"n  c #E6C9A3",
"m  c #E7CAA2",
"M  c #E7CBA3",
"N  c #E7CAA3",
"B  c #E3C8A4",
"V  c #E0CAA5",
"C  c #E7CBA5",
"Z  c #E4CBA6",
"A  c #E7CDA5",
"S  c #E7CEA5",
"D  c #E7CCA7",
"F  c #E5CAA4",
"G  c #E8C8A1",
"H  c #E9C9A3",
"J  c #EBC9A3",
"K  c #E8CBA3",
"L  c #EACBA2",
"P  c #EDCEA2",
"I  c #EAC8A5",
"U  c #E9CBA5",
"Y  c #EBCBA6",
"T  c #E8C8A4",
"R  c #E9CCA5",
"E  c #E9CCA4",
"W  c #EACCA4",
"Q  c #E9CEA5",
"!  c #E9CDA6",
"~  c #EBCCA7",
"^  c #E9CFA6",
"/  c #EBCEA7",
"(  c #ECCFA7",
")  c #EECEA7",
"_  c #EACCA5",
"`  c #E7CDA8",
"'  c #E6CCA9",
"]  c #E9CFA8",
"[  c #EACEAB",
"{  c #EDCDA8",
"}  c #ECCEA9",
"|  c #EECFA8",
" . c #EFCFA8",
".. c #EBCEA9",
"X. c #F1CFA7",
"o. c #F0CEA9",
"O. c #E8D0A7",
"+. c #ECD1A6",
"@. c #EBD1A8",
"#. c #ECD0A9",
"$. c #ECD0A8",
"%. c #EED1A9",
"&. c #ECD1AB",
"*. c #ECD0AB",
"=. c #EFD1AB",
"-. c #EFD6AB",
";. c #ECD0AC",
":. c #EDD0AD",
">. c #EFD4AE",
",. c #EED4AC",
"<. c #EDD2AB",
"1. c #F1D1A7",
"2. c #F0D1A9",
"3. c #F2D3A8",
"4. c #F3D3A9",
"5. c #F3D1AA",
"6. c #F3D3AA",
"7. c #F3D3AB",
"8. c #F1D4A9",
"9. c #F4D4AB",
"0. c #F2D2AC",
"q. c #F3D2AC",
"w. c #F2D5AD",
"e. c #F1D7AE",
"r. c #F1D5AC",
"t. c #F6D6AD",
"y. c #F7D7AF",
"u. c #F2D4AC",
"i. c #F8D6AE",
"p. c #F3DAAD",
"a. c #F4D8AF",
"s. c #F9D8AE",
"d. c #ECD3B0",
"f. c #EFD8B1",
"g. c #F6D6B1",
"h. c #F8D7B1",
"j. c #F6D9B1",
"k. c #F5DAB1",
"l. c #F7DBB1",
"z. c #F6D9B2",
"x. c #F9D9B0",
"c. c #F8D9B1",
"v. c #F9D9B1",
"b. c #FAD9B2",
"n. c #FEDCB7",
"m. c #FADCB4",
"M. c #F7E0B4",
"N. c #FBE1B6",
"B. c #FDE3BA",
"V. c #C3C3C3",
"C. c gray80",
"Z. c #FFCCCC",
"A. c white",
/* pixels */
"5 y y u N y.x.u 6 5 4 5 E k.t.u 6 2 &.9 y N C d V 2 d x I y x 5 V J y N Q E i y u u 9 u y E $.i u I x y f N f f d 8 V N E 9 5 , ",
"y ) 9 q ; 4 3 9 T  .1 t ..5 3 > C ,.5 f t 1 , y ..4.o.0 x y d a.N y 6 9 , 3 6 u N ..1 t ) D u 9 f N u f t 1 , y $.$.+.6 5 1 d f ",
"T 8 B f y 1 s E I ` &.x y 9 y I E d 6 y P ,.&.@.k.8 9 u 9 9 5 5 3 y x ..y 5 f N N ` @.i y 5 y T x x 6 y P ,.>.$.k.u y u u 8 q u ",
"C f ..0.N h @.E J y 9 9 w.k.n.y 5 5 J q.y f i 9 1 5 8 5 5 9 C 8.1.C 4.D C u +.F I s 9 8 F a.x.u 5 5 J w.y f u y 1 5 8 8 y Q x I ",
"y u 6 9 Y q.g.; f &.3 y 7 - 5 C f D ..5 1 5 y y y s y J E E I 6 9 y u 8 N 9.t.; y ;.5 y 5 3 5 B s D ..6 > 5 5 y y d y J 4.w.E x.",
"8 u 8 y 5 6 4 u B & Z f ..) Y ..4.9 8 0.a.d p 1.t.m.9.N x f > y Q N 3 y 8 4 5 y x * Z s I J o...1.9 8 @.t.d N 1.q.x.4.J 5 5 y 9 ",
"I u x x o.9 C ..u n...E 8 8 9 8 > y s 9 d t.9.N ; 8 5 u y F y J 6 e @.E I y I ..u m.D ) 5 5 y x 5 6 d t B k.q.N ; 5 5 y y y y N ",
"6 6 u 4.9 d Y ; 6 5 4 4 8 q x 9 e D D x 4.3 p y B C P J p $.k.N 6 5 ..E y f Y ; 6 5 5 3 8 9 y 5 6 F F J t.3 x y V D J +.a.$.w.y ",
"7 9 ; y ;.J 9 f 7 - t > x 4.k.t t.,.5 5 N u 5 5 z...9 5 y 5 5 f y y., e ) I y d 1 - 9 3 f E w.9 w.p.5 5 y u 5 5 m...9 5 7 > 8 3 ",
"5 C y d 9 9 f ) 9.I x I ..5 5 1 u 5 9 V x u N ) 8 6 u x y y f C E 5 5 p y 9 f t.t.I x C o.8 5 7 u 5 5 V x e F N 5 9 u f d ) E u ",
"E f E t.J 5 u y , i ) Q 9 8 B B y E E p u y u 6 N f N $.E $.        E t.Y 3 y 7 4 P @.E 9 7 C ..y D y a.p 8 8 u C D x 4.$.3 6 I ",
"6 I = 3 y y $.t.u u u , B E $.J +.y 6 5 s ..w.,.C 4.9 5 u   A.A.      6 d C E 5 3 y f > f E ..u y y u 5 C E C ..I f 5 3 3 N 0.4.",
"y u 9 9 J $.u > u $.N C Y ..m.f 4 9 5 8.i y u y 9 y u 5 6   A.A.      y ..4.m.@...E 5 V ) i u 9 N Y y $.Y J f u y x E y u 8 7 5 ",
"f 5 ) E o.h y I ..u y 5 6 9 3 > C 0.m.u y ......I 5 u q.E   A.A.      x...u 9 u f x ` E 5 y 9 u ,.y 5 5 5 y V ..i.J u a.4.f x N ",
"y 6 E g.5 8 y q.3 y 9 Z f B V x g.f 9 D >.B.d y x E                         5 C 5 9 8 d f D s f e 6 u J x g.d u q f +.5 , J Y i ",
"g.o.Y u 9 ..g.x y u 0.m.n.m.x.m.9 x w.g.y 9 f y ..E                         g.f 9 x 4.g.m.x.g.w.I J 9.Q s 9 B y f u y y f.) D k.",
"f J 9 y x.m.u m.8.x.N 9 i d D 5       , y 8         A.A.A.A.A.A.A.A.V.V.V.V.        N q N       E p 3 5 8 8 w.m.u V D y f 8 4 4 ",
"6 B $.E 6 3 5 y 6 9 5 * 9 y 5 ..      z.g.&.        A.A.A.A.A.A.A.A.V.V.V.V.        5 * 8       x 5 i >.w.k.u y Y n.$.z.m...f 8 ",
"x.o.h.B.B.@.7 ) y y I E ) )         A.      A.A.A.A.A.A.A.V.A.A.A.A.V.A.A.A.V.V.V.C.      A.        D y D u 8 ;...y B 5 9 y I g.",
"T h 9 8 y B.B.$...0.m.B.&.E               A.A.A.V.V.V.V.V.$ A.A.V.V.V.$ o V.V.V.V.C.                f y 5 D ....6 t.J ` 0.` y > ",
"u 3 s C y 5 5 I B q x 9 u 9               A.A.A.V.V.V.V.V.$ A.A.V.V.V.$ $ V.V.V.V.C.                l.B.k.@.C f n.9 f d a.x k.z.",
"....m.n.m.m.&.p x 9 9 9 f x C &.      A.A.A.V.V.A.A.A.o $ V.V.V.V.V.V.V.V.V.o $ V.V.V.          r y 5 y 5 6 9 y y s o...u y 8 s ",
"k.x 9 9 6 4 9 @.y V y t.m.k.m.f     A.A.A.A.A.A.V.V.V.C.V.V.V.V.V.V.V.V.V.V.o $ o o V.          [ d $.@.C d w.z.N.w.d B 9 z.g.g.",
"6 9 B [ C 9 V &.4.g.n.9 5 4 f w.    A.A.A.A.A.A.A.A.# V.V.V.V.V.V.V.V.V.V.V.o $ $ o V.          m.I I @.B.k.N 9 9 y t g.m.9 x C ",
"f 0.&.m.n.m.m.Y 9 3 , q k.t.m.C     A.V.V.V.V.V.A.V.V.$ $ $ V.A.A.A.A.$ $ V.    $ o V.          - 8 y 8 y y y y 7 Z D J N E d 7 ",
"N g.N.D x f 3 6 s f 4 g.N 8 y C     A.V.V.V.V.# V.V.V.$ $ # A.A.A.A.A.A.$ V.    $ o C.          y w.$.n.g.V Q F >.g.9 f 6 9 x ) ",
"g.f 9 5 5 d ..[ ) m.z.f D ..    A.A.A.V.V.o V.V.V.V.$ # # $ $ $ $ $ A.A.$ $ V.V.$ %   $ $           C y ` k.l.J f 8 D ..C Y u y ",
"9 9 B $.g.z.n.b.9 3 4 D x.9.    A.A.V.A.A.A.V.V.$ o @ @ V.          $ A.# $ $ $ $ $ $ $ $           9 ` q.5 y y y Z m.D d...C 9 ",
"0.w.I >.y 5 4 > 9 6 y o.> y     A.A.V.A.A.A.w V.$ @ V.V.V.          $ $ # $ $ $ $ $ $ $ $           g.l.y 5 D D D ..D D t.x n.d.",
"I y y 9 d D ..d f B g.          V.V.V.A.A.$ V.V.$ $ @     Z.Z.+ O O   # $ $ $ $ $ %   $ $                 f $.a.B.:...o.q [ y C ",
"9 u 0.0...4.f g.m.f   A.A.A.    A.A.A.o o @ o o $ $ @     Z.A.+ O O @ @   $   @ $ $ %               % % %   m.d 8 3 f D ..B &.9 ",
"d E g.d 4 5 8 8 3 D   A.A.A.    A.A.A.$ $ @ o $ $ $ $     + + + O @       $ #   $ $ $               $ $ $   s f C y B ; f B B 4.",
"D J y y x 5 y 3 9 0.            V.V.A.A.A.V.# # $ $ $     O O O X X       # # $     $                       y y 9.i x.i 5 1.) y ",
"a.u E f N N y ....f             V.V.A.A.A.V.V.V.# $ $     O O O X .       @ % $     %                       w.m.5 2 7 V J ) N B.",
"9 x N J 0.w.....9 C f           V.V.A.V.V.V.V.V.# A.$ $ $           @       % $ $ %   $ $                 m.a.y C C V J 9 5 f f ",
"I y 6 5 5 , 9 2 1 8 f 8 x B         V.V.V.V.o $ $ A.A.$ $ $   # # @             $ %                 @.y 3 9 5 8 ..l.m.Y y 8 9 y ",
"b y N y 8 9 9 9 u ) N E o.[         V.V.V.V.$ $ $ A.A.A.$ $ #                   $ %                 5 9 ..;.5 1.f Y 9 5 9 d q.x.",
"8 N 9.8.4.1. .g.) 9 o.9 9 0.        $ V.V.V.o $     A.A.  # #               % $     $               u $.m.Q 8.u 9 9 8 y $.w.f 3 ",
"N e y 3 > 8 9 9 8 8 9 u o.u 9 8       o o   % $ % %   A.A.A.% % % %       %                     5 C $.8 1 1 5 9 7 J 4.9...y 4 d ",
"y 6 5 y 8 8 , 9 B D y D q , 7 1       $ $   % $ $ %   $ $   % $ $ %       $                     ..0.6 ....f y D J 4.F 9 9 y 9 9 ",
"y i t.u ) 8.w.t.N y y 1.u 8.o.w.          $         $     $     $ $ $       % $                 V 8 2 4.w.N D a.5 8 8 9 s ..d 9 ",
"p y 4 9 6 y 8 x u 5 y 5 5 3 u 8           %         %     $     % % %       % %                 y  ...x > > > > s s 3 4 ..0.$...",
"8 y u y y 8 +.y y y > f d V u 1 u 4.            $ %       $                                 u < f o.6 u u D 8 C u E E 9.y.4 9 9 ",
"E +.E D E $.9 x ..,.>.N E y i t.5 >                                                         u n.s 9 1 9 y O.$.$.4.5 3 3 y 5 9 y ",
"4.I ) B $.y N 4., y y 4.5 8 9 5 5 y                                                         d 5 5 f x o.V $.) u 3 5 y ..4.X.) ) ",
"5 6 9 6 9 $.T > 8 9 5 , u N J w.    $                                                     $     D ..E f y 5 6 e E $.w.9 , > > 3 ",
"y 9 8 9 3 Y x g $.y 6 y D $.9 5                                                                 u e 8 4 & u y 2 I 9 x 4 6 y E u ",
"N ..9 T x d 9 6 5 i 9.9.1.5 9 a                                                                 Y y 8 5 @.5 9 4.i 3 x w...9.7 y ",
"P 9 o.u 9 [ u 9 4 8 n.y 5 y s ..9 9       f y > y $.                        y 8 7 9 m.      s 4.9 9 $.q.t f y > y $.>.y , 9 f ..",
"5 ..5 9 9 x z...Y D 7 3 f 4.m.8 8 J       8.w.a.8.9                         k.) ) ` 5       m.5 6 J 0.x ..4.8.y.8.y f t > x x 5 ",
"w 8 p @.9.Y ..q ..f C x X.6 5 y E g.9 1 > 5 5 5 5 8 9 +.w.      $ %   ..4.J $.u ..u C N o.6 5 y E w.9 2 > 5 5 2 5 9 8 @.w.y 9 y ",
") s 8 5 9 9 5 3 3 5 f i 6 y w.k.6 5 6 d y 3 9 y > N ) $.4.      $ %   5 q 9 5 3 3 5 y i 6 y t.k.6 9 5 s y 3 9 y ; N P 4.1.f ) t.",
"y ..I ` d 7 C ..d s y y $.E C 9 > x D 1.+.w.w.>.$.y q 3 5       $ %   ` f 7 V $.d y y 9 >.E C 9 3 f N $.P 8.w.>.4.y y 3 5 5 3 9 ",
"&.E y x.k.+.y y ..Y x.E y 5 3 u t.,.y 5 > 5 y u 5 > 8 u y u         f x.x.E y y Y Y b...y 5 3 f a.&.y 5 1 5 f u 5 > 6 ; 6 u ; d ",
"y 7 > 8 > , u &.t.y d y ..8 3 8 ; 3 5 y f 5 y 3 5 B E o.4.x D ) r 5 9 8 > , f $.g.u y d ..8 1 5 ; 3 5 y V 5 9 3 8 x E $.4.f ....",
"8 f V N d N z.T 9 q $.t.6 4.i.E N u E 4.y F 0.x.) r y 6 6 9 3 3 y 9 f N f B z.I y q ..i.9 h.$.w.J y ) 4.y Q $.x.J 9 9 9 6 9 5 9 ",
"x ) ) 3 ..i.u 9 y [ 5 5 9 2 8 8 y 9 5 6 s 9 5 y N ) 6 t 5 y y y i y J , ..i.u y 9 ..5 5 y 9 y y y t 5 6 s 9 5 y E I 9 8 5 y s y ",
") u , x I 9 7 C f y C ..C d 7 u y t d y u 9 8 k.y y y F +.) N x Q +.6 x D 6 7 N d y V ) x s 8 9 y y y y 9 9 y a.y u y F +.$.x y ",
"y y C 3 8 y C s &.>.k.9 x o.t.g.p.l.a.k.Y ) 1.9 ..$.$.J 9 y T x 9 5 C 3 8 x J y ;.>.k.9 x 4.w.g.a.l.a.x.Y E 4.y I @.&.C 9 y C E ",
"s f 5 y 5 y y ..` 8 8 y J 8 f y 5 y y 8 9 y 9 6 y y 9 8 y p y 9 , f , 8 : 8 9 $.O.y y y E y f d > y y 5 y u 8 8 x y 9 9 8 x 8 5 ",
"f I ..t.0.a.t.u I  .4.q.u B B 8 E x y f ) d E N y 9 8 3 $.i.t.;.8 E C x C >.w.y y C ..w.y t 9 8 E V s y u 5 Q x ..y 9 d 8.0.f.I ",
"&.B 9 4 1 8 8 y B 8 8 1 X.4.z.&.y D k.u u E f y C E x w.y 9 9 f t.u u f x f ..y I a.d.x ` C d.m.N ..m.$.N ,.E x V E E 4.u 9 V @.",
"x 9 y y 5 1 5 9 8 9 9 y f 3 s s ..w.f y 6 9 , J $.u y 9 y V d 5 5 9 8 5 7 y B >.w.V w s w.m...D 0.D f 5 E x 5 J &.q y 9 y f Z u ",
"u d 0.&.$.....) Y ) X.q.8 s D E g.9 y E t.C Q J y 8 y d J 0.0.$.E f ..C N C ..4.9 f J @.C t d >.9 5 y f @.y E E y 8 u V N 0....."
};
