/* XPM */
static char *_0fb0307c8e143c38973e6b95f966bedJO2kL6A0CiEo0NFv[] = {
/* columns rows colors chars-per-pixel */
"64 64 153 2 ",
"   c black",
".  c #330000",
"X  c #660000",
"o  c #7D7D7D",
"O  c red",
"+  c #FF7272",
"@  c #828282",
"#  c #898989",
"$  c #B7A584",
"%  c #C3A984",
"&  c #CBAC87",
"*  c #C3AC8B",
"=  c #CBAE8A",
"-  c #C7B28F",
";  c #CDB38E",
":  c #D1B48E",
">  c #C9AF92",
",  c #CDB391",
"<  c #CFB893",
"1  c #D2B692",
"2  c #D8B794",
"3  c #D4BA95",
"4  c #D9BB96",
"5  c #D1B798",
"6  c #D6BC99",
"7  c #DABE9A",
"8  c #E0BF97",
"9  c #E0BF99",
"0  c #DABFA0",
"q  c #D7C097",
"w  c #DBC194",
"e  c #D7C09B",
"r  c #DCC29D",
"t  c #E1C39E",
"y  c #E9C49F",
"u  c #E4C89F",
"i  c #D5C3A1",
"p  c #DEC4A0",
"a  c #DFC9A2",
"s  c #E3C6A1",
"d  c #E9C7A2",
"f  c #E8C7A1",
"g  c #E8C7A2",
"h  c #E3C8A2",
"j  c #E0CAA3",
"k  c #E4C8A0",
"l  c #E4C8A1",
"z  c #E5C9A1",
"x  c #E7CAA1",
"c  c #E4C9A2",
"v  c #E6C9A3",
"b  c #E7CAA2",
"n  c #E7CBA3",
"m  c #E7CAA3",
"M  c #E3C8A4",
"N  c #E0CAA5",
"B  c #E7CBA5",
"V  c #E4CBA6",
"C  c #E7CDA5",
"Z  c #E7CEA5",
"A  c #E7CCA7",
"S  c #E5CAA4",
"D  c #E8C8A1",
"F  c #E9C9A3",
"G  c #EBC9A3",
"H  c #E8CBA3",
"J  c #EACBA2",
"K  c #EDCEA2",
"L  c #EAC8A5",
"P  c #E9CBA5",
"I  c #EBCBA6",
"U  c #E8C8A4",
"Y  c #E9CCA5",
"T  c #E9CCA4",
"R  c #EACCA4",
"E  c #E9CEA5",
"W  c #E9CDA6",
"Q  c #EBCCA7",
"!  c #E9CFA6",
"~  c #EBCEA7",
"^  c #ECCFA7",
"/  c #EECEA7",
"(  c #EACCA5",
")  c #E7CDA8",
"_  c #E6CCA9",
"`  c #E9CFA8",
"'  c #EACEAB",
"]  c #EDCDA8",
"[  c #ECCEA8",
"{  c #ECCEA9",
"}  c #EDCFA9",
"|  c #EECFA8",
" . c #EFCFA8",
".. c #EBCEA9",
"X. c #F1CFA7",
"o. c #F0CEA9",
"O. c #E8D0A7",
"+. c #ECD1A6",
"@. c #EBD1A8",
"#. c #ECD0A8",
"$. c #ECD0A9",
"%. c #EED1A9",
"&. c #ECD0AB",
"*. c #ECD1AB",
"=. c #EFD1AB",
"-. c #EFD6AB",
";. c #ECD0AC",
":. c #EDD0AD",
">. c #EFD4AE",
",. c #EED4AC",
"<. c #EDD2AB",
"1. c #F1D1A7",
"2. c #F0D1A9",
"3. c #F2D3A8",
"4. c #F3D3A9",
"5. c #F3D1AA",
"6. c #F3D3AA",
"7. c #F3D3AB",
"8. c #F1D4A9",
"9. c #F4D4AB",
"0. c #F2D2AC",
"q. c #F3D2AC",
"w. c #F2D5AD",
"e. c #F1D7AE",
"r. c #F1D5AC",
"t. c #F6D6AD",
"y. c #F7D7AF",
"u. c #F2D4AC",
"i. c #F8D6AE",
"p. c #F3DAAD",
"a. c #F4D8AF",
"s. c #F9D8AE",
"d. c #ECD3B0",
"f. c #EFD8B1",
"g. c #F6D6B1",
"h. c #F8D7B1",
"j. c #F6D9B1",
"k. c #F5DAB1",
"l. c #F7DBB1",
"z. c #F6D9B2",
"x. c #F9D9B0",
"c. c #F8D9B1",
"v. c #F9D9B1",
"b. c #FAD9B2",
"n. c #FEDCB7",
"m. c #FADCB4",
"M. c #F7E0B4",
"N. c #FBE1B6",
"B. c #FDE3BA",
"V. c #C3C3C3",
"C. c #CBCBCB",
"Z. c #FFCCCC",
"A. c white",
/* pixels */
"3 r r t z v.v.t 7 3 2 3 Y l.t.t 4 < *.e r z M s N , h z Y t a 3 B B w z L Y t t f r 7 t w ' *.s t L h r u z f p a 7 N z Y 7 4 : ",
"r / 7 9 = 2 1 7 f o.- e { 3 1 ; A 8.4 s e , : r =.=.2.t s r p p.z r 7 7 3 1 4 t z { , 7 / A t 7 f z t s e , : r @.@.O.4 3 , p s ",
"U 6 M s r , p Y L ) *.f r r r L O.r 4 r K ,.r.=.l.6 4 t 4 7 3 1 1 r N / r 1 s z B ) ' f r 6 7 L h s 4 a K ,.>.;.z.r 7 s t 6 t t ",
"B s { 0.z f @.Y G r r 6 0.a.n.r 1 6 G 0.r s t 7 ; 3 3 6 4 e A 8.2.L 6.E B s O.G L p 7 6 n p.v.9 1 3 G 2.r p t 7 , 3 7 6 r E u L ",
"r t 4 7 L 9.h.= s *.1 7 < * 4 M s Y =.3 - 6 e r r p t z / Y L 4 r e t 6 z 9.h.= 9 ] 3 r 3 ; 3 M p O.o.3 ; 3 w p r p r G 8.t.Y v.",
"6 t 7 r 3 4 2 r B $ _ p ' / ] ] / t 3 >.t.j z 2.t.m.6.z z t ; p G n 1 r 7 2 3 r N % V p I / ] I 6.4 6 >.t.h h 2.t.v.2.G 3 3 e 7 ",
"L r z z ] 7 B / t m.Y / 6 6 7 6 , r p 6 u a.9.n = 3 3 s e n r G r 3 @.Y L 7 B ] r m.Y / 6 3 p f 3 4 a 6 N l.9.s = 3 3 t r r r z ",
"4 4 t 6.r p { = 4 3 4 2 6 7 f 7 3 O.n G 6.1 u r N B K Y z 2.l.z w 3 @.Y r t ] = 4 4 3 1 6 6 r 3 4 n n z t.1 f r N _ J O.a.2.r.t ",
"1 7 = r *.G r t 2 * e : r 0.k.e t.d.6 3 z t 3 3 l.{ 7 3 r 3 1 s r s.1 q Y Y 7 p 1 * 7 , s Y r.7 r.-.3 3 e u 3 1 m.{ 7 1 3 ; 7 ; ",
"3 B r p 7 7 s / 0.L u B o.3 3 1 t 3 e s z t n / 6 7 r f r r N B Y 1 e r r 7 f h.t.Y h Y o.6 3 1 r 6 3 a z e n u 3 7 t s p =.Y t ",
"{ s / t.G 3 t e 1 f { E r 6 M f t Y E u t r r 4 s h z 8./ Y         J 9.] 1 p < 4 K @.E r 5 B { t A u t.z 6 e t B A z >.=.1 7 B ",
"4 A = 1 r e =.t.t 9 t 1 s n ' B Y w 4 3 p 2.a.=.L 2.7 3 t   A.A.      4 p B L 3 1 7 s ; p Y { t r r t 3 B Y z ' L t 4 1 1 f t.2.",
"7 t 7 7 G ,.t ; r =.z B L ' m.r 2 7 6 9.u r t r 7 r t 3 4   A.A.      r o.,.M.=.{ Y 3 N / u t 7 z L r +.L L s t r f Y r r 4 3 3 ",
"f 3 Y Y o.f 7 G Y s r 3 4 r 1 1 B 0.m.r r ' ' =.Y 3 r t.Y   A.A.      v.{ t 7 t t f ) Y 2 r 7 t ,.t 3 3 6 r N =.t.f t h.X.h f B ",
"t 4 Y b.3 6 p 9.3 r 7 V s B N u g.s 4 _ 8.N.r t u Y                         3 B 3 r 3 p M M p s 7 4 t z f r.p s 9 s +.4 : E L s ",
"h.o.U t 4 ' h.t r t o.m.n.m.v.m.7 M 0.h.s 7 s r ' Y                         h.t r s 2.l.m.v.b.r.L J a.Y s 7 N r h r e r k.Y A z.",
"s G 7 r l.n.t l.8.b.f r u s _ 6       : r r         A.A.A.A.A.A.A.A.V.V.V.V.        z 9 z       Y u 1 3 6 6 r.v.t N B r s 7 3 1 ",
"3 M *.Y 2 1 3 r 4 t 1 % 7 r 3 I       z.r.*.        A.A.A.A.A.A.A.A.V.V.V.V.        3 % 7       h 3 u r.0.l.s r Y n.{ z.m.' f 3 ",
"m.o.b.B.N.@.1 { r e L Y { E         A.      A.A.A.A.A.A.A.V.A.A.A.A.V.A.A.A.V.V.V.C.      A.        B t Y t 6 ;.] r M 3 7 r L g.",
"f f 7 3 p B.N.r.{ *.m.N.2.'               A.A.A.V.V.V.V.V.@ A.A.V.V.V.@ o V.V.V.V.C.                t p 3 B ' ' 6 t.G ' 0.B t , ",
"t 1 r B r 6 1 Y N 9 f r t 6               A.A.A.V.V.V.V.V.@ A.A.V.V.V.@ @ V.V.V.V.C.                M.B.k.@.B s m.r s s p.f k.k.",
"A =.n.n.m.m.*.s f 7 7 7 s N B 0.      A.A.A.V.V.A.A.A.o @ V.V.V.V.V.V.V.V.V.o @ V.V.V.          7 e 3 7 4 3 7 r p r =.{ t r 3 p ",
"l.s 7 7 4 3 r ' r h r a.n.a.M.s     A.A.A.A.A.A.V.V.V.C.V.V.V.V.V.V.V.V.V.V.o @ o o V.          =.a 8.@.N p a.l.N.0.a M 7 z.g.g.",
"4 7 M ' B 7 s *.=.v.n.4 2 4 t t.    A.A.A.A.A.A.V.V.V.V.V.V.V.V.V.V.V.V.V.V.o @ @ @ V.          v.L L @.B.h.z r 7 r r d.m.7 M ) ",
"s 0.*.m.n.v.m.o.6 2 1 9 v.r.m.N     A.V.V.V.V.V.V.V.V.@ @ @ V.V.V.V.@ @ @ V.    @ o V.          % 7 e e e r p r 5 V Y E B ' r 3 ",
"z l.N.B f s 1 6 s 9 3 0.h 6 t B     A.V.V.V.V.V.V.V.V.@ @ @ C.V.V.C.@ @ @ V.    @ o C.          p r.2.n.g.N n Y >.g.4 p 4 7 u ' ",
"0.s 7 6 3 N ' ] { v.m.s I '     A.A.A.V.V.@ V.V.V.V.@ @ @ @ @ @ @ @ @ @ @ @ C.V.@ #   @ @           z p ' l.l.L s 6 _ =.B L t t ",
"7 7 f ' r.m.n.b.9 1 2 _ v.9.    A.A.V.A.A.A.V.V.@ o V.V.V.          @ @ @ @ @ @ @ @ @ @ @           7 ) 0.3 r w r V m.L d.{ B 7 ",
"r.g.G >.r 3 3 ; 7 6 e 2.; r     A.A.V.A.A.A.V.V.@ @ V.V.V.          @ @ @ @ @ @ @ @ @ @ @           d.n.p 1 A A A { ) V h.z m.g.",
"Y r r 7 p A *.p s s h.          V.V.V.A.A.@ V.V.@ @ @     Z.Z.+ O O   @ @ @ @ @ @ #   @ @                 h ,.a.B.:.) ] r I r N ",
"7 r 0.g.=.=.s r.n.u   A.A.A.    A.A.A.o o V.o o @ @ @     Z.A.+ O O       @     @ @ #               # # #   m.p 6 1 s I ] M *.7 ",
"p Y v.p 3 3 7 6 , '   A.A.A.    A.A.A.@ @ V.o @ @ @ @     + + + O O       @     @ @ @               @ @ @   p s B r M = s _ M 2.",
"A G t r t 7 r 1 7 0.            V.V.A.A.A.V.V.V.@ @ @     O O O X X         # @     @                       r r 2.u z.f 3 o./ r ",
"t.t Y h z z r ' { s             V.V.A.A.A.V.V.V.@ @ @     O O O X .         # @     #                       p.m.4 3 1 M J / z N.",
"6 h z L t.r.I { 6 _ s           V.V.A.V.V.V.V.V.@ @ @ @ @                   @ @ @ #   @ @                 n.a.r M B N f 7 3 B s ",
"Y r 3 3 3 1 7 < 1 3 p 7 f M         V.V.V.V.@ @ @ @ @ @ @ @                     @ #                 ,.7 1 7 1 e { v.m.] t 6 6 p ",
"z r z r 7 7 7 7 t / z Y o.'         V.V.V.V.o @ @ @ @ @ @ @                     @ #                 3 7 { @.1 8.f ' 7 3 7 t r.b.",
"7 z 9.9.2.+.] l./ 7 2.9 7 0.        @ V.V.V.o @     @     @                 # @     @               t { n.Y 8.r 7 7 6 r { r.p 2 ",
"N 4 r 1 ; 6 6 7 6 6 7 t o.t 7 6       o @   # @ # #   # #   # # # #       #                     3 I =.6 , , 3 r , L 1.6.' r 1 s ",
"r w 1 r 6 6 1 7 B I 7 _ 9 : 5 ,       @ @   # @ @ #   @ @   # @ @ #       @                     Y 0.3 @.' t r A E 0.n 7 7 r 7 r ",
"t G t.t / 2.8.t.h r r 1.u 8.2.t.          @         @     @     @ @ @       # @                 N 7 1 2.p.z n t.2 6 e 7 p I a 7 ",
"t r 2 7 4 r 6 h s 4 e 3 3 1 t 4           #         #     @     # # #       # #                 r ] @.s : ; ; - p p 1 2 @.0.=.' ",
"6 r u r r 3 +.r r 6 , z p N u > t 2.            @ #       @                                 t , s o.4 s s B 6 B t Y Y 6.s.: 7 7 ",
"Y O.Y A A =.7 f =.=.r.h / e u i.3 ;                                                         s m.s 6 1 7 e A 2.O.2.4 : 1 r 3 7 r ",
"=.Y ' f =.r B { : 7 s 9.4 6 7 3 3 r                                                         a 6 1 p s 2.N =./ u 1 1 r { 6.X./ Y ",
"3 3 7 4 w @.f 1 6 7 1 : s z G r.    @                                                     @     ' { Y s r 3 4 3 O.=.0.7 : 1 , 2 ",
"r 4 4 r : / s J =.r 4 e A +.7 3                                                                 r e 4 3 $ t r 1 z 7 s 2 6 r E t ",
"n =.7 L M p 7 4 2 u 9.6.1.3 7 i                                                                 K r 7 3 @.4 7 6.u 1 B t.{ 8.1 7 ",
"K 7 { u r ' r 7 2 6 m.r 3 7 p ] 7 7       s r ; e =.                        r 7 1 7 m.      p 2.4 7 =.9.e h e : r =.r.e 1 7 s { ",
"3 { 1 7 7 f z.{ ] A 1 1 M 9.m.6 6 G       8.r.a.t.7                         h./ / ) 3       m.6 7 f 0.M { 2.8.s.8.7 z e ; f u 4 ",
"p 7 z { 6.J ' t { s B f X.4 3 p E t.3 1 ; 3 3 3 1 7 6 +.r.      @ #   { 9.J O.t ' s B f 2.4 1 r / r.6 1 ; 3 3 < 3 7 6 O.r.r 7 r ",
"Y p 3 3 7 7 3 1 1 3 t s 4 r r.l.4 e 4 p r 1 7 r ; z / +.2.      @ #   3 7 7 3 1 1 3 t u 4 r t.l.4 6 4 p r 1 7 r ; z K =.1.f { 0.",
"p ) B _ p 5 B Y p r e r =.Y B 7 1 s A 1./ r.r.r.2.r 9 1 3       @ #   ' s 5 N +.p 7 r r >.Y B 7 , s z 1.K r.r.,.2.r r 1 3 3 1 4 ",
"*.Y p m.v.E r r o.J m.' r 3 2 r r.2.r 3 ; 3 s t 3 ; 6 t r t         t v.v.Y r r { ] v.L r 3 1 t r.>.u 3 ; 3 s t 4 ; 3 = 6 t - s ",
"r 1 ; 3 ; 1 t *.t.r p r @.6 1 3 = 1 3 e s < e 1 6 M Y { 2.z A X.w 4 7 6 ; : s *.t.r p r ) 6 , 3 = 1 3 e M 1 e 3 6 f E / 6.z { { ",
"6 s V B a z v.L 7 t 2.t.7 2.t.Y E t / 2.r Y =.v./ w r 4 4 7 1 1 e 7 h z s M l.L 7 t =.b.7 l.=.>.G r / 2.r Y =.v.G 7 r 4 4 7 3 7 ",
"s ] / : ' b.t 7 r ' 3 3 7 1 7 3 r 6 3 4 p e 3 t A L 4 3 6 r r e z t y : @.i.t 7 r ' 3 3 r 7 r r r 7 3 4 s 7 3 r A G 7 6 3 r p r ",
"/ t : s B 7 1 B s r N / B p 3 r t e p t 9 r e s.r t p E O.1.z f E Y 4 h Y 7 1 A s r N / N r 3 p r e p t 7 7 e l.r t r z O.1.h p ",
"r r B 2 6 t Y s *.,.m.7 f o.k.h.a.M.p.v.L Y 2.e / @.2.z 4 r M f 7 3 B 1 6 s L r *.>.v.r f 1.r.h.a.m.a.v.L Y 2.r B @.=.B 6 r B Y ",
"p s 3 r 3 e e ' A 6 6 r G 6 p p 1 r r 6 r r 7 4 r r 7 r e z r 7 : s : 7 - e 6 =.@.e r e O.r f r : e e w e t 4 e f r 7 6 7 u 6 3 ",
"M B { g.r.l.t.t L { 2.2.t N M 6 Y N r s / p Y z r 7 3 1 +.t.h.;.6 Y G h L g.>.e 7 _ ' r.r e 7 6 Y N p r t 4 n u ' r e p 8.2.k.B ",
"0.f 7 1 , 3 6 7 f 7 6 , / 2.m.*.r O.h.r t Y f r B Y h g.r 7 7 s 8.t t h h t ' t B r.d.f _ h k.l.h { l.=.z ,.A h z Y / 0.t 7 N ' ",
"z r 7 r 1 , 3 7 6 7 7 r s 1 p a Y r.s 7 3 r 1 G r.w r 7 r N p 3 3 r 6 3 3 r h >.g.h 7 a >.m.' ' g.z s 3 Y u 3 G =.r r 7 r s N t ",
"t p *.0.>./ ' Y ] @./ h.6 r B L h.7 r / p.Y Y U r e r p G r.0.8.Y t ' B h A =.2.7 f M =.z e p ,.7 6 r s O.t O.Y r 3 r B z 0.{ { "
};
