/* XPM */
static char *_1360444c662488db71314fe3ce4d7694RGsO8S7R9aPtDIZ[] = {
/* columns rows colors chars-per-pixel */
"64 64 45 1 ",
"  c black",
". c gray6",
"X c gray8",
"o c gray7",
"O c gray1",
"+ c gray61",
"@ c #EEEEEE",
"# c gray93",
"$ c #DDDDDD",
"% c gray14",
"& c #9A9A9A",
"* c white",
"= c #252525",
"- c gray97",
"; c gray96",
": c #E4E4E4",
"> c gray81",
", c #343434",
"< c gray19",
"1 c #2D2D2D",
"2 c gray3",
"3 c #C0C0C0",
"4 c #010101",
"5 c gray74",
"6 c #E6E6E6",
"7 c gray28",
"8 c #232323",
"9 c #222222",
"0 c #2C2C2C",
"q c #FDFDFD",
"w c #F4F4F4",
"e c #2A2A2A",
"r c gray82",
"t c gray4",
"y c gray75",
"u c #939393",
"i c gray54",
"p c #818181",
"a c gray9",
"s c gray94",
"d c #EFEFEF",
"f c #989898",
"g c #D0D0D0",
"h c gray76",
"j c gray13",
/* pixels */
"                                                                ",
"                                                                ",
"                                                                ",
"                                                                ",
"                                                                ",
"                                                                ",
"                                                                ",
"                  .XXXXXXXXXXXXXXXXXXXXXXXXXXoO                 ",
"                  +@#########################$%                 ",
"                  &**************************#=                 ",
"                  &**************************#=                 ",
"                  &**************************#=                 ",
"                  &******-;;;;;;;;;;;;;;;;;;;:%                 ",
"                  &*****>,<<<<<<<<<<<<<<<<<<<12                 ",
"                  &*****34                                      ",
"                  &*****34                                      ",
"                  &*****34                                      ",
"                  &*****34                                      ",
"                  &*****34                                      ",
"                  &*****34                                      ",
"                  &*****34                                      ",
"                  &*****34                                      ",
"                  &*****34                                      ",
"                  &*****34                                      ",
"                  &*****34                                      ",
"                  &*****34                                      ",
"                  &*****34                                      ",
"                  &*****5                                       ",
"                  &*****67,,,,,,,,,,,,,,,,,,8                   ",
"                  &**************************9                  ",
"                  &**************************0                  ",
"                  &**************************0                  ",
"                  &**************************0                  ",
"                  &*****qwwwwwwwwwwwwwwwwwwwwe                  ",
"                  &*****r<eeeeeeeeeeeeeeeeee1t                  ",
"                  &*****y                                       ",
"                  &*****34                                      ",
"                  &*****34                                      ",
"                  &*****34                                      ",
"                  &*****34                                      ",
"                  &*****34                                      ",
"                  &*****34                                      ",
"                  &*****34                                      ",
"                  &*****34                                      ",
"                  &*****34                                      ",
"                  &*****34                                      ",
"                  &*****34                                      ",
"                  &*****34                                      ",
"                  &*****34                                      ",
"                  &*****34                                      ",
"                  &*****y                                       ",
"                  &*****#uiiiiiiiiiiiiiiiiiiipa                 ",
"                  &**************************s=                 ",
"                  &**************************#=                 ",
"                  &**************************#=                 ",
"                  &**************************d=                 ",
"                  fg>>>>>>>>>>>>>>>>>>>>>>>>>hj                 ",
"                                                                ",
"                                                                ",
"                                                                ",
"                                                                ",
"                                                                ",
"                                                                ",
"                                                                "
};
