/* XPM */
static char *_810f1cf36d84dfbbd6f3db0d68e4866aeSJXyNR59Fo6oWU[] = {
/* columns rows colors chars-per-pixel */
"64 64 176 2 ",
"   c black",
".  c #111111",
"X  c #2A2A2A",
"o  c #646464",
"O  c gray63",
"+  c #D2D2D2",
"@  c gray85",
"#  c #D7D7D7",
"$  c #B7B7B7",
"%  c #959595",
"&  c gray32",
"*  c #252525",
"=  c #060606",
"-  c gray5",
";  c gray84",
":  c #F4F4F4",
">  c white",
",  c #EFEFEF",
"<  c gray76",
"1  c #767676",
"2  c gray19",
"3  c #E1E1E1",
"4  c #DFDFDF",
"5  c #414141",
"6  c #020202",
"7  c #070707",
"8  c #8D8D8D",
"9  c #F6F6F6",
"0  c #F9F9F9",
"q  c #868686",
"w  c #010101",
"e  c #9F9F9F",
"r  c #FEFEFE",
"t  c #FDFDFD",
"y  c gray97",
"u  c #AAAAAA",
"i  c gray57",
"p  c gainsboro",
"a  c gray53",
"s  c #5F5F5F",
"d  c #505050",
"f  c gray26",
"g  c #5D5D5D",
"h  c #626262",
"j  c gray70",
"k  c #808080",
"l  c gray30",
"z  c #090909",
"x  c #040404",
"c  c #1D1D1D",
"v  c #CBCBCB",
"b  c gray98",
"n  c #2C2C2C",
"m  c #191919",
"M  c #F8F8F8",
"N  c #434343",
"B  c #A5A5A5",
"V  c gray87",
"C  c #0C0C0C",
"Z  c gray69",
"A  c #222222",
"S  c gray2",
"D  c #A0A0A0",
"F  c gray24",
"G  c gray27",
"H  c gray11",
"J  c #EAEAEA",
"K  c gray89",
"L  c #151515",
"P  c #A9A9A9",
"I  c #7C7C7C",
"U  c #FBFBFB",
"Y  c #3E3E3E",
"T  c gray12",
"R  c #F3F3F3",
"E  c gray95",
"W  c #2F2F2F",
"Q  c #D5D5D5",
"!  c #8E8E8E",
"~  c #E7E7E7",
"^  c gray4",
"/  c gray82",
"(  c gray18",
")  c gray8",
"_  c #EEEEEE",
"`  c #6F6F6F",
"'  c #161616",
"]  c #101010",
"[  c #7E7E7E",
"{  c #656565",
"}  c #131313",
"|  c gray77",
" . c #0B0B0B",
".. c #989898",
"X. c gray42",
"o. c gray91",
"O. c #ECECEC",
"+. c #6D6D6D",
"@. c #353535",
"#. c #E2E2E2",
"$. c #444444",
"%. c gray79",
"&. c gray21",
"*. c #282828",
"=. c gray90",
"-. c gray20",
";. c gray3",
":. c gray92",
">. c #747474",
",. c #373737",
"<. c #C8C8C8",
"1. c #C5C5C5",
"2. c gray29",
"3. c gray",
"4. c gray51",
"5. c #6A6A6A",
"6. c gray62",
"7. c #939393",
"8. c gray75",
"9. c #ACACAC",
"0. c #797979",
"q. c #E4E4E4",
"w. c gray99",
"e. c gray40",
"r. c gray50",
"t. c gray72",
"y. c #909090",
"u. c #C1C1C1",
"i. c #313131",
"p. c #E6E6E6",
"a. c gray80",
"s. c #818181",
"d. c gray52",
"f. c #A7A7A7",
"g. c gray46",
"h. c #515151",
"j. c #BCBCBC",
"k. c #181818",
"l. c DimGray",
"z. c gray22",
"x. c LightGray",
"c. c #3C3C3C",
"v. c gray15",
"b. c #929292",
"n. c #E9E9E9",
"m. c gray58",
"M. c #4E4E4E",
"N. c #BBBBBB",
"B. c #848484",
"V. c gray39",
"C. c #C0C0C0",
"Z. c #5B5B5B",
"A. c gray48",
"S. c #8B8B8B",
"D. c gray10",
"F. c gray93",
"G. c #6C6C6C",
"H. c #464646",
"J. c gray14",
"K. c gray73",
"L. c gray38",
"P. c gray56",
"I. c #F1F1F1",
"U. c gray61",
"Y. c gray37",
"T. c #606060",
"R. c gray86",
"E. c gray7",
"W. c gray17",
"Q. c gray60",
"!. c gray6",
"~. c #494949",
"^. c #5A5A5A",
"/. c gray78",
"(. c #888888",
"). c #555555",
/* pixels */
"                                                                                                                                ",
"                                                                                                                                ",
"                                                                                                                                ",
"                                                                                                                                ",
"                                                                                                                                ",
"                                                                                                                                ",
"                                                                                                                                ",
"                                                    . X o O + @ @ # $ % & * =                                                   ",
"                                                - % ; : > > > > > > > > > , < 1                                                 ",
"                                              2 3 > > > > > > > > > > > > > > > 4 5 6                                           ",
"                                          7 8 9 > > > > > > > > > > > > > > > > > 0 q                                           ",
"                                        w e r > > > > > > r t t t t t r > > > > > > y u w                                       ",
"                                        i > > > > > > r p a s d f g h j > > > > > > > 9 1                                       ",
"                                      k t > > > > > > l z             x c v r > > > > > b n                                     ",
"                                    m M > > > > > y N                     x B > > > > > > V C                                   ",
"                                    Z > > > > > > A                         S D r > > > > t 8                                   ",
"                                  F 9 > > > > y G                             H J > > > > > K L                                 ",
"                                = P > > > > > O 6                               I > > > > > U Y                                 ",
"                                T R > > > > E W                                   9 > > > > > Q                                 ",
"                                s > > > > > u                                     ! > > > > > ~ ^                               ",
"                                / > > > > > (                                     ) _ > > > > r `                               ",
"                              ' > > > > > ~ ]                                   z [ > > > > > > P                               ",
"                              { > > > > > u x                                 } | > > > > > > > p  .                            ",
"                              ..> > > > > X.                                f o.r > > > > > > > O.*                             ",
"                              $ > > > > > +.                              D b > > > > > > > > > 9 @.                            ",
"                            ] #.> > > > > $.                          c %.0 > > > > > > > > > > 9 &.                            ",
"                            *._ > > > > > T                         +.=.> > > > > > > > > > > > U G                             ",
"                            -.: > > > > r ;.                    7 i _ > > > > > r K s :.> > > > > >.                            ",
"                            ,.y > > > > #                     5 <.> > > > > > > 1.2.  3.> > > > > 4.                            ",
"                            ,.y > > > > 3.                  5.M r > > > > > E 6.;.    7.> > > > > 8                             ",
"                            ,.y > > > > 8.              ' 9.> > > > > > > o.0.        0.> > > > > ..                            ",
"                            ,.y > > > > 8.            ,.q.w.> > > > > U ; H           e.> > > > > B                             ",
"                            ,.y > > > > 8.        x r.0 > > > > > > w.e               s > > > > > O                             ",
"                            ,.y > > > > 8.      T t.0 > > > > > > , $.                1 > > > > > y.                            ",
"                            ,.y > > > > u.    i.p.> > > > > r w.a.m                   8 > > > > > s.                            ",
"                            ,.y > > > > 0 ( d.R r > > > > > R X.w                     f.> > > > > g.                            ",
"                            ,.y > > > > > w.r > > > > > > : f                         3.> > > > > h.                            ",
"                            *._ > > > > > > > > > > > t u .                           j.> > > > 9 @.                            ",
"                            k.p.> > > > > > > > > > > l.;.                            ~ > > > > y z.                            ",
"                            ;.@ > > > > > > > > > x.c.                              v.> > > > > J T                             ",
"                              D > > > > > > > > O T                                 d > > > > > / x                             ",
"                              b.> > > > > > n.I                                     >.> > > > > m.                              ",
"                              M.> > > > > > {                                     = N.> > > > > [                               ",
"                                w.> > > > > B.                                    ) _ > > > > b  .                              ",
"                                t.> > > > > =.                                    V.> > > > > C.                                ",
"                                G > > > > > r Z.                                  : > > > > > l                                 ",
"                                ) 4 > > > > > <.7                               A.> > > > > 3 )                                 ",
"                                  S.> > > > > w.G                             D.:.> > > > > 8 w                                 ",
"                                  k.O.> > > > > > *.                        C j.t > > > > F.C                                   ",
"                                    G.> > > > > > y H.                    J.K.> > > > > > L.                                    ",
"                                    = @ > > > > > > r P. .6           ;.H.> > > > > > w.O w                                     ",
"                                      z.r > > > > > > > I.U.Y.T.T.Y.S.R.> > > > > > r < E.                                      ",
"                                        W.> > > > > > > > r t t t t r > > > > > > t / 6                                         ",
"                                          z.q.> > > > > > > > > > > > > > > > > > Q.!.                                          ",
"                                            . D > > > > > > > > > > > > > > > O.~.6                                             ",
"                                                5 i Q : > > > > > > > > : Q % S                                                 ",
"                                                    ] X ^.k e /.C.9.(.).X ]                                                     ",
"                                                                                                                                ",
"                                                                                                                                ",
"                                                                                                                                ",
"                                                                                                                                ",
"                                                                                                                                ",
"                                                                                                                                ",
"                                                                                                                                "
};
