/* XPM */
static char *_493f31fa45a4b38e8138a305e6bfe745mH0CvbPy9RodTVB[] = {
/* columns rows colors chars-per-pixel */
"64 64 76 1 ",
"  c black",
". c gray5",
"X c #3C3C3C",
"o c #585858",
"O c gray36",
"+ c #626262",
"@ c gray39",
"# c #5B5B5B",
"$ c gray3",
"% c #6A6A6A",
"& c gray83",
"* c white",
"= c gray97",
"- c #191919",
"; c gray22",
": c #ECECEC",
"> c #EFEFEF",
", c gray24",
"< c #A9A9A9",
"1 c gray96",
"2 c #313131",
"3 c #B9B9B9",
"4 c #F3F3F3",
"5 c #FEFEFE",
"6 c #2A2A2A",
"7 c #9F9F9F",
"8 c #F8F8F8",
"9 c #282828",
"0 c gray66",
"q c #F4F4F4",
"w c #151515",
"e c #AFAFAF",
"r c #F9F9F9",
"t c #FBFBFB",
"y c #101010",
"u c #818181",
"i c gray79",
"p c #515151",
"a c #F1F1F1",
"s c #B7B7B7",
"d c #7C7C7C",
"f c gray1",
"g c #EEEEEE",
"h c gray32",
"j c gray58",
"k c gray10",
"l c #EAEAEA",
"z c #F6F6F6",
"x c #929292",
"c c gray12",
"v c gray35",
"b c #FDFDFD",
"n c gray94",
"m c gray69",
"M c gray13",
"N c #343434",
"B c #181818",
"V c gray93",
"C c gray9",
"Z c #161616",
"A c gray8",
"S c #131313",
"D c gray7",
"F c #202020",
"G c gray21",
"H c #060606",
"J c #898989",
"K c gray91",
"L c gray90",
"P c gray99",
"I c #222222",
"U c #959595",
"Y c #777777",
"T c gray82",
"R c gray81",
"E c gray80",
/* pixels */
"                                                                ",
"                                                                ",
"                                                                ",
"                                                                ",
"                                                                ",
"                                                                ",
"                                                                ",
"                              .XoO+@#$                          ",
"                             %&*****=-                          ",
"                           ;:*******>-                          ",
"                         ,<1********>-                          ",
"                       2345*********>-                          ",
"                     678************>-                          ",
"                   90q**************>-                          ",
"                 wer*******5t15*****>-                          ",
"               yu8********=ipXa*****>-                          ",
"                s********rdf -g*****>-                          ",
"                h******4jy   k>*****>-                          ",
"                 l***zxc     k>*****>-                          ",
"                 vbnm9       k>*****>-                          ",
"                 M0N         k>*****>-                          ",
"                             k>*****>-                          ",
"                             k>*****>-                          ",
"                             k>*****>-                          ",
"                             k>*****>-                          ",
"                             k>*****>-                          ",
"                             k>*****>-                          ",
"                             k>*****>-                          ",
"                             BV*****>-                          ",
"                             -g*****>-                          ",
"                             -g*****>-                          ",
"                             -g*****>-                          ",
"                             -g*****>-                          ",
"                             Cg*****>-                          ",
"                             Cg*****>-                          ",
"                             Zg*****>-                          ",
"                             Cg*****>-                          ",
"                             Zg*****>-                          ",
"                             wg*****>-                          ",
"                             Ag*****>-                          ",
"                             wg*****>-                          ",
"                             wg*****>-                          ",
"                             wg*****>-                          ",
"                             w:*****>-                          ",
"                             wV*****>-                          ",
"                             SV*****>-                          ",
"                             AV*****>-                          ",
"                             SV*****>-                          ",
"                             DV*****>-                          ",
"                             DV*****>-                          ",
"                 wMFFFFFFFFFFNn*****aGFFFFFFFFFFH               ",
"                 JKKKKKKKKKKKV5*****5lKKKKKKKKKLF               ",
"                 j*****************************PI               ",
"                 j*****************************PI               ",
"                 j*****************************PI               ",
"                 U******************************I               ",
"                 YTRRRRRRRRRRRRRRRRRRRRRRRRRRRRE-               ",
"                                                                ",
"                                                                ",
"                                                                ",
"                                                                ",
"                                                                ",
"                                                                ",
"                                                                "
};
